<mxfile host="65bd71144e">
    <diagram name="Diagrama de Classes" id="c4acf3e9-155e-7222-9cf6-157b1a14988f">
        <mxGraphModel dx="615" dy="369" grid="0" gridSize="10" guides="1" tooltips="1" connect="1" arrows="1" fold="1" page="1" pageScale="1" pageWidth="1169" pageHeight="827" background="#ffffff" math="0" shadow="0">
            <root>
                <mxCell id="0"/>
                <mxCell id="1" parent="0"/>
                <mxCell id="a-GNcQjXYbUmJu2RaoGT-13" style="edgeStyle=orthogonalEdgeStyle;rounded=0;orthogonalLoop=1;jettySize=auto;html=1;entryX=0;entryY=0.5;entryDx=0;entryDy=0;exitX=0.5;exitY=1;exitDx=0;exitDy=0;" parent="1" source="5d2195bd80daf111-18" target="a-GNcQjXYbUmJu2RaoGT-9" edge="1">
                    <mxGeometry relative="1" as="geometry">
                        <mxPoint x="191" y="594" as="targetPoint"/>
                        <Array as="points">
                            <mxPoint x="196" y="489"/>
                        </Array>
                    </mxGeometry>
                </mxCell>
                <mxCell id="a-GNcQjXYbUmJu2RaoGT-35" style="edgeStyle=orthogonalEdgeStyle;rounded=0;orthogonalLoop=1;jettySize=auto;html=1;exitX=1;exitY=0.5;exitDx=0;exitDy=0;entryX=0;entryY=0.5;entryDx=0;entryDy=0;" parent="1" source="5d2195bd80daf111-18" target="a-GNcQjXYbUmJu2RaoGT-4" edge="1">
                    <mxGeometry relative="1" as="geometry"/>
                </mxCell>
                <mxCell id="a-GNcQjXYbUmJu2RaoGT-36" value="0...*" style="edgeLabel;html=1;align=center;verticalAlign=middle;resizable=0;points=[];" parent="a-GNcQjXYbUmJu2RaoGT-35" vertex="1" connectable="0">
                    <mxGeometry x="0.7381" y="-1" relative="1" as="geometry">
                        <mxPoint x="-8" y="-16" as="offset"/>
                    </mxGeometry>
                </mxCell>
                <mxCell id="a-GNcQjXYbUmJu2RaoGT-37" value="1" style="edgeLabel;html=1;align=center;verticalAlign=middle;resizable=0;points=[];" parent="a-GNcQjXYbUmJu2RaoGT-35" vertex="1" connectable="0">
                    <mxGeometry x="-0.8107" y="-2" relative="1" as="geometry">
                        <mxPoint y="13" as="offset"/>
                    </mxGeometry>
                </mxCell>
                <mxCell id="5d2195bd80daf111-18" value="&lt;p style=&quot;margin: 0px ; margin-top: 4px ; text-align: center&quot;&gt;&lt;i&gt;Unidade&lt;/i&gt;&lt;/p&gt;&lt;hr size=&quot;1&quot;&gt;&lt;p style=&quot;margin: 0px ; margin-left: 4px&quot;&gt;+ id: Integer (pk)&lt;/p&gt;&lt;p style=&quot;margin: 0px ; margin-left: 4px&quot;&gt;+ codug: String (7)&lt;/p&gt;&lt;p style=&quot;margin: 0px ; margin-left: 4px&quot;&gt;+ autonomia: boolean&lt;br&gt;+ nome: String (50)&lt;/p&gt;&lt;p style=&quot;margin: 0px ; margin-left: 4px&quot;&gt;+ rm: Integer (fk)&lt;/p&gt;&lt;p style=&quot;margin: 0px ; margin-left: 4px&quot;&gt;&lt;br&gt;&lt;/p&gt;" style="verticalAlign=top;align=left;overflow=fill;fontSize=12;fontFamily=Helvetica;html=1;rounded=0;shadow=0;comic=0;labelBackgroundColor=none;strokeWidth=1" parent="1" vertex="1">
                    <mxGeometry x="94" y="217.94" width="200" height="107.87" as="geometry"/>
                </mxCell>
                <mxCell id="a-GNcQjXYbUmJu2RaoGT-19" value="0..*" style="edgeStyle=orthogonalEdgeStyle;rounded=0;orthogonalLoop=1;jettySize=auto;html=1;" parent="1" source="a-GNcQjXYbUmJu2RaoGT-4" target="a-GNcQjXYbUmJu2RaoGT-8" edge="1">
                    <mxGeometry x="0.4286" y="15" relative="1" as="geometry">
                        <mxPoint as="offset"/>
                    </mxGeometry>
                </mxCell>
                <mxCell id="a-GNcQjXYbUmJu2RaoGT-20" value="1" style="edgeLabel;html=1;align=center;verticalAlign=middle;resizable=0;points=[];" parent="a-GNcQjXYbUmJu2RaoGT-19" vertex="1" connectable="0">
                    <mxGeometry x="-0.7701" y="1" relative="1" as="geometry">
                        <mxPoint x="-1" y="16" as="offset"/>
                    </mxGeometry>
                </mxCell>
                <mxCell id="a-GNcQjXYbUmJu2RaoGT-4" value="&lt;p style=&quot;margin: 0px ; margin-top: 4px ; text-align: center&quot;&gt;&lt;i&gt;Documento&lt;/i&gt;&lt;/p&gt;&lt;hr size=&quot;1&quot;&gt;&lt;p style=&quot;margin: 0px ; margin-left: 4px&quot;&gt;+ id: Integer (pk)&lt;/p&gt;&lt;p style=&quot;margin: 0px ; margin-left: 4px&quot;&gt;+ numero: Integer&lt;/p&gt;&lt;p style=&quot;margin: 0px ; margin-left: 4px&quot;&gt;+ data: Date&lt;br&gt;+ secao: String (50)&lt;/p&gt;&lt;p style=&quot;margin: 0px ; margin-left: 4px&quot;&gt;+ unidade_id: Integer (fk)&lt;/p&gt;&lt;p style=&quot;margin: 0px ; margin-left: 4px&quot;&gt;&lt;br&gt;&lt;/p&gt;" style="verticalAlign=top;align=left;overflow=fill;fontSize=12;fontFamily=Helvetica;html=1;rounded=0;shadow=0;comic=0;labelBackgroundColor=none;strokeWidth=1" parent="1" vertex="1">
                    <mxGeometry x="388" y="215.32" width="200" height="113.12" as="geometry"/>
                </mxCell>
                <mxCell id="a-GNcQjXYbUmJu2RaoGT-21" style="edgeStyle=orthogonalEdgeStyle;rounded=0;orthogonalLoop=1;jettySize=auto;html=1;entryX=0.458;entryY=-0.018;entryDx=0;entryDy=0;exitX=0.458;exitY=1.019;exitDx=0;exitDy=0;exitPerimeter=0;entryPerimeter=0;" parent="1" source="a-GNcQjXYbUmJu2RaoGT-8" target="a-GNcQjXYbUmJu2RaoGT-9" edge="1">
                    <mxGeometry relative="1" as="geometry"/>
                </mxCell>
                <mxCell id="a-GNcQjXYbUmJu2RaoGT-22" value="0..*" style="edgeLabel;html=1;align=center;verticalAlign=middle;resizable=0;points=[];" parent="a-GNcQjXYbUmJu2RaoGT-21" vertex="1" connectable="0">
                    <mxGeometry x="0.6667" relative="1" as="geometry">
                        <mxPoint x="18" y="-7" as="offset"/>
                    </mxGeometry>
                </mxCell>
                <mxCell id="a-GNcQjXYbUmJu2RaoGT-23" value="1" style="edgeLabel;html=1;align=center;verticalAlign=middle;resizable=0;points=[];" parent="a-GNcQjXYbUmJu2RaoGT-21" vertex="1" connectable="0">
                    <mxGeometry x="-0.7" y="2" relative="1" as="geometry">
                        <mxPoint x="-14" as="offset"/>
                    </mxGeometry>
                </mxCell>
                <mxCell id="a-GNcQjXYbUmJu2RaoGT-8" value="&lt;p style=&quot;margin: 0px ; margin-top: 4px ; text-align: center&quot;&gt;&lt;i&gt;PlanoDeTrabalho&lt;/i&gt;&lt;/p&gt;&lt;hr size=&quot;1&quot;&gt;&lt;p style=&quot;margin: 0px ; margin-left: 4px&quot;&gt;+ id: Integer (pk)&lt;/p&gt;&lt;p style=&quot;margin: 0px ; margin-left: 4px&quot;&gt;+ numero: Integer&lt;/p&gt;&lt;p style=&quot;margin: 0px ; margin-left: 4px&quot;&gt;+ data: Date&lt;/p&gt;&lt;p style=&quot;margin: 0px ; margin-left: 4px&quot;&gt;+ tipo_ptrab_id: Integer (fk)&lt;br&gt;&lt;span&gt;+ operacao: String (100)&lt;/span&gt;&lt;br&gt;&lt;/p&gt;&lt;p style=&quot;margin: 0px ; margin-left: 4px&quot;&gt;+ acao: String (200)&lt;/p&gt;&lt;p style=&quot;margin: 0px ; margin-left: 4px&quot;&gt;+ documento_id: Integer (fk)&lt;/p&gt;&lt;p style=&quot;margin: 0px ; margin-left: 4px&quot;&gt;&lt;br&gt;&lt;/p&gt;" style="verticalAlign=top;align=left;overflow=fill;fontSize=12;fontFamily=Helvetica;html=1;rounded=0;shadow=0;comic=0;labelBackgroundColor=none;strokeWidth=1" parent="1" vertex="1">
                    <mxGeometry x="656" y="202.88" width="200" height="138" as="geometry"/>
                </mxCell>
                <mxCell id="a-GNcQjXYbUmJu2RaoGT-27" value="0..*" style="edgeStyle=orthogonalEdgeStyle;rounded=0;orthogonalLoop=1;jettySize=auto;html=1;entryX=0.5;entryY=0;entryDx=0;entryDy=0;" parent="1" source="a-GNcQjXYbUmJu2RaoGT-9" target="a-GNcQjXYbUmJu2RaoGT-26" edge="1">
                    <mxGeometry x="0.75" y="20" relative="1" as="geometry">
                        <mxPoint as="offset"/>
                    </mxGeometry>
                </mxCell>
                <mxCell id="a-GNcQjXYbUmJu2RaoGT-38" value="1" style="edgeLabel;html=1;align=center;verticalAlign=middle;resizable=0;points=[];" parent="a-GNcQjXYbUmJu2RaoGT-27" vertex="1" connectable="0">
                    <mxGeometry x="-0.7125" y="-4" relative="1" as="geometry">
                        <mxPoint x="-6" y="-3" as="offset"/>
                    </mxGeometry>
                </mxCell>
                <mxCell id="a-GNcQjXYbUmJu2RaoGT-9" value="&lt;p style=&quot;margin: 0px ; margin-top: 4px ; text-align: center&quot;&gt;&lt;i&gt;Despesa&lt;/i&gt;&lt;/p&gt;&lt;hr size=&quot;1&quot;&gt;&lt;p style=&quot;margin: 0px ; margin-left: 4px&quot;&gt;+ id: Integer (pk)&lt;/p&gt;&lt;p style=&quot;margin: 0px ; margin-left: 4px&quot;&gt;+ tipo_despesa_id: Integer (fk)&lt;/p&gt;&lt;p style=&quot;margin: 0px ; margin-left: 4px&quot;&gt;+ unidade_id: Integer (fk)&lt;/p&gt;&lt;p style=&quot;margin: 0px ; margin-left: 4px&quot;&gt;+ data: Date&lt;br&gt;+ nd: String (8)&lt;/p&gt;&lt;p style=&quot;margin: 0px ; margin-left: 4px&quot;&gt;+ valor: Decimal&lt;/p&gt;&lt;p style=&quot;margin: 0px ; margin-left: 4px&quot;&gt;+ memoria: Text&lt;/p&gt;&lt;p style=&quot;margin: 0px ; margin-left: 4px&quot;&gt;+ ptrab_id&lt;/p&gt;" style="verticalAlign=top;align=left;overflow=fill;fontSize=12;fontFamily=Helvetica;html=1;rounded=0;shadow=0;comic=0;labelBackgroundColor=none;strokeWidth=1" parent="1" vertex="1">
                    <mxGeometry x="656" y="414" width="200" height="150" as="geometry"/>
                </mxCell>
                <mxCell id="a-GNcQjXYbUmJu2RaoGT-11" style="edgeStyle=orthogonalEdgeStyle;rounded=0;orthogonalLoop=1;jettySize=auto;html=1;entryX=1;entryY=0.5;entryDx=0;entryDy=0;" parent="1" source="a-GNcQjXYbUmJu2RaoGT-10" target="a-GNcQjXYbUmJu2RaoGT-9" edge="1">
                    <mxGeometry relative="1" as="geometry"/>
                </mxCell>
                <mxCell id="a-GNcQjXYbUmJu2RaoGT-24" value="0..*" style="edgeLabel;html=1;align=center;verticalAlign=middle;resizable=0;points=[];" parent="a-GNcQjXYbUmJu2RaoGT-11" vertex="1" connectable="0">
                    <mxGeometry x="0.7647" relative="1" as="geometry">
                        <mxPoint x="8" y="-15" as="offset"/>
                    </mxGeometry>
                </mxCell>
                <mxCell id="a-GNcQjXYbUmJu2RaoGT-25" value="1" style="edgeLabel;html=1;align=center;verticalAlign=middle;resizable=0;points=[];" parent="a-GNcQjXYbUmJu2RaoGT-11" vertex="1" connectable="0">
                    <mxGeometry x="-0.7882" relative="1" as="geometry">
                        <mxPoint x="1" y="15" as="offset"/>
                    </mxGeometry>
                </mxCell>
                <mxCell id="a-GNcQjXYbUmJu2RaoGT-10" value="&lt;p style=&quot;margin:0px;margin-top:4px;text-align:center;&quot;&gt;&lt;i&gt;TipoDespesa&lt;/i&gt;&lt;/p&gt;&lt;hr size=&quot;1&quot;&gt;&lt;p style=&quot;margin:0px;margin-left:4px;&quot;&gt;+ id: Integer (pk)&lt;/p&gt;&lt;p style=&quot;margin:0px;margin-left:4px;&quot;&gt;+ nome: String(50)&lt;/p&gt;&lt;p style=&quot;margin:0px;margin-left:4px;&quot;&gt;&lt;br&gt;&lt;/p&gt;" style="verticalAlign=top;align=left;overflow=fill;fontSize=12;fontFamily=Helvetica;html=1;rounded=0;shadow=0;comic=0;labelBackgroundColor=none;strokeWidth=1" parent="1" vertex="1">
                    <mxGeometry x="956" y="449" width="190" height="80" as="geometry"/>
                </mxCell>
                <mxCell id="a-GNcQjXYbUmJu2RaoGT-26" value="&lt;p style=&quot;margin: 0px ; margin-top: 4px ; text-align: center&quot;&gt;&lt;i&gt;Localidade&lt;/i&gt;&lt;/p&gt;&lt;hr size=&quot;1&quot;&gt;&lt;p style=&quot;margin: 0px ; margin-left: 4px&quot;&gt;+ id: Integer (pk)&lt;/p&gt;&lt;p style=&quot;margin: 0px ; margin-left: 4px&quot;&gt;+ cidade_id: Integer (fk)&lt;/p&gt;&lt;p style=&quot;margin: 0px ; margin-left: 4px&quot;&gt;+ despesa_id: Integer (fk)&lt;/p&gt;&lt;p style=&quot;margin: 0px ; margin-left: 4px&quot;&gt;&lt;br&gt;&lt;/p&gt;" style="verticalAlign=top;align=left;overflow=fill;fontSize=12;fontFamily=Helvetica;html=1;rounded=0;shadow=0;comic=0;labelBackgroundColor=none;strokeWidth=1" parent="1" vertex="1">
                    <mxGeometry x="656" y="706" width="200" height="80" as="geometry"/>
                </mxCell>
                <mxCell id="a-GNcQjXYbUmJu2RaoGT-29" value="0..*" style="edgeStyle=orthogonalEdgeStyle;rounded=0;orthogonalLoop=1;jettySize=auto;html=1;entryX=1;entryY=0.5;entryDx=0;entryDy=0;" parent="1" source="a-GNcQjXYbUmJu2RaoGT-28" target="a-GNcQjXYbUmJu2RaoGT-26" edge="1">
                    <mxGeometry x="0.7333" y="-10" relative="1" as="geometry">
                        <mxPoint as="offset"/>
                    </mxGeometry>
                </mxCell>
                <mxCell id="a-GNcQjXYbUmJu2RaoGT-39" value="1" style="edgeLabel;html=1;align=center;verticalAlign=middle;resizable=0;points=[];" parent="a-GNcQjXYbUmJu2RaoGT-29" vertex="1" connectable="0">
                    <mxGeometry x="-0.7867" y="3" relative="1" as="geometry">
                        <mxPoint y="7" as="offset"/>
                    </mxGeometry>
                </mxCell>
                <mxCell id="a-GNcQjXYbUmJu2RaoGT-28" value="&lt;p style=&quot;margin: 0px ; margin-top: 4px ; text-align: center&quot;&gt;Cidade&lt;/p&gt;&lt;hr size=&quot;1&quot;&gt;&lt;p style=&quot;margin: 0px ; margin-left: 4px&quot;&gt;+ id: Integer (pk)&lt;/p&gt;&lt;p style=&quot;margin: 0px ; margin-left: 4px&quot;&gt;+ nome: String(50)&lt;/p&gt;&lt;p style=&quot;margin: 0px ; margin-left: 4px&quot;&gt;+ estado_id: Integer (fk)&lt;/p&gt;&lt;p style=&quot;margin: 0px ; margin-left: 4px&quot;&gt;&lt;br&gt;&lt;/p&gt;" style="verticalAlign=top;align=left;overflow=fill;fontSize=12;fontFamily=Helvetica;html=1;rounded=0;shadow=0;comic=0;labelBackgroundColor=none;strokeWidth=1" parent="1" vertex="1">
                    <mxGeometry x="949" y="706" width="190" height="80" as="geometry"/>
                </mxCell>
                <mxCell id="4" style="edgeStyle=none;html=1;entryX=1;entryY=0.5;entryDx=0;entryDy=0;" parent="1" source="2" target="a-GNcQjXYbUmJu2RaoGT-8" edge="1">
                    <mxGeometry relative="1" as="geometry"/>
                </mxCell>
                <mxCell id="5" value="1" style="edgeLabel;html=1;align=center;verticalAlign=middle;resizable=0;points=[];" parent="4" vertex="1" connectable="0">
                    <mxGeometry x="-0.74" y="1" relative="1" as="geometry">
                        <mxPoint y="14" as="offset"/>
                    </mxGeometry>
                </mxCell>
                <mxCell id="6" value="0..*" style="edgeLabel;html=1;align=center;verticalAlign=middle;resizable=0;points=[];" parent="4" vertex="1" connectable="0">
                    <mxGeometry x="0.66" y="-3" relative="1" as="geometry">
                        <mxPoint x="13" y="-12" as="offset"/>
                    </mxGeometry>
                </mxCell>
                <mxCell id="2" value="&lt;p style=&quot;margin: 0px ; margin-top: 4px ; text-align: center&quot;&gt;&lt;i&gt;TipoPlanoTrabalho&lt;/i&gt;&lt;/p&gt;&lt;hr size=&quot;1&quot;&gt;&lt;p style=&quot;margin: 0px ; margin-left: 4px&quot;&gt;+ id: Integer (pk)&lt;/p&gt;&lt;p style=&quot;margin: 0px ; margin-left: 4px&quot;&gt;+ nome: String(50)&lt;/p&gt;&lt;p style=&quot;margin: 0px ; margin-left: 4px&quot;&gt;+ descricaço: String(100)&lt;/p&gt;&lt;p style=&quot;margin: 0px ; margin-left: 4px&quot;&gt;&lt;br&gt;&lt;/p&gt;" style="verticalAlign=top;align=left;overflow=fill;fontSize=12;fontFamily=Helvetica;html=1;rounded=0;shadow=0;comic=0;labelBackgroundColor=none;strokeWidth=1" parent="1" vertex="1">
                    <mxGeometry x="954" y="229.5" width="190" height="84.75" as="geometry"/>
                </mxCell>
                <mxCell id="10" style="edgeStyle=none;html=1;entryX=1;entryY=0.5;entryDx=0;entryDy=0;" parent="1" source="8" target="9" edge="1">
                    <mxGeometry relative="1" as="geometry"/>
                </mxCell>
                <mxCell id="13" value="1" style="edgeLabel;html=1;align=center;verticalAlign=middle;resizable=0;points=[];" parent="10" vertex="1" connectable="0">
                    <mxGeometry x="-0.7823" y="-1" relative="1" as="geometry">
                        <mxPoint x="-1" y="10" as="offset"/>
                    </mxGeometry>
                </mxCell>
                <mxCell id="14" value="0..*" style="edgeLabel;html=1;align=center;verticalAlign=middle;resizable=0;points=[];" parent="10" vertex="1" connectable="0">
                    <mxGeometry x="0.6258" y="-1" relative="1" as="geometry">
                        <mxPoint y="-13" as="offset"/>
                    </mxGeometry>
                </mxCell>
                <mxCell id="8" value="&lt;p style=&quot;margin: 0px ; margin-top: 4px ; text-align: center&quot;&gt;&lt;i&gt;ComandoMilitarArea&lt;/i&gt;&lt;/p&gt;&lt;hr size=&quot;1&quot;&gt;&lt;p style=&quot;margin: 0px ; margin-left: 4px&quot;&gt;+ id: Integer (pk)&lt;/p&gt;&lt;p style=&quot;margin: 0px ; margin-left: 4px&quot;&gt;+ abreviatura: String (5)&lt;/p&gt;&lt;p style=&quot;margin: 0px ; margin-left: 4px&quot;&gt;+ nome: String (50)&lt;/p&gt;&lt;p style=&quot;margin: 0px ; margin-left: 4px&quot;&gt;&lt;br&gt;&lt;/p&gt;" style="verticalAlign=top;align=left;overflow=fill;fontSize=12;fontFamily=Helvetica;html=1;rounded=0;shadow=0;comic=0;labelBackgroundColor=none;strokeWidth=1" parent="1" vertex="1">
                    <mxGeometry x="396" y="43" width="200" height="83" as="geometry"/>
                </mxCell>
                <mxCell id="15" style="edgeStyle=none;html=1;entryX=0.5;entryY=0;entryDx=0;entryDy=0;" parent="1" source="9" target="5d2195bd80daf111-18" edge="1">
                    <mxGeometry relative="1" as="geometry"/>
                </mxCell>
                <mxCell id="16" value="1" style="edgeLabel;html=1;align=center;verticalAlign=middle;resizable=0;points=[];" parent="15" vertex="1" connectable="0">
                    <mxGeometry x="-0.6802" y="-2" relative="1" as="geometry">
                        <mxPoint x="-8" y="-2" as="offset"/>
                    </mxGeometry>
                </mxCell>
                <mxCell id="17" value="0..*" style="edgeLabel;html=1;align=center;verticalAlign=middle;resizable=0;points=[];" parent="15" vertex="1" connectable="0">
                    <mxGeometry x="0.5239" y="-2" relative="1" as="geometry">
                        <mxPoint x="17" y="-2" as="offset"/>
                    </mxGeometry>
                </mxCell>
                <mxCell id="9" value="&lt;p style=&quot;margin: 0px ; margin-top: 4px ; text-align: center&quot;&gt;&lt;i&gt;RegiaoMilitar&lt;/i&gt;&lt;/p&gt;&lt;hr size=&quot;1&quot;&gt;&lt;p style=&quot;margin: 0px ; margin-left: 4px&quot;&gt;+ id: Integer (pk)&lt;/p&gt;&lt;p style=&quot;margin: 0px ; margin-left: 4px&quot;&gt;+ abreviatura: String (5)&lt;/p&gt;&lt;p style=&quot;margin: 0px ; margin-left: 4px&quot;&gt;+ nome: String (50)&lt;/p&gt;&lt;p style=&quot;margin: 0px ; margin-left: 4px&quot;&gt;+ c_mil_a: Integer (fk)&lt;/p&gt;&lt;p style=&quot;margin: 0px ; margin-left: 4px&quot;&gt;&lt;br&gt;&lt;/p&gt;" style="verticalAlign=top;align=left;overflow=fill;fontSize=12;fontFamily=Helvetica;html=1;rounded=0;shadow=0;comic=0;labelBackgroundColor=none;strokeWidth=1" parent="1" vertex="1">
                    <mxGeometry x="94" y="37" width="200" height="95" as="geometry"/>
                </mxCell>
                <mxCell id="19" value="0..*" style="edgeStyle=none;html=1;entryX=0.5;entryY=0;entryDx=0;entryDy=0;" parent="1" source="18" target="a-GNcQjXYbUmJu2RaoGT-28" edge="1">
                    <mxGeometry x="0.4493" y="12" relative="1" as="geometry">
                        <mxPoint as="offset"/>
                    </mxGeometry>
                </mxCell>
                <mxCell id="20" value="1" style="edgeLabel;html=1;align=center;verticalAlign=middle;resizable=0;points=[];" parent="19" vertex="1" connectable="0">
                    <mxGeometry x="-0.6279" relative="1" as="geometry">
                        <mxPoint x="-8" y="1" as="offset"/>
                    </mxGeometry>
                </mxCell>
                <mxCell id="18" value="&lt;p style=&quot;margin: 0px ; margin-top: 4px ; text-align: center&quot;&gt;&lt;i&gt;Estados&lt;/i&gt;&lt;/p&gt;&lt;hr size=&quot;1&quot;&gt;&lt;p style=&quot;margin: 0px ; margin-left: 4px&quot;&gt;+ id: Integer (pk)&lt;/p&gt;&lt;p style=&quot;margin: 0px ; margin-left: 4px&quot;&gt;+ nome: String(50)&lt;/p&gt;&lt;p style=&quot;margin: 0px ; margin-left: 4px&quot;&gt;+ uf: String(2)&lt;/p&gt;&lt;p style=&quot;margin: 0px ; margin-left: 4px&quot;&gt;&lt;br&gt;&lt;/p&gt;" style="verticalAlign=top;align=left;overflow=fill;fontSize=12;fontFamily=Helvetica;html=1;rounded=0;shadow=0;comic=0;labelBackgroundColor=none;strokeWidth=1" parent="1" vertex="1">
                    <mxGeometry x="949" y="557" width="190" height="80" as="geometry"/>
                </mxCell>
            </root>
        </mxGraphModel>
    </diagram>
    <diagram id="COfyu9g6i5xjLlF1yEre" name="Arquitetura">
        <mxGraphModel dx="615" dy="369" grid="0" gridSize="10" guides="1" tooltips="1" connect="1" arrows="1" fold="1" page="1" pageScale="1" pageWidth="850" pageHeight="1100" math="0" shadow="0">
            <root>
                <mxCell id="tqLEFjUs7rJTjyPleBv_-0"/>
                <mxCell id="tqLEFjUs7rJTjyPleBv_-1" parent="tqLEFjUs7rJTjyPleBv_-0"/>
                <mxCell id="tqLEFjUs7rJTjyPleBv_-20" style="edgeStyle=none;html=1;entryX=0.5;entryY=0;entryDx=0;entryDy=0;fontFamily=Helvetica;fontSize=12;fontColor=default;" parent="tqLEFjUs7rJTjyPleBv_-1" source="tqLEFjUs7rJTjyPleBv_-2" target="tqLEFjUs7rJTjyPleBv_-19" edge="1">
                    <mxGeometry relative="1" as="geometry"/>
                </mxCell>
                <mxCell id="tqLEFjUs7rJTjyPleBv_-2" value="&lt;p&gt;&lt;font color=&quot;#0066cc&quot; style=&quot;font-size: 14px&quot; face=&quot;Garamond&quot;&gt;&lt;b&gt;Editor&lt;/b&gt;&lt;/font&gt;&lt;/p&gt;" style="shape=umlActor;verticalLabelPosition=bottom;verticalAlign=top;html=1;outlineConnect=0;" parent="tqLEFjUs7rJTjyPleBv_-1" vertex="1">
                    <mxGeometry x="30" y="20" width="20" height="41" as="geometry"/>
                </mxCell>
                <mxCell id="tqLEFjUs7rJTjyPleBv_-22" style="edgeStyle=none;html=1;entryX=0.5;entryY=1;entryDx=0;entryDy=0;fontFamily=Helvetica;fontSize=12;fontColor=default;" parent="tqLEFjUs7rJTjyPleBv_-1" source="tqLEFjUs7rJTjyPleBv_-3" target="tqLEFjUs7rJTjyPleBv_-19" edge="1">
                    <mxGeometry relative="1" as="geometry"/>
                </mxCell>
                <mxCell id="tqLEFjUs7rJTjyPleBv_-3" value="&lt;font style=&quot;font-size: 14px&quot; face=&quot;Garamond&quot; color=&quot;#0066cc&quot;&gt;&lt;b&gt;Revisor&lt;/b&gt;&lt;/font&gt;" style="shape=umlActor;verticalLabelPosition=bottom;verticalAlign=top;html=1;outlineConnect=0;" parent="tqLEFjUs7rJTjyPleBv_-1" vertex="1">
                    <mxGeometry x="30" y="190" width="20" height="40" as="geometry"/>
                </mxCell>
                <mxCell id="tqLEFjUs7rJTjyPleBv_-8" value="&lt;font face=&quot;Garamond&quot; style=&quot;font-size: 14px&quot; color=&quot;#0066cc&quot;&gt;&lt;b&gt;Analista&lt;/b&gt;&lt;/font&gt;" style="shape=umlActor;verticalLabelPosition=bottom;verticalAlign=top;html=1;outlineConnect=0;" parent="tqLEFjUs7rJTjyPleBv_-1" vertex="1">
                    <mxGeometry x="310" y="290" width="20" height="40" as="geometry"/>
                </mxCell>
                <mxCell id="tqLEFjUs7rJTjyPleBv_-9" value="&lt;font face=&quot;Garamond&quot; style=&quot;font-size: 14px&quot; color=&quot;#0066cc&quot;&gt;&lt;b&gt;Homologador&lt;/b&gt;&lt;/font&gt;" style="shape=umlActor;verticalLabelPosition=bottom;verticalAlign=top;html=1;outlineConnect=0;" parent="tqLEFjUs7rJTjyPleBv_-1" vertex="1">
                    <mxGeometry x="470" y="290" width="20" height="40" as="geometry"/>
                </mxCell>
                <mxCell id="tqLEFjUs7rJTjyPleBv_-19" value="C Mil A" style="rounded=1;whiteSpace=wrap;html=1;labelBackgroundColor=#ffffff;fontFamily=Helvetica;fontSize=12;fontColor=default;strokeColor=default;fillColor=default;" parent="tqLEFjUs7rJTjyPleBv_-1" vertex="1">
                    <mxGeometry x="60" y="100" width="130" height="60" as="geometry"/>
                </mxCell>
                <mxCell id="tqLEFjUs7rJTjyPleBv_-40" value="" style="swimlane;startSize=0;labelBackgroundColor=#ffffff;fontFamily=Helvetica;fontSize=12;fontColor=default;strokeColor=default;fillColor=default;shadow=1;" parent="tqLEFjUs7rJTjyPleBv_-1" vertex="1">
                    <mxGeometry x="240" y="30" width="320" height="200" as="geometry">
                        <mxRectangle x="240" y="30" width="50" height="44" as="alternateBounds"/>
                    </mxGeometry>
                </mxCell>
                <mxCell id="tqLEFjUs7rJTjyPleBv_-50" value="&lt;h1&gt;&lt;font style=&quot;font-size: 24px ; background-color: rgb(255 , 255 , 255)&quot; face=&quot;Garamond&quot; color=&quot;#0066cc&quot;&gt;SIOF&lt;/font&gt;&lt;/h1&gt;" style="text;html=1;strokeColor=none;fillColor=none;align=center;verticalAlign=middle;whiteSpace=wrap;rounded=0;labelBackgroundColor=#ffffff;fontFamily=Helvetica;fontSize=12;fontColor=default;" parent="tqLEFjUs7rJTjyPleBv_-40" vertex="1">
                    <mxGeometry x="210" y="20" width="90" height="30" as="geometry"/>
                </mxCell>
                <mxCell id="tqLEFjUs7rJTjyPleBv_-29" value="" style="shape=image;verticalLabelPosition=bottom;labelBackgroundColor=#ffffff;verticalAlign=top;aspect=fixed;imageAspect=0;image=data:image/png,iVBORw0KGgoAAAANSUhEUgAAAlgAAAEJCAYAAABIXFkTAAAEJGlDQ1BJQ0MgUHJvZmlsZQAAOBGFVd9v21QUPolvUqQWPyBYR4eKxa9VU1u5GxqtxgZJk6XtShal6dgqJOQ6N4mpGwfb6baqT3uBNwb8AUDZAw9IPCENBmJ72fbAtElThyqqSUh76MQPISbtBVXhu3ZiJ1PEXPX6yznfOec7517bRD1fabWaGVWIlquunc8klZOnFpSeTYrSs9RLA9Sr6U4tkcvNEi7BFffO6+EdigjL7ZHu/k72I796i9zRiSJPwG4VHX0Z+AxRzNRrtksUvwf7+Gm3BtzzHPDTNgQCqwKXfZwSeNHHJz1OIT8JjtAq6xWtCLwGPLzYZi+3YV8DGMiT4VVuG7oiZpGzrZJhcs/hL49xtzH/Dy6bdfTsXYNY+5yluWO4D4neK/ZUvok/17X0HPBLsF+vuUlhfwX4j/rSfAJ4H1H0qZJ9dN7nR19frRTeBt4Fe9FwpwtN+2p1MXscGLHR9SXrmMgjONd1ZxKzpBeA71b4tNhj6JGoyFNp4GHgwUp9qplfmnFW5oTdy7NamcwCI49kv6fN5IAHgD+0rbyoBc3SOjczohbyS1drbq6pQdqumllRC/0ymTtej8gpbbuVwpQfyw66dqEZyxZKxtHpJn+tZnpnEdrYBbueF9qQn93S7HQGGHnYP7w6L+YGHNtd1FJitqPAR+hERCNOFi1i1alKO6RQnjKUxL1GNjwlMsiEhcPLYTEiT9ISbN15OY/jx4SMshe9LaJRpTvHr3C/ybFYP1PZAfwfYrPsMBtnE6SwN9ib7AhLwTrBDgUKcm06FSrTfSj187xPdVQWOk5Q8vxAfSiIUc7Z7xr6zY/+hpqwSyv0I0/QMTRb7RMgBxNodTfSPqdraz/sDjzKBrv4zu2+a2t0/HHzjd2Lbcc2sG7GtsL42K+xLfxtUgI7YHqKlqHK8HbCCXgjHT1cAdMlDetv4FnQ2lLasaOl6vmB0CMmwT/IPszSueHQqv6i/qluqF+oF9TfO2qEGTumJH0qfSv9KH0nfS/9TIp0Wboi/SRdlb6RLgU5u++9nyXYe69fYRPdil1o1WufNSdTTsp75BfllPy8/LI8G7AUuV8ek6fkvfDsCfbNDP0dvRh0CrNqTbV7LfEEGDQPJQadBtfGVMWEq3QWWdufk6ZSNsjG2PQjp3ZcnOWWing6noonSInvi0/Ex+IzAreevPhe+CawpgP1/pMTMDo64G0sTCXIM+KdOnFWRfQKdJvQzV1+Bt8OokmrdtY2yhVX2a+qrykJfMq4Ml3VR4cVzTQVz+UoNne4vcKLoyS+gyKO6EHe+75Fdt0Mbe5bRIf/wjvrVmhbqBN97RD1vxrahvBOfOYzoosH9bq94uejSOQGkVM6sN/7HelL4t10t9F4gPdVzydEOx83Gv+uNxo7XyL/FtFl8z9ZAHF4bBsrEwAAAAlwSFlzAAALEwAACxMBAJqcGAAAAhdpVFh0WE1MOmNvbS5hZG9iZS54bXAAAAAAADx4OnhtcG1ldGEgeG1sbnM6eD0iYWRvYmU6bnM6bWV0YS8iIHg6eG1wdGs9IlhNUCBDb3JlIDUuMS4yIj4KICAgPHJkZjpSREYgeG1sbnM6cmRmPSJodHRwOi8vd3d3LnczLm9yZy8xOTk5LzAyLzIyLXJkZi1zeW50YXgtbnMjIj4KICAgICAgPHJkZjpEZXNjcmlwdGlvbiByZGY6YWJvdXQ9IiIKICAgICAgICAgICAgeG1sbnM6eG1wPSJodHRwOi8vbnMuYWRvYmUuY29tL3hhcC8xLjAvIj4KICAgICAgICAgPHhtcDpDcmVhdG9yVG9vbD5BZG9iZSBQaG90b3Nob3AgQ0MgKE1hY2ludG9zaCk8L3htcDpDcmVhdG9yVG9vbD4KICAgICAgPC9yZGY6RGVzY3JpcHRpb24+CiAgICAgIDxyZGY6RGVzY3JpcHRpb24gcmRmOmFib3V0PSIiCiAgICAgICAgICAgIHhtbG5zOnRpZmY9Imh0dHA6Ly9ucy5hZG9iZS5jb20vdGlmZi8xLjAvIj4KICAgICAgICAgPHRpZmY6T3JpZW50YXRpb24+MTwvdGlmZjpPcmllbnRhdGlvbj4KICAgICAgPC9yZGY6RGVzY3JpcHRpb24+CiAgIDwvcmRmOlJERj4KPC94OnhtcG1ldGE+CmGG7P8AAEAASURBVHgB7F0HnNRE+06ye3d0ObqU61ixIMX+CQgqKBYUPtunYAGBO+xiQ8CODeUOFBUVG59g9w+oVFH0U5GigChXQUQPBAEpVzb5P+9espfby+4lu9n+5vfbSzKZeeedJ3MzT955Z0ZUFEXggxFgBBgBRoARYAQYAUbAPgQk+0SxJEaAEWAEGAFGgBFgBBgBQoAJFtcDRoARYAQYAUaAEWAEbEbAabM8FhcmBLKzs/vLstzDO7uSkpIp3mF8zwgwAowAI8AIMALhRYAJVnjxti03IleiKD5uINAvwUpPT091Op3j4XtH5Gw3fvOKi4vnGcjhIEaAEWAEGAFGgBEIEAEmWAECF6vJHA7HKpCrLJ3+Q7OysoYxydIhwpeMACPACDACjECQCLAPVpAAxlJyGlaEvnpypak/UrvgMyPACDACjAAjwAgEjwATrOAxZAmMACPACDACjAAjwAjUQYAJVh044vumurq62EcJfYX7iM7BjAAjwAgwAowAI+APASZY/tCJs2dlZWVEpEZ5FesHl8t1t1cY3zICjAAjwAgwAoxAEAiwk3sQ4MViUjizv4iZhPMwk5BmIe4uLCz8IRbLwTozAowAI8AIMALRjAATrGh+OyHSDZYsWp5hcYjEs1hGgBFgBBgBRiDhEeAhwoSvAgwAI8AIMAKMACPACNiNAFuw7EY0CHnqIqA99Cu00zCeJEk/ROtQXk5OTg+sq5Wq15kggN7F0Ls4lHoDryys60X5Z2mwhwIvKiOVj8qp5UNnei+YOPCDahHUPwr62l+eRUVFbH0MGmEWwAgwAoxAaBEQ0WmENgeW3iACKlEYj4j+1qMqxrt6UdsKJzMzczzIRL2V3OFjJfrLEIuK1nvhkHu3JtdfWnpGJBCkZiguaU0t+tUhHbj3PnZDzxdBRF5Uney9n9e7N9BxFPmOaRHxnHAivDzESnumO7vxAjGifGlI1NKheydU1obK2KDsht4LCbCY5zzClclWg9BzBEaAEWAEIoIAE6yIwF6bqUoWiCiZ7cR/gOVkFFlT8FtUK6nmqqGO3IC8CGYIlkqsSE9/JNBbHf09kZy79URJ/1B/baDji0g3SrXqzETcensw6tN7XZMlbZgVS5ov8uol19JtQ+8Fi8A+jvdApNHqMQ+zQEcFQiKtZsTxGQFGgBFgBMwjwD5Y5rGyPaZKrogwmCVXpAMNVy0igmW7Qn4Eqh04WawCPUjfmSgzWYSsHj3IukPlRkIr5IrycacjgmgmUyI6RpZBM2kDiUN6ARPavigQckVZDoVFcZHZ8gWiI6dhBBgBRoARsI4AEyzrmNmSgqwxEETkKpCDyEK94cFABFlJAxLgGaYzSEd+QdrP35DczADIQA+QiLmQb4okGehGw5oN4kVbCfkgOu71w2ApakWWKPrhGIB8fG2STRFo0+1RFM+f9Uotl1XS6F1EwodJljcqfM8IMAKMQAQRYCf3CIEPa4y/Dv9FdMzzNP8aIiToQMl6RMNzmhXJn/9RSEpF/kzQgywtRHSIRJAf0Dyj4TfVUmVkndN8uPyRNSP99SSECM8UEJ7Fml8XMCKHd8LGl2/WSMS5299Qmi9yhXx6eqdT381ilJPKWG/YFM8bXLxVHYrU3qd3mQmfxSBnHhKn7iXpiwQSySJdhnkL4ntGgBFgBBiB8CPAPljhx1xQLSX1/KdUVeo4dHurhw6dOnOfli9/1hKShfRBObkTKaDZcxr589ZPf6/6TK3Sh6nX86CnTyJgpKNOhtsfS3df51Ilo5SnEQH1ia1K0IrqCKu58ZmGHqv5UTpv61qg6Uis37QqrlR/vPOk2ZsDzLwbyoQPRoARYAQYgdAhwEOEocPWp2RYSgz9kNA5TgHx8GvZoedI36B1xGfmQT6g2YZmO3DVsmW0pIDeGmVFI7LoeG/1Uye9ammi4bl6B/A1Il3ueKr1q16aht6Hmp/lMoKkElGuR5Do3TaUJ+GKshgSVKSvZ02rVygOYAQYAUaAEQg5AkywQg6xYQaGBAtLGRgSA28JNFTnHRat9+jwjciHT6LTQDlMlRtDep5hNb086OKT2OFZPbKDtKY2wUZao+2G/JYRBMmICO02+25VkmuE7VCyqunLzdeMACPACDAC4UeACVaYMVed2406wHnefj6+VFPjGZIIX2niIHw3LDumyqziY0R6rMJgimBZFUrDkUhjRMBM1wE1T0M8YI0zJPBW9eT4jAAjwAgwAoEjwAQrcOwCSgkLhaEVxYcVxGceVuP7FBQ7D6wSJn8zGc2W2vBdeSfGcJ8RYfaO5rkHAfIl11IZycnfI1R34W8oVBeNLxkBRoARYARCiIAzhLJZtAECNBSFDrDeE3IcrxfoJwAyQmJd8ZNlnUeqUzjNaKPy6GfC1bHOGJW1jiCTN8jHkEyYTN5gNMIfeXjHS6VywiLmF2uk05dfk+EzDeJnGeFi9Z2SXpgQoOXnOUO+LwLnicMXjAAjwAgwAqFFgAlWaPE1LR3+Vz47ZCMh6Ix3GxACo6i2hqmzGEdqVhgjomBrhmESRj5NKBtZvepYo1BOWvbBp2O9OuRrRGgsEWYqJu1rSGeLB6Uxyt+iGI7OCDACjAAjYCcCPERoJ5pByGrIShKEaFuSEpEAAaHlCGiJiLjs0EFYjSYZjKSlKYxAVJdLoAVQvQ+4i/mfDeqdgO5V3zGjR/7C7BgK9SefnzECjAAjwAgEgABbsAIALdGSqETCcN0lHRbU0WsWGLKuua9h4aLhM6MhNF3S6LhUF1IlB/E6BBJleJwsdzjPQxw3ofFXLjzzafGKjpKyFowAI8AIMAKhRoAJVqgRNimfptYHaMEwmUPg0UAqfG1TQ0RqCp7T7DfDIU5Yf2jxy5ggWIQ/3sMADAsa7XmYhbKOR1n8AUnk626z64R5CwqwDtQZ0vSWyfeMACPACDACkUGAhwgjg3u9XJ1OZx2rSb0IEQpQfa7qe1LDWoVZbNm08KgvchUhlYPKlkgWyjUAZMrqYq6Lka5nIEODmsIB1oGorDdamfjMCDACjECiIsAWrDC/eVhADH1m0KEbkRif2sFq1KMBa4rPtBYfGFqfkLffff0s5hFV0ZOSkrKAr/daUmSh078jui/Ge1sMi9dio/0YfRXKx4xFwWodoBmOyLteNng32lBtvWccwAgwAowAIxAeBJhghQdnTy7o/KhT9tzrLixZIiBH39nrxNh+aZTPbrPDYNDTUrls196iQB/+Zn73BrSYhXu2oBExghxLWEGGIflF/TIcrrWqJ8dnBBgBRoARCBwBKfCknDIQBPwQE2+LSUPircZvSJ6v50advhULiSEJ8JVZpMMN/M1oc2lTW/SY1Z2GIRHXCEOr29wY1gFfC5Ca1Y/jMQKMACPACASPABOs4DEMRILRFiepvpYD8M5AjRcu52YjImBEurzVFMKsZ738rQaQ9Qpp6ljsQmgNMiJtqfDDMlwSwrss2dnZRFyNyOviePKJ8y433zMCjAAjECsIMMGKzJsyIlg02+5xteP0qRU9RzxTnbBPIdYeGPmMpTakJ5zjh1J5rGUV2dggU/VIK8pAVqU6pMsOLVWrWL2hPOgwXp1Y4DMbIoKIZ7T+FtUho7W8fMriB4wAI8AIMAKhQcAZGrEs1R8C6FznoRMly1A9SxA6zkV49iIcoV/UHKdp+r7qb0MWi5H+ZNv9DPosRqddz1JCHTxI1jDvIU/V8ZoIYFj1tKPctJK6gW9UD4QVqe/LiGx6slaxKqYhOnUY0PPMxwXNVDQiSjORHw3/vaiXpZJa2p7IF8Ge5/0+fOTLwYwAI8AIMAIhRoAJVogB9iUepOVudJS03pLRMRK+QCPRybqfGXT6FG5I0IyEBRMGPeYhfyNLVCrpDx3ds+nUPGhWm7e1h/YQrEfQgtEpVGmJFIHETPFBYOqRYW89NCIKDHZjeHQKLWHhHUd/rxJtGio0IqOEWX9691o90Kc1uCZixwucGgDDQYwAI8AIRAIBHiKMBOrIU7U0BNoh0hpUAyDGr0XFjqKRPw8Ih781oYhQuckAzt7kivQchnDDIVE79LNbBt4LldXIP8pKVrQBNq3+voqsj/4SgmRRHQg2v2JYPIeZtJr5U4efMQKMACPACNiEABMsm4AMRIzqh2OVZNGClgPUzpSsQyE/VEuMVRIQdj3tAAKkiKxJRIrsIK89zDitE8lSSWwgec5DfeipDSfbgQHLYAQYAUaAEQgeASZYwWMYlAQiWeggsyGkIQJDQ3G0HpNGrijfsBAsyohIAE70q+eYTc91Rz09Ub6ot2CR4zhZnFAO2sya/J/8Wp505fV7ScONZpzkicRSPVCJVkMYU57zYCUbgPfCliu/b4AfMgKMACMQGQRENOiRyZlzrYcADSfRdinwe/L4+6AT3U0rf9tloQCJqPfCqVNvyF9Ir6y6GCfNZPOQEOhJPkA/0JCiPm4sXKvlMdrMmoghWYj8Oq1reCAuWb88704ru1V8KZ0qk/Y/rDPsSnWBHdk1ZPnMCDACjED0IsAEK3rfTUg0s4NghUSxCAoFJkSuvB3xLa/eTgQZTulkBatDigIhWBGEg7NmBBgBRoARsAEBHiK0AUQWEbsIkKUI2nuTqx9o6NZqqcgvDmTKcjqr+XB8RoARYAQYgehHgAlW9L8j1jCECGD4z5tc0abLUe8zFkJIWDQjwAgwAoyADQgwwbIBxFgRoVprYkXdmNQTvmj1CBv50cVkYVhpRoARYAQYgYARYIIVMHSxl5AWLzXSmhynjcITIcyI/BiRJDNYwJeL8PUmWLthJWOLmBkAOQ4jwAgwAnGEgDOOysJFURGgLVWIOGgzD2mZAJAo2hvQkGDRFjGJCh7NEKTV0r2O/iBLM/HsbjOLdxK+kEGr3dPyDnUODDdOMSOjTiK+YQQYAUaAEYh5BHgWYcy/wvoF8DErrn7EmpB5tJaSr4eJEA68aD/AeuQIYTS0Nw8kiVZKr0NCaSkNhNF2QWSxqrc0A8LoIGf5njWX/JcRYAQYAUYgkRBgC1YivW2DsoIk+N0vzyBJ3AXBUjUKFqgsFMybKNE6XyNh+SPH9zrlNgqrEwGLwEJuQhNXLzz4lhFgBBiBhEKAfbAS6nXXK+wobRix3pMECqAhPJAh2tvRjpXx661kn0BQclEZAUaAEWAEVATYgpWYVWEeWa6YXNW+fNVPagD5r8FaRb5qRkOGtQnqXhGpInK2GEOC7NBeFxu+YwQYAUYgIRFgH6w4fe1EFPRb7lAxMaxF29n43fYlTuEIqFi+tqtRsdxNeGKCQDHIWcxtDxQQIJyIEWAEGAFGwDQCTLBMQ8URGQFGINIIrFmzxu0M1717dzHSunD+jAAjwAj4Q4B9sPyhw88YAUaAEWAEGAFGgBEIAAEmWAGAxkkYAUaAEWAEGAFGgBHwhwATLH/o8DNGgBFgBBgBRoARYAQCQIAJVgCgcRJGgBFgBBgBRoARYAT8IcAEyx86/IwRYAQYAUaAEWAEGIEAEGCCFQBonIQRYAQYAUaAEWAEGAF/CDDB8ocOP2MEGAFGgBFgBBgBRiAABJhgBQAaJ2EEGAFGgBFgBBgBRsAfAkyw/KHDzxgBRoARYAQYAUaAEQgAASZYAYDGSRgBRoARYAQYAUaAEfCHABMsf+jwM0aAEWAEGAFGgBFgBAJAwBlAGk7CCDACjAAjYBKB0ZmZGQ5Z6iZKQldBFtIVUegkKEI7URTaQEQLbK7YFOeW+On3VzyA+wr8XIKg7MVO7X+JirBTEcSdoqDslAVlmyhIxbIkF4n/NCmeXr7+H8TlgxFgBKIIASZYUfQyWBVGgBGIbQRyOx/dWnFU9BVFsQ/Y0okgT90cgnQYUSeFtqnWKBTd+y9qEzymHw6xDSJn1cRX3OlEtyBFkGQIanJQyM3ILsfVekVU1uPZWpeo/NC+JH3jRGVZdY0M/ssIMALhRkBU3P/14c428fLbvn17k0dOPWN/1Jccn9UpjRoJksMhOFNSBGejFCEJ9ynNmgqNW7Z0/5qkpgrN2rUVmnfoIDTv2NEdL+rLFUYFZ11yWRhzi4+srv/g3dgsCNrPPzdsFEpWrhS2r98g7N72O4hUA9QpNkvKWscZAgWlRRrdj7OSRU9x2IIVpneBL9oxYcoquGzQOVQcPFgj4x9Tow7Um5The3wTzj9JorhGloQfphcXb0ZH02BPs2bNGnec7t27x9M/e4PlDu4lxV9qs+8/WurLmPQjsxxi1XBYl67Fy05r4I3shtnpJ1TwjYoobsMQ4W8SeJngUn5zSU58dB3aTel3btmyd66iYEhQEEZ16tTE4XSmuKobOZySq6XD6Wojy1IbRRLbSLLQDpaqNMgjq1aWQ5K6uvCQ0vHBCDAC0YMAE6wwvYsOHTpMRVZPhim7cGZDxCgDHQ1+wnkyUQt0EWPTM//KS89ZKYvyCsklfp6/tegnPOGDEYhpBHKzsv6F+n2bQxQHwx+qHqmBn1Q1CNQPIFRLQYZWyNWOn57f+ss2q4WeuW0b+WDRj46d+BW6r7z+/P7775PxHXNJ4Zq1x+0qKRG+e2X2k//s3pWNaD1NED8vaXzLCDACdiLABMtONP3Lcn+ZalHu++arpocffrjWgGrBET1rX82kRLLT2VyukpIEp6u1LJMPiNJaxNezoIit0aB3QteSjetseIR0NFYa8UTlQviDXKg4BCE3PXurKCofirIwr/XWkpUTFUU2ThdfoVbM8BhGfgilHwxr5wBclxMSIOaP43SuLMsDOnXq9BeFxcsBvyGi4zFxELESZelBfEic5fan0mutCP8g7CPwrXlikrAsf/PmvfrHobqm+oK6MliSpLNbdOpYjp9w6tBLh8Bu3A9ty5ZQ5RtLcqPF4hlpzLS2BW4qJ0Ral0TKnwlW5N72wj///HNQ+/bto8Yvy+ur2T1sAXiK/EHkJmUpKTmiSzhCksReIF0ng4D1QIfTrE46UeiCL/48RRLydqRnFudm5LwgJYmvjZg7t060RL1BA/gIyj4Iv/4gVTtx74YCHeU9uJbRiS7GeQDuyZrBR5gQALFKF2QR1mfxkhr3ck/G+H4QFqGez25Usf+jJ//4I6z/x77qC8jVNLhRLsVzJlmeV5XYF/q6AiR2JDYa4S09E6zw4q3P7VdYJRbu2LFjUNu2bU05O+kTR8u1Ssp+hD70c3sqDxNFR/vOWcfIkngarFYDMIZ4NkwVNA1dPcQs+Gw9oVQpDy19fIrQ7cILBaF7d+1hwp3RAD6GQp+HnyGBAqm6D3HI2rP4jz/+GAACxo1kiGsJLEPi2Iysm0GuHvL6WKhCfX5TFlxPFpSV/hxiNQzF+6svqCvT8JzSLcOZSFaZoRAOTAgE/NWVhAAgwoWs50MQYX0SJns0fCNR2J+rq6uJZNW19sQ4CuSoSz5X08sKZ2KI7LI2ZWlt4dQ7AF/8L6Bz2qUVD4whpeTb74VP7ptA08w/GZfRNeFYFgjTFOBBQ4D9USd8Wqfw7H7E+wQ/IlltNQz5bD8C47p2bZubnjUfflRTvcjVB6LgOjK/tOi66aWRIVdm6gvqyjRYkcnncxniZ9iPEEuMBQTM1JVYKEcs68gEK3JvT0FDeBOy30gka+fOnc0jp0poc6a1eKaVFS3OLysaLSZJHbE2yDDkuMQr1wsUQV4FojWL1hLyehaXt3BQfhIdYX+Xy9XfjH8V6ssEELEPkWYJk6zQVIlxmZlnyVUyTW0dqOWAj4KN9IGAj4Uh+aWlJVp4uM9W6kvHjh0LYIR7CnWFSVa4X1QU5GelrkSBunGrAhOsyL5ajWStr6qqWrhr164WkVUn9LlP27y5Ir+seB46q/4OWTwuoxfcteA0Qgc6NaqP1wnOyo156VlD3YFx+gem+6dR7r547/07d+7sseo1VFx0nBOR7j3qOOHD166h+PzcPALj0nOuUWRpMVJ0olQ0IxC18uHKNqkn0geCeUn2xwykvmAoeQbqyhNqXcm0XyuWGI0IBFJXorEc8aATE6zIv0UiWWPQCK6rqKhYuHv37sMir1J4NHhuS+H6s++9R7jk6SeQofKpLles8yPOxczDV8mJXhceF5fUAKIg/8L77p+WlqZNJjBdNnSck9FxzoU1i0mWadT8R8zNzL5FFpXXsMSC2y8VlH87LK39CkqLJ8xctarKf+rQPg2mvqCuPA/tplBdKS8vzwqtpiw90ggEU1cirXs85s8EKzreqgLLRC46zTWHDh1akEgki+BPzcwU0JENRGW8AB3bFs8rEYXhSUmNVo7r3LWzJyy2L0Q0gOQbc0ajRo36Z2Rk/B1ocdBxPoi0c9SOs32gcjidIOSlZ090+1vBaOXGQxS+dwquHtO2FH8ZYXxsqS/4gHsB5XgUQ9FEsmiNLD7iDwFb6kr8wRLZEjHBiiz++twVdJp5IFmrYdn4NNFIFgExrbRoPny0jkM/94YOmBMVp/JtXpdshMf0QQ3gs3i/p4BcnZOamron2NKg43wYMt6ijhMTJToEKy8R02O5kDthtZqklR0Ma2Hjg/v7Ti0trVknQ3sQ/rOt9QV15UUU4SHUlaVMssL/MkOco611JcS6JpR4JljR9bqJZI3DcOF3sGR9npAkC4s0FpQWXiMKyg3o7Crp9dBipopDWZab0fWk6HpdprUR4ZSO9YnEXikpKefZQa60nNFxPorrNzFRYhkmShyuhfO5YQRAri5B7aJZnO4D9W1+m2aNLw73mlZa/rpzSOoL6srLyINI1rLffvutqy4/voxdBEJSV2IXjujSnAlWdL0P0oZ8sm7B+WuQrEWJSLIIhPzS4lmiKJ+DTk8dRhNbi4L86dguOTn0PIYOETN6CkCaTwK5GmgnudIwUEnWbDjML2WSpaHi/5yXmXkUdid4HbFQxdx/lsJ6eunE9evdpN5/6pA+DWl9IZKFujjJ4XAs2bZt2xEhLQkLDzUCIa0roVY+EeS7HToToaAxVkYiWbdhSOkZkKzFpaWlA4Lx14mxsnvUnVZS8gWsVmcLgvwZAttglmFb0aEswjpFvTEbMSYW28Q7pJlcx6nkKmRbqKC+PA4iJ4NkLdu6dWu/Ll26/O4Bki/qIID6k6Io0hxtjSvMFtxc6RSGzMQM1zoRQ3RDC/G2y8rKlmT5cOjRCRbaVOyA0AxzaKVjzvrXpc1bt26zduGns6r2HximSNIO7O9Zjv0Pyw84Xb+9WlJyKFi14O/5CuoKREuLQLJoC6Zfg5XJ6cOOAA0LhqVtCXvJ4ihDJljR+zKJZN2Kf6Kn0Tkv3rJlywD9jLMRmZmN7Ghso7f4NZoVlG5enZuZeYFA0+drtt/JwDpFc9BJnUsLmka7/tCvW1JS0sBWrVrtC7Wu6DifwFCk4nQ6aQioH5Z/sLzJcKh1jAb5cpXrftisTlR1OSBI8oUzi0qC9onzVbZbsrLau1zCAKxH0gcG6pPap2cdg5qbIrtXJaFUMKKRHQ1fEBuXr6AAOh5EfIRhgym6cwhCU0VS8jKytyLaZiKF2HYKuyfIq7FHz7px779PsUwfqCuvgmQJtAUTzgNw/4vpxBwx0ggQuaKJC8eEq22JdIFjNX8mWFH+5kCybkcD+CT+kYhkeab1o7E9iEU562pfs+ms95RyWE28iYj4NzXdWmJc7MW9C86+iigru7BEAtZlEndjm5udaMjLsDxVSbVSWTqjrMzykgJaHsGcC0pKvs3LyBmGL31ayRxdjXB2+/TMu3Gm/fui+gDZGdimTZuAt0JCuZfjVVla6b9x82aHOZOSS/bv2bPd5aquDhQgbNTdHHUjqDYC9QpVSL9NUqDa2JNubEbG0ZLguEur/Ioi3lZQWrLJHum1UiZ365a8Y/+hK/D/dCX+n84GS6J6iwOIBH4QlmlInob/1bNr/oMloRnW63p/bJ7Q/qgjhZeXLLtMTpJWPF9YWN5QNkSyQMhp03Vtn8tNWMF+GIjdOw2ljcHn2iv3q7qVzdmNBEVgA/OQWcWNysdh1hAIqvG0lhXHDhQBNIR3aiQLlokBPhem9N5guSbDVKNG3bu1cd/jDzoDVU3QGbp33+FbW3QK6Owx7KSswW81OqbvpGRpBYbqwvIPnl9auBBOyZOQ90OkEr7rJ47NzJw/vaRkLd1H0aEB6FYp2H0m8RbI0nKYlfId2Ofhc+iM66hjRUwtA7eUqm7kmvpTNyySd+A5T0GnZNIBBPKL6VuKXpxuo0K3denSuMKRNAajfbehlnYEETI8ELwF/1+l+KbZnt2rZ7cmqaktYL2aW11VcRD/hElQrhn0S1YUuZ0oSliGQ6GlStppuuuFIg/n7t+3C/TDcPQ8R7WioKPfiDQLMBq5oE1p569oNwV9Gu0ak2pmwxqikaz+SD882t6ZpiufGYFYQ4AJVoy8MSJZ+NqcAufUxeQ3EQm10dl3RL74iedTv61UytV5GVlf4fI9IcnxTqj9osrLih5rn57dH3qcBT2SREUkH4TT4bQbLX2ChHf0UiTeDefZMAJjM3JOQ10dpMZ04SNhrJ11Bwvjni06kl9CHpmoo3qFXCBSXyJgsayIXxxqnLRu1qZNNGTsri/QgfwJe488/PAD+kTe1xgWd3TokpOBIc2jIP9o/B8eg1x6I7+jcdZPWEKQcCyeHwuCdueO9C17QLgWIsI8p6ty4TNbtx7Uy4aV/A2QLOXv335bBjm8z6UeHL5mBIJAgAlWEOCFOym+NsfT1yb5Tejz1szaY9t1a6Y03pekfyY5HC1kV5I6PFHzRBLlljJ6Fy0ejFYtHAoWQpBkhyhIrfCsFZ1BoTqgwc1AxAycsxC/kZaGzvTljEa8D571EarkZ+AfMh9uIlMLiotX6OPZdU0+V2PSj7xOEqs3QCZ0EU/FkMYVuH7brjyCkOMgcoXOMiMIGX6T4r31qZYdHvOUz8gOuUpwJbnjXf30IyNadOhwzXdz5ly16v8WW3J8d7rkympHJVx8gjswSlkxc9s2v+QhuBzMpZYE5V7UVe2YXVC2mepR0AcRHwxZTwTZvw/ywWPUQxG2wqSUnyRUv2mwrpa+vpwPktMgPqrPYRGk02++lg2c9lucc9f4PeUbNwprP/hwOf4vToMebiudGocsoJfDTHV5pSN5H8jWxxi6nFvZrtVCbZV65P/mW6PGDEa8YZQG//OLsal1RD7kKH+7jjVraFtJQejevbunvfOWHaphPa1d9s4vgHt9XbnATF1pKA8Nl4bi8fPgEGCCFRx+YU+Nf6576GsTGWtOuh4dppevN+p8bfGbok6kbXr6EZIi9YBzbS9Yj2BJEo7xZA6LEu4vFmTxYhCtlVhi4T6aBah7bsvljLJfirHy9uMgd5NUgQ+O6tlzntZR2JKJdSEOvBMsKyF2QdIL8AualBipUCFJa2eWFFp1xp4A3XYMmnD/awPvv78f6s8WI9nRHrZx48ZkzKjtB4zdqq5evfo8LNi69JhjjjG1rMK4tK7ZqLdu6xUcmapFRXrUjjKTrxWc1ueg7g/R5EHDv3F9X2Xb1Jd81Ms69SXYDpOG6dFhCp179hCun/pM3zs7dGh6qFGzf+ETaAD0ItKUo+mGc3P8rlIk8aqknbvL8b80R5CFWQW/Fa/PTcvqTsyKjo5HdF1Uc8V/I4yArXUlwmVJuOyZYMXgK0eDfC/Uviecqqtfzz8jT/q9SXnnpaV1FCXnEHwZX4lv3lMQ5G6e0ahj2E5aBqL1lkNS7ni2uPhPim/X0ahi/1OHGjUdjXza45edsuNvsmK9bpd8i3KoAXwVaTDlXhkcbGdpMW9T0aHTNPjwySAny6ArkawyUwmjJNLatWv7ANuX4ZPkscDh+l4Qrul4dv2JJ564vCFVZVG+EXFq6IMofDytbDNZgYI66KOjXXrWexBCpNp9gLx9Xp0k/sePk3nI64u6UOpCKES/28aldz1GEZVL4VQ5FB8mx9Vo6v6LPT+Fm+F+f/PY9KwN+F/qSqFwQ9h/1cznb4VFdj6s5rZY+XR58qV5BEJeV8yrwjEDQaDWnB1Iak4TFQigIWwbCUXyt2z5fVppcQH2ETxNltw+IegEhQpVF5rxdHW1LK4dl5Z1pp36UQcCJ/enNZmY+niLdh3mMzWAs5Fne/wuikZypeEBHz5a7HQq7pehvmRo4dF+/uGHH/piv8U5kiyN6X5Sd1hlag66diiO0SjT2xRHCzc6g1iCjwmXe56J8oue6yAuQK7ykbyWXAniU222FA9sgFyFvb6ATG7EJJGH8suKjhddwvGwbD2pJ6sqBPDZqjmw0vvrKU2a3AJsF//55596QqZF4XPoEYiZtiX0UMRuDmzBit1359EcDeFSdJr98LUZscU3ZxQX/wKFboRVa6IgJj2CDu1a3INvCR1kSVwyNj0nb3pZ4UyP0kFeJImul6pk6QHkgFnqYvdxWVm9pxUXfxekWCvJqQEkq1lrdEgXY2bnQSuJIxGXSBbqCVzsFCJZfVFfSiOhh9k8aVgQ3OhlxB9xQo8TPvdOR2EYKhwBn8RZiHuUr+FCrNreS5aFdEqPCvnnn6WldXwYveWauc9Lz7oa/lWjtbggLI+AxNyv3Ruco6K+5G8t+gm63QXr2z0d0rL6yqJwPTC5BB9DKZrOkqS81r59+++oruD4DJNqBmIx0nXacz4HhsCCBQsAs/kDfmOfxUrbYr5UiRWTCVYcvG90mLTK4DJ8bfZDw1huZ5Hg21EB+TTjqQy/n9HhfYUhhM+OP/74EqN8yKqF8BGYUfUm7AZvoUUh604S1tR6Pjc9J6WgrHCaUTqrYVNLSv5GHm8h3ShKK8vicJzCRbCos3wD+aViY+6LMzIyDuE6Jg6QqhnQ3U2y1Ppi+B6joTDA9mzo8ftJJ530qS998OwzkKxtalwaEqt3KC6pj3s1LjwBGf8k2AVqaeFQkKvndBm9VVBWNIHMWT6OqKsvKgZENBePzslp53Ap18PkfCMA+kf7UEFdmQeSpeD/fQFI1iAmWT7ersngQYMG0QdnnYNIl1e4vq5cEkttS52C8Y0bAR4ijIOKAMsEzWCai6/NZeXl5URo7DyScdDwwUjksQy/3viq+h+I10r8rpg3b16dGYpaxuhwllS7nD1w/60aho985Vn4ZV2qxQn2LEnyazoZl07GgkG6+1Bd0oweInYt9+/fH1PkSgMEQ5kv4Ppxtb5kaeHRdgaxPwn1bWVDeqlxqK4ZH6LSR3uAmYSGJEx7bubskqWH8OGAWbawiGFF9aqqQyOhK4IMj6ivLzSkWVBS9FibsuIch7N2yJNKA5L1Lk43w0q4ECSr3sQawxJzYKAIRH1dCbRgiZqOLVhx8ubRED5IlgmQHyJZfdu1a2ebY3m3bt1IFv1+wG8WkaquXbsOVmTltpycnAdAtPJgzq437PL81l+2jcrOPjdJFhbhy7gX0tIX3CtYamENzQbEdVBHfmnpt1imYQt6tjQIaleelnUazl8FJdR/YicwfhtRmmAT7ot9DUn5FxEdT0GyZqIsilpf+qG+BO30bXfJ0KlXgAS2NCGXyE096wClmyz2dSrpwhmajIoq5wrtOpDz2JycLljTargnrSTn+VmCwrC+4P8lHenJJ4xmNebg1wa/nfgfKUIp5uP6v/h/IotxWI+JWDQLGW7xzpRIFtUVvI8FmCxxPj7o1njH4fugETCsK0FLZQERRSAcX/wRLWAiZY5O82GU923qNHfs2NEhVGUfOnSoCzO3PiRHY3y434V8Xl69dvXM5cuX11kni/KfWVS0p6rSSR1JKd2jJ2zhEF2vwOpg2CFSHLNHjdVA+UiLj2HIc7XrEJyT0MnMgVwiV0NimVxp2KC+kLP3Q6gvS0HKs7XwaDnj/W5ANfGQI196IR7FWWX0vDyjtBvCm6vPCmdu+2WnUTyzYWK127cwieKjBn+ZX1LymY+09erLN9980xizHp9B/DUoV3v8JmJzbjidC8nusyhMoHB6jmHPqXDeb+JDdtiDUVfeQ6ZjoR+RrO5hVyC+M6xXV+K7uIlTOiZYcfauVZL1ZnV19bKdO3ceHuriwQfmkwMHDhyHdbEOw7ECX+f1ZjRSpwbfl6ugi4v0oZXYx6ZlDrVDN0V0LNHkYAyyr3Zt55mcrYlcoXNJiRdypeGD+vIyCMpkIuXYhqmrFh4N5z179iyDHkeClJzuS591P6w7B++lEzZE99QDfVys23aMdg9G/6N2HehZVJRrtLSw4BZo1/qzUX2h/wvouBJYd4BV7lh8oNxGy0v07t37L0pLZ1itvqBwek5EC7+vjP6f9HmF8xp15QPkNxp6LcD/w0nhzDue84rXtiWe35nZsjHBMotUDMVDQ0iLKM7GV/GyrVu3dgy16qeffvo+dA5XIJ/P0IF8adQpTC8t/Br+Kp4OCY00+Y0FbcWS5coVyJeGiOhPDyw66rYu0L0dB3WWqamp/4Us565duy6LB8uVNy4Y8nkF720SnJmXwM/mCO/nkbgnUtWiRYuvkXcqdPsAdaq/tx5ErmT44YGQXO/zvYiCrjziz94yrNyPzszMwLpRbhKKirtXSnZ4rKeaHKP6QmEowyeo7p/g/+TKHj16bNfiG53pOcXDs48pXWFhYYpRvEiEoW35EDrdhLyJZPn2e4uEcjGWJ9ULVeW4bVti7JXYri4TLNshjQ6BaAgfR0P4qtPpXBoOkoVSK+gUaIjjA+oUjIY3sADjo4i3jxACGTomNyPjHLoO5phRVkYr1W9WZTRK2rnnuGDk6dOqneU7FAbL1TCfnbg+UYxeqyRrIvxsFkWSZKHepIFMvY069Bbq0i+A809c0zD0Swj/QoN3zeo1K0CuXgC5ugqEhCxdxofi9s9zP1MEudQ4krlQpyD11WKi/n6FFdQrtHs6+6ovWBB1CspShP+Pifr4DV3DOjyJ0u3du/fxhuKG8znqykd4JzciTyJZPcOZd7zk5auuxEv5uBw1CDDBiuOagIZwChrCV0CyaPinUziKik7kXnQKpeio9dPY3Vm7F2AUlVc9esjiCM91EBcYtvE43UqKQj43QR9qAzgXglwgV5fHM7nSwEJ9eRXv7gG8u8XwszlSCw/HmfyT4Hd0H/Kmd7kZegzHuT8I1EUgGmSlOgJhUzRdMMz8KIbcjvJLriiyIuosuLUrwWtyrJzxv3S0Fh/D0f/Trunsq74QYaSyJCUl3aaPb/YaQ/23U3pY9DLMpglHPNQVsshdh7yYZFkEXF9XKGkitC0WIYqb6Eyw4uZVGhcEDeETaAhfwvDPMlgmOhvHsjVUqaysHAmJZxsN6wiKY7aWmyKKg6srK7XbwM+SuElLLAvKUdp1oGdqAFu1avUu0lfBEnhFIjWAmDE2G/WFLJGLYZ0IGksz7wDEahj2FdyEPI8FkeoOIvMGzjSh4HoQqG9JBs5V8E9aoMkD6frU3HtRUrU0gii7/Z0895YvRJrxV3OIwq/apb/6gjIRCXlTnYmrJTF97tWr1x+UHpjY8jFiOmMTEVFX5qN8pNcCLF3S20SShI/iXVcSHpA4B4AJVpy/YCoeGsKncHohXCTr5JNP3ouGNw955nuvk1VQunk1rR1EeuFosn3tupqrIP6KgkBDSTWHJNaZDWd19WT16/J9dGiHiFxBaJUm2uhsVb6RjGgLI5IFne7FL6Qka926dd1Bwml4727Ul2vJ7wgWrIO4Xojfg7j/OGhsRMEzE8/hcuwPUp5nAocsK9tIVkP1BeXoj19Q5VDTDwhS95AkV0nWtfh/+QQL154SkkziRGhDdSVOisnF0CHABEsHRjxfgiw8g0ZwhsMhLcfwT5dQlxXWhvnIoxzrZA2rl5ekUKfqPv7csEG7DPzsUn7TEmO4MOChUHImhkM7OfHuV8lVtSY30c4o/xso83j8iGR5hsbswAHDZm1ArJ6HlepTbEL8NqxRPWlGHXVAkE8z1d4FuXrejrwgo4UmR0xS9mrXgZyx/lVTLZ1DlPabrC9ZqE9BVXLM8FyPfMM6ZKuV08wZJGsh4l2L9/khrOSnmkmTaHFM1pVEgyXuy8sEK+5fcW0B0WlOxXrTBZIkLkOnSYtzhvTAlzet+ZNbLxNZ+FIL+6ukRLsM+OxSpO1aYvjmHK5dWzmXlpY2atq06YfQeS+GVa9EWveSElZkxFtc1Je3UKa7gMliDAF5ljsItJxYJ82J4cBbYaUiwrEfco886cSTXsI1LXApwhmcZjOWkh9foHmENp1IerqPZq2am60vreErtlNLF8i5cePGNLTZKpC04UqDuvIp8hqOd/sBPuBOC1e+sZAPty2x8JZCoyMTrNDgGrVS0RA+C5I1DQqGnGT9/fffZMXKXrVqVZYeEFF0eL7o9/xOLibBHclOl6cDg/Ox5Y4IEwAaoxP8EFrsxtf4VTgnPLnS3gjqy9uwTNwB4kMki7ZMCugAsToP66StA6mimaN9QaLugNXqb00YLFqP4tnh8MW6DmGKFh7sGYIOajIqFaWxdh3IGbI8FrCz8/JoEoeZ+vLXwYMHWweSn5ZGTb9Lu4/Ws0qyrsV7fB8k6/Ro1TOcenHbEk60oy8vJljR905CrhEawmnoMJ9FRkSy0kOVYZ8+faqRz0L4fp2rz6PCIRdr9/v/Rh/rcxs3LZb/M238rMVAJ9hSuzZzRvmbQL8PEXcncPkPzkyuvICDRW8OLBO34l0uskqyQKxyQJ4+Rqebj9+dIFYD8duozwLPR6MSnA8iZ/sK+fD3q9TyclSJNAQZ+KHUDjHu3/HXQZP1pRj1q1vgmQoCsCdiW+tnGIywEKcFJp8hi2vwrt/D/1aDq/CHWJ2Iiue2JaLwR0XmTLCi4jWEXwl0mvnoMKci52XoNDNCpQE6h+XIp87XLG2fA8d0tzUAmycKh/bssSN7jxDsf3iYGYHUACIe+fz8iY7hWpyZXPkArn379u+g07wZ73IxnJkbXGts5cqVzUGcnkKalRD5BSyEtHq5Zxaglg3iXIjr8Q6HcxBmCnreofY86LMo7tdkyA6xuXYdyNmR5PQMRS+dOZNIuZn6sgSYURmDOS5C4kXBCAhnWvwvfY4y08cK7WGYyCSL25ZwVrwozMsZhTqxSmFCACSrAORKRmO4DJ1mP3SiJUZZwwrxE8IfgjMyrQtl6YBVghx0bzZIRFanFhR+aK9n5MUgWvBBZmb6oaOnDoEPPwhg+HQe6ouAd/oZnJkHdurUaZ1BdAlYDm/SpMmDePYZ4p4I4uQhJvr4cHY/GQScFgs9F1Ytz0QFfZxgr+GT58lbCtA/j3QgMn7aFZef9eUb5JYmCNXV8vHuiwb+oGyzUMZ169evfziQpRqQrj2yuBpEtXsDWUXVY7QtizBMSHqTJesykC6P32VUKRpaZbaj3NcjCzNEPLSasPSIIMAEKyKwR0+m6DRnoAFEPyAvNSJZcDxuAifbM0DCXgLREqySLCyUWIpFFo2GIQ9oKMiVVdplSM6DBg2Cwaz2oM4SDf8nCClD+W/EOeAG0Ax5q8059q9UkqVg2GsBSNYgPclC/TgFuNJ2SJUgFYNPOOGENb5KTEOHiEtWoFEgYETgQ3XUOvnVWXTUfHZafWmTlV2EVO4Zldjk6UwzElC2LSjra9i26hnEv8pMGn0cSof/vdkgoKX68Fi4Bskia+cVaFs0krUiFvS2S0cmV3YhGbtyeIgwdt+dbZqjIXgBwqagIVxWXl6epRd86qmnHsTQziJ0hsPxe0D/zMx1s2bN9iFes3pxFf/rS9WLb1MAdZYQRc73pSALN+AcMLmySaWYEwPc3kWnP04lWSf++OOPnWG1ehv1478ozNMgA6f7I1eI2xZx7Vvryi+CtUt4wJpVp277TaY+1NeXjfPeuQzu9//QI/j6ZY9L72pqZiUc98cDr2wQrUmqWFMnik/psCfjeFMJojASrOJL8a6HQTUiWf+KQhVtU0mtK3p53Lbo0UjAayZYCfjSjYqskqxHseYOkaxs7zjJyclfI+wI7/CG7jEDCn1R/QPrH9WuKdSoUf0IFkNgovL413QsLiZSV+/A1zTlSR17sWq58ky7rxeZA/wigPryHqwrdxw4cGAF6syPoqiQM/exIFdzkNDwnZNADAs2AWkg66Gda12RaB+H9LPngSRYmgXpXV/yFiyoECTR40cmi8p1Htl+LmjFedS5wYhyIcjlW8DA71Ii33//fQeQqzcpPqXDWnIVfsRH/SP8ry1HOYZC0fcwxNwn6hUOQEGtrgSQlJPEMQJMsOL45VotGjrNF5HmISOShe1vaG2bX63KhCzys3J/9ddNK6Zo985GnkstyNJ5VM+eSejRtbrsmqgo9YjTjh07msFCtxCCf1UtV/XiWMo0wSODAFyyc+fOxzGEvL5t27bV7dp1eO/444/3OJQbwUOr+mPokAhYIYjYvUZx7A7DhtAbNZmiIpomWD7ri6y8ocnD7NdRuZ2Pbu2593OB8u4AsSSH753AYCP2FnwGZOus7777zp2eznRP4dg79GcQkr8oPqXzIzZmHhHJgrKXokxzQUb6xYziJhTV1xUT0TlKAiGgdUoJVGQuqj8EQLJeRiM4mUgW1nDpSisQo+HvjzDaCPg+f2mNnqGzyED4Fu9nsDh51qtKaUqGpcAP519/eTo5yC33lgQi0By+YESufkb5RuLs08LinZbv6yKAunACfssQSvsVXnvcccedBsJwI65p09+T6sauewdLTD5Cmtm91lXdXOre7SwpKawd1lM65mVkZNaNUf/OX31pu6WYLFg1Hxqi0Ex0VE6oL8E4BP5YB0CYbgZWtN9iOX4Pwz/xJ4pNZ7qncHpO8Si+saTYDMX/3gpofik+dObAf+/s2CxFXa0N6krdCHyX0Aiwk3tCv37jwsM5dRZmAJEj85J9+/Z1QaO/Hp3orfDF+sg4he9QpOuGBnWDPsZtXbq0UhzJ7kUfU5o2EZyN3Zf6KJauHYrzcNm9GLg72TZ94t69e7fAUBaRq5/QwI/B2VZy5e1Ar887nq5pext0/JNRpiF4pw+BAJDfntsKiPryEdUXPCeSdT5w/sG77CBldwP6M7CH35nmNmn2lhDY/VxFceWl56yE/9W5JEFUnOScXuJLGnWY/urLRFhHc9OzJgii+I5bhijk5WZlvV9QXEzkwdSB/6NSRHxc/QnARgGeHU0ljvFIqBtfoo5chjr0LurMVeQIH6tFaqiuxGq5WG/7EGALln1YxpUkNHy0bclEKhQcVS9Fp0AzviwfIFd90PGu1CesdDq7avfNWnuMT1pQAGfZY5VQRGG7JmDXrl1ucoVyrAsFudLyieezur1NLjrEn1HOKpyPRl2Yges6Q6yoLx8D5xsRTiSrpx4TDCdehWdjQrbWlT4zo2tR/lILhu/fAO3a+2y2vhSUFc+FpZQmShBbl0RZfGtc165tveXxvTECRLLw5FK0C2+irpxjHCu6Q83WleguBWsXagSYYIUa4RiWj07zVVIfnepifG0eabUo1DmjER2I4UZa3dlzSLLoWUOoeft2nvBAL2RRtxGuomwiObt37z6soqKCHNrXoBy5CEJfyIcVBECMzlW3tzkf6c7CEh23gFzR+mWGB3D+BHhfh4fzNZIFGf0Qhj0wlfPho/WbYcIQB2Kvyk+1LFAJBk/u1i1Zu9fOVuuLLMo3gGTtovSQ2VmpkheaXeBWyzORzyBZX6FOXAoMXkddcVsXYwUPq3UlVsrFetqPABMs+zGNO4noIMnfZjEawqOsFA6d8yDEL+rZs2exPp0siKdp922ysrTLwM+K4CFs6O1+UhtA6lRXwbl2HM5MriygC1KUg9/7eOcF+N2L4at629v4Ege85yPNcDxf8Ouvv16O6/+iI708xGtd+VLHHT6jrJCGLEvVSIft+Odgf/XafQqkvkwvKfmDygUB7qn4qGA9kl3CkrGZmR30svnaNwIg5CuB4RDEmB0rJCuQuuIbAX4S7wgwwYr3N2xD+dBpzoYYmvVFJMu90KJJsbcjHi086Tkmi6IkiIJnmObw447zPAvi4hQtbdus9BLMbKOtOr7FV/ItCGdypYHTwHnjxo3N4A/0OEjRt7Bafq1ub2PZ7w71ZSGsh+PwHt6EjOmwfC1tIOtwPH5fl8kN2jV1mIHWFwwVLoLjGcly1zEiWZIifT0mK8uytVfTJ9HOIFlf60jWedFc/mDqSjSXi3ULHQJMsEKHbVxJBlmh6enj8VtkhmRhujkNK7XDLMS5eiDK07LIetWpJkz5q+1RwfVFozMzMyCLfvBgFvfd8Prrz+Lqa+h7K85MrgiXhg/a3uY6kKJNiNoWfnPdMBT4VKDO6LTWFXxUbgFJez01NXU0Zoyd2rAKoY0huoTXtBywAfTg0V2O7FRaWtoS5IqcrAOuL9NLCl8DyboOMtzbEaDCZWII/Pu89Kyrtfz47B8BIlmoKxcj1myskzXQf+zIPLWjrkRGc841kggwwYok+jGWN0jLW1B5PCwci9EQHuNL/W+//bYFOulpiDdu6NChdVYzlkThitp04keiw1F7G8CVU5D6asm6HH2kLDmdXzC50hBp+IyhwFNArlYiJi21cAmGA6/HcN72hlMax9DWuoKs1dh7j4jHteg834cPn2dY2DhlaEPztxb9BLq9gnLBRAhnk2aOe2BdI3K1Itj6QiRLFMSLIF9b7605SNcbuRk5r9OM2dCWLD6kYyLN/1BnBsOaFXUka8uWLal21ZX4eFtcCrMIMMEyixTHcyNAJAvk6Q40hESyjjWARcSq7y+isVwOK8gi/fNbMzNbKopwjRaG0UKyigV1QB75cLiPVl26rIZ+NCzJRwMI0GrisDK+gff0LqJOA7E6De/r+waSNfhYXetKgOUyjyLjfdAEh+HIh0jW6Q0KCGUEUSTrpvtwVbtG/1VURMPIttSX/NLChZJDOQOO72QFVA/lP5WO5F9yM7JumExD43z4RQBDy9+hnlygkiyygEf8IHKFNcoWQ6dldtWViBeKFQgbAvxPHzao4ycjmPTnwCpxqxHJgkWEFkvMAAlzd7D6Ulcrjjvgf+XelxAd0caC0sIv9M+tXo9JT0+FnJpp3th9d8PiRcOtyki0+N98801jvKP78P7WYaWFMnyZHwVyNQc4BD2cCkvY3Xj3J+HdX6G3XKok6xp0nrQf3RmRwrxtWdFHkkPaSPlXV1VLL1x9LaqPfce04uJ1jQ7t7wmhr+qktsHY9Us707NXjkvLojW4+PCDAJEsPB6EevQKCPlgP1FD/ggLLbcicoV6uxht3p0hz5AziDsEmGDF3SsNT4Fg0n8HDc/NRLKw9QV5qovoYB/Emda3Gey9CnWN469yh6YdhlAeQtqgOvUWqa1HQEDNlHtF+frZoqItmnw+10cAxOoSrKL+I570wDvqfeKJJ90PPyttWKt+AgshkO1e6wor91/o/e5JDEgWTTwgv6R3I0Wybvjtt9QL7rpDv/HlyDHpOT0sFLPBqE/+8cf+/NKi6wRRuhhEy7MsBRY6PUWWxBV56dmfjU3L7tWgoASOgLqyCsUfhDr6EkjWhZGAAn6DrbHQMg0hfw7SR76nfDAClhFggmUZMk6gIYCGZy4awXFY5+rzdevWLUD4IHSw/4JFZIcWh87DRNEBx9+XQYZS6B4dz6q2pUV1nN8p3MqBIai2zuTkR2rTKG/XXvOVHgEQ32PwW4Z3NQm/GzGrbwiGA0v1cYK5BrnSr3VV7ksWrACLYd26Cs/JkhVWaw7yawOr3eLjLrzwv8if6iod2BtReZ7qZ82tfX8LSjZ/JB9ofDTsgo+hvldqkuH/dQ4GC7/F6vIfjcvo2l0L53NdBECyfkDI+aivL4JkXVT3aWjvtLqCXBZCj3tCmxtLj2cEmGDF89sNQ9nQ+B0sLy93YKjpX9j0dwwWk6zXwbZPy3oaqriHhjCDqxprgI+eaLAhs1l14fvVtvSLL/73d/kOtzUCHdjfyoEms82mT5R4tL0NyM90WI6WoKOat2fPnh4gVsvtLD/yOA6yTa911am1vWewAABAAElEQVRTpyUgOjTRgUjWv+zUxZcsqi94RtaI+egw71Nc4s24PuSOrwi92qdl2+KH5Zan+zO9fP0/BWVF91aL8pGoo2/iJ6uPse+0ciG2d/ohLyN7wfa1a3Wp+FJDQCVZZMl6AXXlEi08lGfvuhLKvFh2/CPgjP8icgntRoBminXt2pWcUW+D7Pb4XYVFRVvg/CFM64PQiXp6jLEZWbejgaQOzX2gY5mI9YNoCCCggxpAxeVasmTGC01qBYgvU2dWex+fV1jIsjQ3I9vUsKrkdKTAmtgIFqMqV1X1Qbyrh4HKw+TRrjtSddfBXi55xbqEL6wn8aQwhYMnds3FCTjd522vQp2cnJeZ+XF+SYnOQd0rZRC3z5eUlCL5f25Oy5nikpRJuKaJGeBb2BpREAYumPywgN9KfO0+3bqs+MNgPj4gM64OkKzV+IgjkkW7A0i4fy+UBaSPEcj/CPlMCGU+LDsxEGCClRjvOahS/vjjj+3Q8HRCZ90Ngs7CTDGaTl2ERq8AQ3XvaA7NaABpW50FaBDPx3DQmtz07AcQZ7Inc1GcO720+LECT4C1C/h6kR5Llz477Zd9f+0ivy9yzf7H4ZCfsiYpNmOjM25pVnO52iVU4oeDhmXdQ7Nm0yZgvEaKIr6CocIzaXPoUJX/uS2F6yH7srwu2ccJDuFu1N1htGSEmt9pMG+dtjM9qyg3M7tAckqvTNu8eW+odIkludSW0IcbtS3UxoSSZKF9+QD5TYwlfFjX6EWAhwij991Ei2ZV1dXVG+FnNQsKDQRhWg3nz1PUaf1va+SKlFUbvrGH9u5dOP6Ekz7FN7qHXImCsryq8uAINGCBWB4EDEO2B8Fbtuf33z/+Zt67J3vAkYRnni0u/tNzzxeMQEAIiKe2S8/yWFoDEmEyEa3JBUf4qwTRdQTMWDMcSUmelPjnyAbxmipXyb/lZmY9N7ZLTo7nYQJfkFUc//+DAEE+rNiXhQoKJlehQjYx5WpfT4lZei51gwiASNXbGNdXIpAvcWxaZpIzJdlZXVl1rhYPncjCyqqKy2Zu23ZAC7NyJnIFgrcUaeZMv3RYBs6dKD0Wd/z9QIozrq1XSaKcUSFjO2sfx9Fnntn0hCuuuiW5WZMRFf/8M33l1KnTf9u82eNU7SNZveAZZWW76wUaB4jw66L1s5rDejlET7CNozccCqvEmYj1LjrQK8lHy18KOOu7CTrqpU9M9PUFpP9hf/Ii+Sy/tLQE+Y9duWTJmP9eP+oRRZBvQq1urerUHCuijsPaWrkYFl4A0vUs/Ln8YhPJsoQjbyJZsGQNhCVrIUiWiEk284LNl+pKsDI4PSPgCwEmWL6Q4XDTCNAsrA7pWRfB34qGPXqBXNWkxdpUqe3avl3uqho+c9UqNdC0WHfEHTt2dFDJ1ZuPnnz6ekUSH6yVoIybtWnTvtr7+LuaWlLyt49S0bIYtOwB7R34GTDqdspZZ20/6/zQrs+IPB9FnjkgQ/3sIFdUNpCgL0GyLkXH+S6Gl6+GFYEc0gM69PUFcknXqD+atGolYKHS+0d16vRoijPlKixhMg4skobj8e8k0CjDBfiauABEa62oKE+3ad5k7sT16y2T6KgHwoSCIFnr4CpwLurf5yBZQjAkS1dXTOTMURgB6wgwwbKOGacAApOxMvWO9JyTBUW+qF1a1pXwH+lCvYF2wLyw/fgB/WddMHniSISRc/Eq7ZnZ886dOw/H8CRZrmY/3PvMdyWH+D2u3ZYL/JmDYZaQOrya1TPc8WBBOgWkairlixHXS2HN+V84dAC5Go18LkPep2Gph4Cskb70BBn6CiSLZNM6Wdfg/nNfcX2F6+sL0j/uK160hqsW3peAwct5aVlnw255M+r5IJVkkdon0hY8O/85NAX+jdOSJHmmHwIercUMWi+swfcTSNY5RLJwlmhNPqtC9XUFaR+zmp7jMwJmEGCCZQYljiOMbdetmaPp/m6yIJ0CInWymJ7VF7PO29fQnVqA0CEcBAd6Rj7Q6PEbX3zhH3xl/g8kgJxTB6HTM02ytm7d2hGz4JYi7SuPn3XWq6JD+Rodjebk/YuYJGE4JbEO2t4G/m+PoAOm4de7QazexFlHa0OHB8hVf7yLB5DDmSBXddY5sytXIlmwYNFCtbSEw7W4p212TB36+gIL2BOmEkVpJOBM75SseIvJB0t0YlcERRyB++akMhYt7Yj/u8erFWlCXkbWK9Wi8szI99+nRwlzEMlC29IfJGsR6oyEdz7HbOEN6goTLLPgcTxLCDDBsgRX9EaeLPZ1/plW7G6ASUtFkg4T5WT3JAZJkBvLgtKIwp0O2SG4RFpSoeYQhRZoz9WFFqVUQVIoDe0Z2BZkqR0a8nRcdxWbCB1k96OaZN69OuLuQLxXnKLruamlpdtV6WTCn4+GcDjyWIDzBbj/Tnvm64wtKjqp5GrW5DPPnInlCaizyaH4yGe/qEhDEmmG1caNG5MrKytvxxAalsWQZ6akNDrSrhXYfb0DfTitdYW8X8c7vBirtBfqn9l9jY5yJTrMISrJGm6GZOnrS6yTK288p28tJLxvHte16wSlWr4e7yAX/wVZFA//g01xnedUxFFfTn1WOOHyfwtC98RZuxRtyQYiWagri0DIRdSVt73x876P57riXVa+jzwCTLAi/w6C1sC9NlI6OWvoXicxILHaI9vNtHDn9pcGS6lzwFeq5kAiSqce7kvdvRaunZFqF64/UwRxnpgkLsjfvLlCe6Y/oyEkcnUtOodPYNK/CF+fPoe04MTaGVaapWg0X3zolFNmJYvO+VChJ8lDfpWCrFw5bcvmjXr58XyN4cBLgMUTwO4nlPPU7t1PCinB8cYSS3R0Brn6BOE3gVx96/08FPcgSV+jHgxBvh+g4ySS9amvfPT1BfGe8hUv1sPVD4qp8Hec1i4tk6x8d+H/ogeVC+fkX1d8JRSu/EaYNyZvhlQtPTrtt82/xXqZzeiPtmUj2pYBOpL1lq90iVJXfJWfw8OPgK5HDn/mnGPsIEDkBg15Cc6rMVzxjUsQvm6/pcu6icqyWhbnpzhoCBfSsA9M+rQY6SVwVv3GOzosF10cDmkZLGEzHjr11Lcl0bkceR6vxlPg53Xd9C3FH3uni+d7dBwPA7ORIDfLwl1OWK4OkyRxAajtFAxHhhV3qh8g4xej7B+hAx1O9ce7/Pr6gufPeD+Px3t1na65KNvcvIycfhguvB/Xfamssgv/lYIwWnHK1+HZS06h+lG9NZkexuNBJAttS3+UjSxZtBjpG97lTMS64o0B34cfASZY4cc8VDlS66pfmBDXNYsmYjkD2hYEvlEIEQUZy0fvoWs6QGD2oROvxpkeuWesKYq0UxSVnYqs7JQUAWtMOYr+2FpYGuwijGSJIJJFlgkaBiJLRY0WgkANIMLJ56rgoVPO/NIhSt9CpzT1uQt7i4wpKCv0+XWqyYn189q1a1uCVJCflbso2N7mhD59+pgisXaWnYYl8T7eh8z5IFfP2ynbrCyydIJc0aK2/4fztXqSpa8vqFfPmpUZT/Ew85AmgCwdm5FzWudjj165bUONYRf/Nyn4d86tUhzD4aP1eJKr6plntm51///HU/n1ZUEd+FkjWagrEurKbP1zrW1J1Lqix4Kvw4cAE6zwYW1rTrJS3QqbHR/A0IHhsJytmdkoDA3cZ0SyQCDeRyd5qSYalhJYrpRpj552xj5JFL5CJ+H2GQPNqBRE8Rp0JpZnCmmyY+G8fPlyZ8uWLUeCXE2AvkRs3EckyBUyFg8dOvQK3lE5yNW9qioROaGj/A71ZRDqBg0zj9CU0OoL6tM0LSxRz9NLC7/GJAThjx9/FBZMnAyrr9jHjYUoNMP1w1WO5JF56Vl35JcVz4tnjFAXNqFNIUvWYtQV8v/0kCzUn3yuK/H89qOzbFhWBV0ZH/UQQINlOzCzLqldgPj6D96tl2ciBxz8+29hZcF0oeyHNR4YUpo2EfrcPE7o3MvtguUJj/YLfs/R/obiW7+t330vrHrjTWHXb9vqFLTj0UcJp40ZLRzW2b1Ob51niXxj5/+rVVn4eKB14GIWfnyA4RuYD18IsAXLFzIcHjYEipYuFb597Q3h4L59njxTOx4u9L/3HqFFp46eML5gBBiBhhHo0ruX+6PklwULhTVz3xUO7K3xHPj9503CR7ffIZx0+TCh28UXw07JfWPDaHIMRiBwBJhg+cAuRMzcYxULkXwfpYm+YDgwZ/6+fv2XC6Y82Wn7r5v1ChJGM8rLSu4664LzbV3MUp9JiK/9vmf4NzWrrDx0NzYYHgkL8nMVFRXPnHrqqXV8ZDQLajjrCfK8EPrMBDa01lVYZys29D6ovmD4dCmGfjIoLvyzLoYP30cNpYuF5/Sug33PRvUF71D4btbLLeGD+SA8LEfTxtJV2GXh29ffEr6b/dbnYrJ0NVwMQrKmWSRx1+oKhrhfg4VoEunSAL5+/18tlsWSLOgX9Lu3qJ87uh11LpB8Ey2NNns/0crN5Y0gAm/ede+Z795x14+vXj/ycD25ciYl7ZRk5byC0qLcQPctjGCxzGRN29tcAUK1CYtqpIMwnIBO8BFvcmVGkN1xMGPwZMicBYJ1cbSRK+wXlwWslkG/KVq50Xm+gM7pEu2ez8YI0Erv+aXF4zCb5VTYq9ZrsUC2zsGG0j+OTc8+QwuLh7O+rsAHa7JWJtSVG7RrPjMC4UKALVjhQprzEWhV6qYtm006dODAlZhS7hmfECVJaN2x49zhr758dkqzZjTjMe4OzA7sBfLidsjG+TJ8UftcC0xf+DzsP4ep+J4FZPXP7LqWHM6kxoe16Fixb/+O6qqKt1+1S7C3HEWkhWubeQdbuNfPZuyAdJ7JABZkhDUqKjnW+BX/Dxs5F0zfUrIY795j4QinIvlbilZN7tatx459BydhZHA8lKCP6w6YULIEMw3HgITNCqc+ocgL5Cpb3bf0Efg1veiVxwSQLFrCwTvcKxrfMgL2IcAEyz4sWZIPBMalZZ2JTZpvkRzCxQf27atjNSXH21NuvF7oN2TIvzH8cxb6n/dwHoqvz+U+xMVUMG1vgyniD0Ppc/F7AMSK+IvpThYRM+AscxjShOyg9ZP279pN8kFaPLzX/vxCKNp+Ze2R6CYyonIhcL0Q1qKf8zKzpzU6uP+NJ//4Y789OZiXom4QfS/+H5cLkvg6dGuPXzJ0exl7G3YqKCt60Ly06IqJFdpzaIFiaPUgSNTL3trhWV8iXyBZtOI7DYPzwQiEHIE6nV3Ic+MMEgaBOzt0aJqXnjOSLDCyJK5AQz7E3dmoCOAr+ksMB/5r4KMPC6mZme5QkKovcHEpSNZc+FH0iwewQK5oWKY8JSXlKJCrV3ANGPhITASUo2G/ev5go6ZbQbSm3JKdnRYJHKZtKf5cdoq9kPdaT/6iMBk7QjztuY+hC5CrriBQS9BuTDIiV1SUdu3aFSMOtSn3gGTdFEPFY1VjGAG2YMXwy4tm1Q80anqxKLgdpvVqwvVDWCAL4tMFJYXL6AF8kvTPacryCjSAl8Ln5l2s+H4lVvReUidCjN2g0T/ZLp8mSVJOrHYl1U61DAKLZk2bOM6ZdM8M4Lz//yZMuL26EkvKhvEQDyaVTy9f/49RlnjvR4CYLqIOE47sr+rjGDlzI/4JiL8Qflk3g6RH1VpPudnZR2DHqjEwDI4AwC3UsqSCaN3lqhZuA6n58PxJWPoszHsITi8s3IqPoDMOpTR7TxEVsq7ScRuIX3V+SdH4mtvo/0t1BcTJsK54a08kCx9ufVHnabIELUY6wzsO3zMCdiLABMtONFmWB4EZZcVv56Zn3YpOxb1fWlKjlB0VlYfOnFFc/Isnko8LkKwviWSh03wPCwdehU52sY+oURWMzv8YKFTHCmAXuaKCVohi6cyyXzyr8AdTeOiaj/QSLGvDMJOsMhhZdqbF+z6SyBXI0gTUg9lmZIOEr0PHeS46zs/RcdICk1FDsgqKin5FGW65/qijJjQ5WD0cBsw8fGV0pXLRrD6cLps/6SFhwaSHVgmK8mxl21bvzFy1qoqeh/qgYUr4ZV2445+D/0Ve7gkDRPxy03O2YdeEqF/ANZC6gtmnJagjfUHelyK9hLalINQ4s/zERYCHCBP33Ye05GjAlOzevZ/TMqk+VNHaUS2adtZG5/oV0tKmtm+CbJ2jyYnGM21vg02Zp0K3L1Ds+dGoo14nkKvR6N7PAiEZcswxx0QNucJ7PgrvezF+94MkmSJXWrnQcf6EdP2B/zSQrX9r4dFynrVp0778ssL8NluKj8Ig8WBYcumjAd8fNQd9iCii+EbSzt2/Ylh9zIjMTPdOBtrzUJ3JL6tts8aXQx/yX6o5ROWZcRnZ52u30XgOpq6gbpWiTH1RX24DycqNxvKxTvGBAFuwYvQ9jklPT21aUVEZCWdZM5ChATz6388989j0i4f88Pef5T3QgUiiQ3gGjdpZ6AQ9HYs/WUSy0AASyXoP8q7F/Wf+4kfgmQRydROIint7G5yPxqbMO+FoRdahqDxAruBwLYx3OJxndO9+vC3WMCroggULTL1TDZRBgwahT689qL7gbhF+96ADrLdZb21M31dItwHWif54D4tU68Qc37Ej82SiQnuWC/9Hv9z0rseKkmuclJQ80oX1qdQjA0BOb6ZI9+dmZj+RXF05M9T7CBLJgoXt4saHqgh/Wq7DAR3eHJN+ZI8ZZb8Ua4pFy9mOuoK2pAxyiGTVEstoKSDrETcIMMGK0Vcpic5dBxs5BfhwuEuA3mo/GkXNGoGlmz0bPbunh+FZNeJo/jsVWMXZvYgnNnTeL0pKTTpF2gvuQ+snEAOq2fhZVKrbNWuSr85AMoUWOrlj0HCRX8Rd+34v/w7E6ifIS4HQM3PTMi+DENNDODDhr0RnOUQlWcOjhWSBWPVBR06EcQ9+58GBfZ0pcCIYida6wvDbC9D7XOj7m52qeBMmkk2kyyjcO199fcH7DWpDb41kUf1DB0ozxt72zi9a7gvKNm+ALqO+WbZs5Nsjrr8fs/luxv9JW9IP58PxZ2qlI/mOsek5D7Vr3uhVK/+DVstIFrZxXbsOxtpY3yNtOvJv6RBdbw0TxTOC3eTdqi7+4ttZVzSShfzK/OXJzxiBQBFgghUoclGWDg1iU6hEPzpS0Vi7LxDuOfTXbgpFT9xsqiauu1mne08KeiwKO/YfxFRu4TFdsM9LNIDHglgRubod5GjOc1uLQAJz4Oeg3E6JMAzyxIjMzE9eLSkxvd4V5HytWrLeR6dJJOtTnwqE+AFIShpICvlZ0SysW0FUPghxlraIxxBmDvm04b1cDSvbT7YItUGId32xQST5YG1EPekPWRrJCoq02aGTPxmNWrYUsA7VI6M6dZqa7Gx0I/7l7sD/YGc1TSdRVF6An9Qd+D+6q6C0MGT1jVZ1z0vLvgwrZK1E/slYf+2UdmlZd0APzwKv/soR6mehqCtoS7aEWm+Wn7gIsA9W4r578yVXhPtHZ2ZmNJRAbQAXoyO/lciVFj9JdD0M3rZDvc9opjju1J6ZPRPJglxsoCbMRj4DzaazK96PP/7YdO3a1Q9Dh1UgKWsPHTp0NBzYQ9bZ2aU3ycGwYFtYdBZA7/HQOWqGRHzVFzvKjo7zZ8gZgN8UkK3/2CEz1DJo94L8sqLn2jRrDLO0kouPm991eeYg7H0sCrpsXEbX7rpwWy9pQVIQq8keoaLwQKSWk/DogItQ1hV9Pqgrt+nv+ZoRCAYBJljBoBclabG1jKgcaNxcVqpb0c8lypmy4szGYF9XWRF70k8S5VMxEX8A/dDRXigqyjD3TxSuExVxFP1gr7oL5qu78QV9L874ahWpk6KjiUOQ/M4qgmPxcZBLs7/GweH4nZpkNX9puw7IfEALQwN+dyCNNuT+D/IHIx8iWYM0eSE+u7e3wSKFG7B3YBYIVneQlKjY3sZMuWFxawK8PsFvHvSOGkuOv/piplxm4qgkiyxZj6K+XGsmTTTEoaHAgtLi6UmuihwsdUIfIzs1vRRB7AM3ru9gzXqK1prTwu08Yx9QslitVmU2wTq0j9gp36qscNQVnU43oa6Q1Y4PRiBoBHiIMGgIo0OA15pCbr+rYDXLzcz8QFSkrzFcIIFwDc7N7HpRQcnmj7zl0jpEWItmAZErDM+86/2c7v8sLX6pXXoWSJxwIn5NXLL4FM7D8LN0QP53aADPB2GYj/MI3M+3JMBC5HXr1nWHv9J0JElCfpeDoJja3sZCFiGNOm/ePEdOTs4c6F4I3eHjEx2Hmfpil6YgWZswvOweLkR9EVFfXrNLdqjlqM7tT92amflyleK4H2Qrzz10517eQbn9UKOmQ3KzsoYXFBevsFMX8rkam5GTh/xWqnKvHJfe9bFpZZs32pmPGVnhrCukDz6k+qIto3WyqK48aUZHjsMI+EKALVi+kOFwoaCk5Fs4pr+kQSEq8jTvr2Y0gCcSuUIn7pNcUXpqtLFy+zhcoo/AH0UZika8L11bPdDwfY80gyDjFXSeg62mbyg+bW+DYbVZIFefIO7L8LOixUJjilxRGUGu8nFq1qhRo+twduNO4ZE8zNYXO3XE8PIveJe0hMODqC8j7JQdDllkAYbv1R2SS+iGoXZa3sF94IVmCrK4FMOGDyrV1VqwLefppYVfQ9D/kTDkI8mCbHlYP1hFIlFXOnfuvA0kqx/qyg2oK3cFWwZOn9gIMMFK7PffYOmT5cp70ai7/afQ0KYdTGlKSxK4DzRA3TFk5iZXsBS8p4X7OmOLji8hy+ObBbPYtEA7BuS3CvkMgtXsJehxka88rYRv3LgxGcTqdpSJthDZrdveRrYiJxriohx3o2s8A8Qiata6slpf7MQRi5H+SiQL9WUy9CDCGXMHJoxszi8tGoCvk2ugvDZsiCUVxAmfPjBJqNy/39Yywa3AMzSIra3+ParTkW1szcCPsEjWFSJZ1dXVfVFXroNPFv6P+GAEAkOACVZguCVMKgxT7IJ/Vq1PgojtPbB+Dxqek9AALQAQY82QKw2wapeT/Lz+oXsQtm7rP6w34qhFbfCMfH9AJCJZM4MlWSAkAysqKjZA3ln4ej0dVqs7sAinW88GFYmyCJgxeBXKMAZrXQ3CjME90aBeoPXFTt2JZME6cTbqyyTUl+vtlB1OWQVlxW+IctUJemvW7z9vEj65c7wwOiennV26TCspIavttyQP/6uNU5KqLrdLtj850VBXunTp8ntSUlJf6Hkt9LnXn778jBHwhQATLF/IcLgHAcwsegMt7Ao1ICm5SfLr+Iomy9VNIDmWZtI9v/WXbaJU6zS79v0PhYO7A3cZQ/7kjEsk6wU0hJd4lDZ5AWJ1DH4LEf0plCcPxOpCDAcWmkweddFArvoBi6koy/nHH3/8b9GgIN5LD+gRUH2xW39YJzZjSLsvMJoIvW6wW3645OVv2fJ7m7Lic+En9RDyBP/BwnXb/xCcVcpirGfV1i49MLHjVU0WzLhXatehOkdTXWnTps12p9NJJOs/0ItJVqheehzLZYIVxy/XrqKhs0YDLo2BPPdy05UHD5307h13zYFvS0DmJ9EpTRUVYTPpV3nwoPD9q6/RZcAHkSyoSLMKp6MhvNSMINreBsSKHO2XIe3ne/bsOQHEKmLra5nRuaE48B07DsThvyjP5dGy1pWuw7wx0PrSULmtPsemv0VEspBuAvQbaTV9tMSfiOmEWD/rAfxz/gfD2m61sL/hcVgs9EPsMUhr1wV9pMgV8/C/6nbwwrIRJ9tpIfNWLhrrStu2bf9QSdbV0O9+b535nhHwhwATLH/o8DMPArTqdGr79m9rAb9+/c1Vt3Xp0kq7t3LGgobYt1i4VUtT+NXXAhY47KndB3JG570GPjZEsvLREPojWdLqtatvBAmhTaebIM2xIFZT+/TpY6+XcCCFCCIN1unqDHI1H+W6FeVZGoQou5PS7NLr8H4+sVtwMPJ0JOte1JebgpEV6bTTS4ve+tfYmwRRwqBhzXEaFiZ9VrsJ5kwuAiBt7gke9JXlqJLPDUaer7R4B/T/H5V1hUiWSsivwOzCB3yVgcMZAW8EmGB5I8L3hgigYel9/VuvD3ImJ2kO720rpeRHDSObCJxWWjQf3cF8igpSgKZbzEdH7OkhTIioFwU+Nms1kgV9L/OOQNvbYAhtFXzKrsQXP21vM4b2DvSOF2v3sFwd5nJVU+c0A+QqKta6ovpCOEKn4aFcSiOYdwWSVYx6QJas8bFOsrL79RN6X3mFHo7R49KyztEHBHqNYUidZVc8PVA5vtKpdWV+lNeVP6muoK0aBn0n+ioLhzMCegSYYOnR4GtDBLDQ3yloWD5Oadr0muoq141aJNChG7FWFm0OG9CBaee3Ss6apdhoW46x6VkjAhKkS6SSrIHQdxoawqH0CAQkDcOBbyNsNhrJx0Cs+p5wwglrdMli9pLWukKZYFkUv0K5Ho+Ggmj1hXQBuSL/tqg9sHhtCfDrBwXHo77QMHjMHt0uHUKMdq5WAFkSZ47IzGyk3Qd+lr7xpBXdm0F7boO90NWVa2OgrpRTXUE7MhSTJCYHW3ZOH/8IMMGK/3ccVAnRkJwGq9CHEOLeA9C90KgouId73HYnRXx+mIjtnAM4aNp5t/PqfGRPye18dOsARNVJApK1Dg3hudA7f8OGDfPwZUw+Whuwvc1RJ5544rw6kWP8Rl3rqrqwsDAvGoqiry/RoI8ZHYhkoY6QdeIO6J9rJk0wcUD20/Ebj98X+G0jWXRes3rNCjU8PVD5klMk/TWrbEYz2eH5IApU5oFGTlp3Dv/u7uPYUT17JqnXQZ30dQV+lDorWVBiQ5oYdaWc6gp+l8DqSRMM+GAEfCLABMsnNPwADeDpaEjeBxLX6htAlyDTgqEHCCGswdO9fVpWwJ1S96uvEpq18rhytRGTKgIediR91EOE7t3wdeyC78QFqampEzF0FjPb22iFaOiMzvhukIKTQCSvGDp0qKuh+KF+7qu+hDpfO+TDelIKOdRx3opyhISswpLaBEPU5Bu1Bvm0x29iVVXV8aS/+ywKEyicnuN4juLTMysHbdiMIfAHtTSKqIyfLPatMRNrgRbPszZt2ockW9RkSc6dO3MsiqgXPcbryg68p7NRqMEgWQ/XKxwHMAIqAkywuCoYIoCG4ww0IrR46DUgV5/pIz1fUlKKvQVrGxZReDAvLa2jPo7Za2dKinDK9cNroyviDeMyM0+pDbB2RdvboHNaDuJxJ/Qf2rJly55Yyfw+NOh1HFSsSY2+2LTWFbS6DmUcDD8yN9mNpJb+6ksk9bKSN+p5GeL3Baa3oDz0EWHbgTpJG25/hV87EOJjYUm9Db/lvXv3/osyoTOGeL+gcHqOIHd8SmdViX8k10uiIGxX03X6K31L8I7povCrpocoODK1azovWLBAs27pg31eR7quWNXXqCAg5ESyBuDZBSjPI0ZxOIwRYILFdaAeAmgwzkTgeyApV6PT+bxeBARUtU59Cg4fP9MztK4tFCnpaaN4ZsLSTzuNPN3dSz5AloS1d2ZYHXbE134bdEYvo3Mix/nZsFj1RGf1NRrCDWgI+2PI8CmUi0hJzB/qWldT8H4GoVN2TzqIZKHM1JdI6mclb9R3stT0hX/hOJTrFitpfcWlHQLwrj5BPfwE7+tKEGKN/BgmoecUDw8/pnQY/k0xjOgj8NWSkkP4AHpDe4z/KZIV3KEIWzUBwCZNu7Z6jqe6QiQL5e+P3yCU6zGrWHD8+EeACVb8v2NLJVQbwHdBSK7A1PrFvhLPXLWqCh0GOQVrX6+X56Zn0RddQIfTKY7DV/d+Slwz7JhtyuFYt73NBiT9Gzodg87pFVzLJIsONIQb0VHRNilPoHwxTbJAJN1rXaEsw0AiC2tKGLm/ZutL5DS0njORLFlW+oJI5KJ8nuVErEuqSQHfvyl4X0WolxOtyMD7nUTp9u7da3nyAvYOnKPlhQkk504WsbxvEAfWwir3JFdEy1Y1ShundWUnPuqIZJ2LSRJTPBjxBSMABIL6p2ME4wsBNID/QoneQ6P+bzhzLm2odPklm5eDFL2lxcNChNOxirSlr20t7bNFRVvqDjsqD4/ucmQn7bnRGZac87C9zTo8o4183dvbwGr1t1FcdJo/E8nCsyko53+M4kR7WL9Rozri3bjXuiLrXKT1tVpfIq2vlfzxcbHV5ZL7AO8xKOdtVtLq44IQp0HGcGy7EpAM7Il3O6XHEiMZerkNXc8oLaX/C9XZXWxdnp5+ZENp/D1XJGFv7XMltfba3FU81xVMqvkLWzBRGxTwB6Y5FDlWrCHABCvW3liI9MXXVx+Ifhe/y2DxWY6zqaPaKd4OkuUmNViQsKtcKY83ldAgUmXr1KchayM9glmshcNRnW8QzR20cuXK5rj4P/wehGVgoBlrDpEsxCeS9SjKey3OMXWkn3zyu+hso2Ktq0DrSywBjo7zN3ScfaHzTSjvHYHojvd1HdK92a1btz8DSd+rV68/KD067xFW0iM+WZa/09JIotPtTK/dWz2Lcs2kFkoHwZaWfkiEuoItmHYRybKKK8ePbwSYYMX3+zVVOsy2o7Vd5iLypSAhK0wlUiM9X1hYDmJ1ryeNKNwztktOjufewgUNO8qKMApJqHOg45LczK4X1VzW/Xv66afvI7KB0LPqPvF/h/JtQlnpa/MhNPzD/ceOrqfVlZXfgExaHi6yuxTB1Be7dQm1PI1kob7ciIkSd1nND3WUhqY/tppOH19Nb906IiqeIWRZkTvrZVq9xmKjnokU+AiijxtTRyLVFSJZpkDhSAmDgDNhSsoFNUQAnQZ1ADTMR+TqS8NIDQS2LS2euSMDi4QqQi9EbSQ6ZLI8DWwgmeHj6WVFX+Vl5LwMv5Eb3RGwltXYdt2WTC9f/493gsrKyvuTk5M3wLn9VBCPb7yf+7rH8M8vKDd1WItwFnH/qq+40RS+ZOLEu84YYL2ftbMMdtQXO/UJhyx0nNu2bt3aF3vSLUX5BdSXJyzkmwVyRv6BAR+wjKyHT6TlIT4M2W/XvlSwdENQ68sporhfV4B6H+YmZubRGl86EeG9xBClBkXYMkaez6BNDWhoOGxKckYhRYAJVkjhjW7haADOAbl6HVoSufoqUG0nYtPZ3IyuN8GvnIYkHJhdeF5eZs6/80sK3wlEpkupGu8QnReiRWwPv6wuUuODD0NOvRldJ5988l402nfi2Yzly5f3srKfIJGsbdu20ezCxSrJeiUQXUOdBp16I/jhuLP5Het6hTo/f/Ltqi/+8ojWZ126dPkdJKsfkSzgIOH/xawlsXVKSorqCxVY6Ro3bvwXfA1bWU4tgxTBO50OUVSaWU6vTyAKKR67siBU6B/R9aBBg2DYqj2oruCO2pbLgmlbaiUGdoX2wQ0APsA8+pkgg4FlVj/VmcBhqkqywk7w6qvDIeFGoN6XSLgV4PwigwD+8c9Fzq/j6zoocqVpX1C6eTUa8+naPRrjZ+Dw3sJzb+FiRlnZbnwxewgVhiBzfW0GjYbzvxC9s0WLFnkWsnBHxfDPr7AOnA2SOQkk63qr6cMRX3Q4ksKRT0N52F1fGsovGp8TyYKzel/odi3wqB0W96/sXwcPHgzKeqSmtz78JCmeD2jMzK3yr6b/p2AHjbQYuD6kXRudua7UoIL19/rj6jTg8SzOHoJnhBmHxScCTLDi8736LZXaAL4GcjUElpyVfiNbeCg5HRMQfRslwRBfR6VKecRC8jpRC0oK/4sWaaEa6MDqWC/6WpEaVqixIEn30oytOkJM3GD4ZzNIVj+knwhcbjCRJKxRXJWV+qGZsOatZRaq+qLJj6VzmzZttsOKRSTrauByX0O643+sCLsJdGsonr/nqN+08Ogmf3GMnmE9uaZaOHyogq1HLTVZ+OfWzSj0hLovuK7U4oEdJPaAZNEoQW/4ez6HJ0yyauFJiCsmWAnxmmsLiQbwPNzRpseXgFzZOtUf23TsFRXlVi03kKzRY9Jzemj3Vs/VojwGLZK7Y6C1sXaklxk6GWPj5l/RkT2BMtEwn+VGDCSrEJ0gdZoTgM9Iq3raHR9E8WRNpozhV+06EudQ1pdIlMeOPNu2bfuHWl+uAj73+5OJzpWW1bjQXxwTz2iixycm4tWJgv/F2mVOFPGvOg+t3uh9uERjWVxX6oNKJAtDxNTm9gLJmoaz5fapvlQOiRUEmGDFypuyQU/8g5Pj+Ww0+hdinav/2SCynoj8suJ5aEE8lieHqMy0uiq7JtS9JY+gTNLu0TZNyMvMPKr2vvaqqKjoGdw1gc8FzUK0fLRr144sDUSy7kVHcZNlATYloPWO8H4+tElcUGLCUV+CUjCCiVFf/lTryxXA6QFfqsB/7i08u3z9+vXtfcXxF07pQNCuUOX4i1r/mSgcoQVimH2zdh3YuZasiYq83VsG1xVvRGrvNZKF93gSXBEK8IRJVi08cX3FBCuuX29t4dAAno9/8NcQcj7WufKsj1Mbw74rl+LMRQtykCTCX6NHu7TssYFK/7OsZCr8dDV9G2HY4xUjwkabHeMYgXwe/PHHHzMDyQ+dZjGsYH2R9u5IkCxYrg6DwepjEKwHA9HfzjThrC926h1OWUSyqL7g/2oYOs5JRnljHauteP4qNnOmDwDLh5ruFZJjJTHqEP4FhRO1NLLitDzEqKVVz57hd/w/lumfYQ26C8LVtujzDfTa2yE/UDlW0qkkayBeywloW2h5GXo/fMQ5Akyw4vwFU/HQ+A9GA0jDZ+djRsuqUBd5RtkvxRgepJl/7uP/2/sWOCmKa/3u3l1E8AUCPtDd2Qe5io+A4N+QaHTjIorBQBTiI4D4wCDLisYoN7kJonlgTJTwMAGjGB9XI17lmkiiYEyuiVcjGKNGrsK+YJWnLKKwu+zO9P87vd29PT3VM909PTM9O6d/LN1dXXXq1Fc1XV+fOlWFGUx3pVqV3YhrPz+lqlFVUq7B20ifuSSPGRKpEDq0jx49+n2kX4iv/Qdx9vUCg2WvUSdZt4Nk3GjXJ1P3tOUP8n0Gaj8Px/1fZiofN3Kz3V7c6BTWOGgvO9FpVuPvUuC2QKQnJmB8H7+/Suw8cIfouVMYxad02CrH0ULmlHZ2WdVIfNxoMw/xQ2ih36RTXDfhkDHciBctUk1rGLcVA5XU54EDB+7DJAkaRTiNSVZqvHpDDCZYvaEWk5QBL8Cv4eX/AKKMzwa5MlQZfFi/n4EsbKR7vOiPKC6O3mc883pe2rzpX1iX+sdGOnxB/7CudFilcW89Y2PcX2D9n2IMFZq+YNbnbq6JZFGnic7tVuBX6yZNmnFk7Ff3EPKjTX7dzk5LM0tx8ly1F7E2+RFKm/6ivdBEiUnoOO+ya11VVdWBZxMQfgna5eOwVB5nj2O9f+ONN44FuXoMaei3OwHLjySdtWdN23OtXmlc47ezzrj2c55dVXUifsOakzuI1p5ljY3bSQ63Fe9oYpLEpzrJOhVt5VfeJXCKfEKACVY+1ZZHXfEDnoQXNP2IiVxt8Jg8rejz3333oCJHZ0EI3s34T1UnYwFR+nrzdXQOHvATJHyLEkNg/5gSewBlw/s+/qChQtiuaK/B29BJ+XawR6fZBBnVyOJmdCRCi1l8zv7v0On+GPkchxlH10CKhpd/af5T5rK9+Nc6HCl1knU+tJkAHBNmz4I478Jv4Gw83w1L5XvwtbsX9X7u3//+d20JBzrTPYVjluJGtIc92ESY9tfc5bWEM8rL+6IZ0W9AO1RF/q1x7evcGTvLku5Nuua2YkHE4yWRLNQxvQtP1pMmvMc8iuToIUWACVZIKyZdtfAC/DpkLMNLnciV9lJMV6bX9IsbG/8CZvWIkU6VYktvOfHEQ417L2faRgd7k18L61X3qpsgP7WRCqFDOzqlZpT7RnRST+h7FnrJyowL3JpxQ5aJucCzznwQ4AU61VkQNwGd6deHDx9+MEDRnkSFob14UjiEkYlkQS1a+2g88EwgWaNGjTqAtnkT2tNItM+d+PshrBnvIH4nnemewuk5jjqK76eY/VWFhraHUFr03FuGNNW/6EeOkUaRZCKG2gFn+Ve5rRho+D9jJupnINpEsois0ggDkyz/cIY2ZXFoNWPFfCOAH+yleEkvhtP3eCymqVl9fAtLM6HSp+g7sc7oV/H+wJe6XHGw6JD/gMjv+RFLi5nWRqp+iq9zbRgNCxjcg30P1y3bunmzXR4cb58BeRnbv39/cig1v+bt8VLdE8kCntWwlRkreC9Klcbtc+h3CTpU8q85B53pJ27TBR0vTO0lqLLVllddjg2Kj/hMiT6ysrHRxxCbP03QXnYDz7FIvRZnWvH93+2SRowY0YSwhfqf/XFa93MrKo6BAPw+uvtrrH91z/x0l/qQpXGGUl+YchnWAJaXhOHdYuiUr2e4Ihhrkw2Dv+evQdCvR1li+Voe1jsRAbZgJWKS1yH4oV4WFnJFQGJtLPqqn2eAihf+rbMjEcM0bgS7Pisl8p3oOt7VEsjSYdj38BHRrEJ6Dr+mW0BgRoLITHOdgSAiOsktsZhKJKsWnaZv3y6raH2tqweh30SQwQSCaI2byeuwtZegyop2FlGxRAisOc1zyirnz6qq0iw6QclPJodIFiySZMkaB3zvThY30GdwtupSyd+ye99B/E7qOwYNXJ5OHjedWDkMY9YnkQxYXNrPnTVrJpOrdBAVpr0I74EKIll4WiSMwYF5iQATrLysNrHS+IFOxg91MQjWhbBc/VMcK/uhy5obH8TL/m+UM17WfRSp+JfQsfsT26M6IGwdsqRMQ2J9OA2zCsvKbxeJGTNmTBvCp+Dv5/BtGSGK4zYMi7JujUZj50Hr2SBZt7hNJ4oH37AqFH81nl0Ly9XrojjZCAtrewm47EMwrHVHUZfaXFtWuXJ2pOqLAcsXisPv72MQkRr8Hmvgwwera+aPNx//T/qBkTM9HfipyTO7h9a7A/z8H1WkK4x05WeMlPoceui4ML1bDN3y+QxCfgD6X4y/MrQVJln5XJk23Zlg2QDJ19sdO3Z8g8gVvjIvgOmZ/DpCc0AvVYpKs6AQ/Kjoza+eOztS6duqtLhpE3ZwVRcYBcSswfl1kWEjjXvrGb4s7+G+DhaF/8JSCNq0detzL9foWFqIZCHNt0BObvWS1ogLa9pgkKs/4O9O6PacEZ7tc5jbS4aw6ItRs6th2frbnEjlRpCt2zNt1cIOAXuwjlUN6vp8dJz3ZKhcmth/Pvlb6R/PEGc3DvneJU2b/2Tc+TkvkGW4X6nTjbRdHR3zwvZuMXTL9zORLLwmJ+D9XYoPOFpmhi1Z+V6p0J8JVi+oRLy8rwCBuA8v8hq8ALuHz0JWriVb69+B9cdcqgHbeNxTe8LJ2gwqP6rubG6koZdXKS1ZxWJS7NEZ2uypRGkgMk8Am993dHQ8vmrVqrReXN0kK0pLOFwP3G9LzM05BMOC/ZDud4jxNHT6pXPMzD7JRHtZs2aNav+jUtjDjPvMltAmXZU+s4agvZwEsrUQVq2W2kjl83PKK2ek0xatsu3XpaWlrTrJqkbH+XP783TviQRhssdP1/92FX4IKBkOWZWf29lcL7TqeslvV2nFeEiroDRFStGeA431OWuzXvTO17gGyYL+Q9FWVhLs+VoW1rsbAXZy7wUtAV89WHNKqoGTJFlrQnv0bdt/Z1vf/lOgYARdwWCp6CDp7eugBUjh4D5dVtR/oLM8DEJOOUxVaK0s4fAd9gP7DgjWi1iT6A7E+T7+fB+wTHy4devWaky1fhlkRcLwYcohICJ2yPsJEKzNIFeak75vBdJIiBf3VWgvpG+g7SUXq2O7hQHDyUujqvx0kRKbqcbkK/X2QslL8DcevGS8XHSwq7a88mU5Jj8dU6LPGWs9uc0jWTwiWU1NTTVog+T4fh86Umqj3WwoWcIUz2aVl0eKyypoBhr5e2kHyvq3g11tV9Dvwwjze+4/4Kif7d+7V0sejcV+RUuv+JXF6dwhQCQLbYT2nnwW59/gfjqu065Ld7lzrKARYAtW0IjmQB467UA7y0wV4Z7t2/ejwdWa8mVp+ocb/K8gQbMHMTz4bVOeJN1UV1ZpdjaWcElfAmEywqbCH+tK6zM/1yeeeOJHWDG+Gpaxa/AiNJ34nWSBXC3Bs8NyudYV9JwKHe7Ol/bihKWf8PubN29Y0thwg9p26HEYJrwOf38GGTFnbMFPqxiUZyw5xsuq8hEc49+Gdevn2Pty3A1Dh/bzk6c1TSQS2Yu6p7b5JdTDvTgje3/HjWVlA6DfT4pV5T2wNLO9n3DaKVLf9v3jln/44QF/kntSPX7bvLtBrv6NQqBoW4nUtbTnKV9lEgEiWfDfm4g8BhHJwpktWZkEPIOyizMom0VnCQH8IDdmKau0s1ncVP88ptA/heEMsmTJry5fIU1auti33KVb6h+YXVZBX3zj0dko6CgfxVT1EYsaGnbYhcJytAvDdOTn8ALO9ek6mBPJ2r17dzWGgIwlHMzV5q15w+8KBEw9GzMRz0lnratDYrERN5ZVxQ13WfMRXxe1UvjlP/7BpIGRyK3vrFkz7ZXHnu5AkDb0I07TE4qlMDpkpT2tDnv3li37grCo9Gjl/2rZzncJvwfpr+6EYSfEiqPfgKPRFWg7ZyDMID0YZZNOw/1pqqrcUlLStx2L5L6ONvu/qqK8hrl6r/uxcNF+dK2trWMxu/VFdJyL8LudizyQtbujNjLsDGy0fD0miXwT+pHVVjtobbiRl00qHnHVlRJmpBpT/43Hns9bmpqmv//Xv1pmy6q/vq+paZtnQZzANwKwkre1tLRMwobiZMl6FG2FPo7YkuUb0dwkZIKVG9zTyhUO1tPTEpDjxCVq19wuqegC9CxH7du1W/rHY49LZ551li+tYI1RQaiu6YrJb0HAsfTXFZMehmUJQz+6U4pFMkjVO7BgTcfz1ZjNd066SyRgVeZtu3btqoY1i0iWjBfhjyzZScjjKtzfiOHEL44cefon1mder2Oq8mcFvam3o0uL/tT3fmAke1ExaIQRkuysfTun95oYUlYhwRqULBdpaVO9F62SynL7cHHLphbEJb+on9N2MEqXOgHEZSIgPhco97HI6UsTM0C/zpXAODGLlcrTJMny36WY+i9YwzYqqrJx4BF9P0g1jKaTrAswXP1H/I4XY1ifFrAVVirt36konWNQX19WJfkSxCuDfnEHLLivgfjNGfnNq96Ie+Dzht4t//vrBxft+WgbDZ/S8YlcUnRX9yX/n00EiGRhaHkihpafRb08jrZC7xImWdmshDTzSu/NmWbmnNw7AvD5mQFycIf3lOFJQV/D2Ix2HjaB/hVp9e6aP0p1zw0bvrh503t+tCRrFYYGp6LzeQE9FUYh5Qth1Yql6tSR16aH/GTonOaHeER/5oG6upfWRDr99NNbzEC+CB0CyzZv3gql7qe/a0866fC+bQfPwxy6GpiyatCmhgsUjoDYRMjmBfIjRcHKdn/a1qURL1X6CEFb8Windo7JH2MXgzbEa0PjbI/K8oGBxw9ZUH39zJ9t2Pfp6hcWLXoSso7GCp6DVFUeConlIE4nFxWpx5NRTcS+IPs9TBr54ZKm+ifpQwJWUoGK3oLo3bJj4/s/euXxJ7DVjnncqa9lZwbwRfYQwNByO/ZXnYgFk59F/fwn/D3JvYFJVvaqIK2cmGClBV92E+MHdg067Pm0vg5y/iC7uQeb2/1b6lfUllVMRefxpVgU2wfK0gqU7RyR1clNzoub69dh6v3d6I8SVs52kz5TcVCeK8hq5lc+OlpY5lRzOMiLnEOPPGJQcXHJ0AN7927rinZ1eklrxEX+fVBH/Y17n2fS37CI+BSRvWQP/t//fYrcfqf/SXNKS4+XlZIvgCCNwRS9s2AXHYVnCX5ZIPj0Pq1CG6zCuZsYATz4deGu2/RETl9EmVo/2iE9s0AzDJ2CIFinNKZmpEIMShN/IMZehKxBm3p40JbGl+ZjhXb/g+vxsundcrCt7Y6Hb5j1KcjecfQU+W0Y1FwaVBbxGfKdawRos3AsMTMR1s/VsJI/ASs5kaxu07RrKRwxFwgwwcoF6j7yxA/rOhCQH4BcnQ/T8SYfIkKVhIhUXdmwmXKx/C8iWOhOvnRjaeVMKLncr6KDt5T+YFfZlnOQ/my/MoJOhyHIP6UjE2sZnecnPbUXpKP2Mjys7QXWnkQW4aewGU6zZMuWj5DFM/qftECuLt5V1nI6fORHgD6dBBI6HIToZJwjKBCMVMEcIDhtYDnrMSr5KjZs/vPg/n3/lGoI0k/O2rsFbWXZhIlvg4dfrMs4AGf/afPVl7kj9wNqwGnId1MnWc9YSJavj6aAVWNxSRBggpUEnLA8wg+KiMf34PBYja+X+rDola4eNCS4Yk6d9PbvntdEwb9o4c2RyHN+HWr1zoAIlusDL60+8IdZDfK6HXvEXYuEaXX6tNYVZL1y+OGHD4VZ3zdZdF0AQcTe2l4ERc1JkN7O3kTm9GcetJF5l9K3HBarMgwJYqhPOVaSY4MxV/FIWVH64ZviUJAm+HNJaCMY5lGlDkpcVKR8VjXmC2cVl5Rse+/l/1mpytFNsCJ9MKi5uZmsVGYGGbgw2sqi8Zc833bgwLcsWczxO2RvkcGXASKgk6yvDxw48GmdZF0B8UyyAsQ4aFFMsIJGNGB5+CHRS28ekashQ4Y0BCw+5+LgnCs1vfa6RM7u6HiO6pSLF0Gpb2RLMXppgRRdhpmFL8Ih/aewOH3Hb97GWldI/zoIFvpG9SXUH234+32/Mr2m6+3txSse2Yx/79atbciP/Ag9+xJiosRhmCjxB0yHPQ3tZRlkpEX03ZTbaCtLJlzy9P69rbcYaTCi+YslzfUPGfd8Dg8COsm6DCRrFervCcxKvZLCwqMha2JFIDBztlUoXweDgP4CvB2df68kV4RScZ8+0hdvIAOd3qFg+Ya6SKUxTEHhGT/gI3UAjugXw/J0AUjW9/xmqK911R9OqXMw42cX5J0PWRNQj3EzC/3KT5WuENpLKgzy9fngwYM/w0zTi6D/yajHFTjD2JW5w2grS8Zf8vt9u/eY5AqWs//esaXh25nLmSWniwARqj179kyGnGL4ZT1JVvh0ZXL6zCDABCszuKYtFdNyb4SQ29BJV2P7m8a0BYZYwNBRZxC9+o2hIsZEls0ecqovx25DhtczSBYtoVCDv6mYkdXT4bgU1LPWVezSyZMnRykZkSycSObFmSZZhdReCNveeBDJwscUkazPoT5/jXNG3s/UVroOHrz93ppx6/e17pltYilLawcf3m9KWNYsM/XiiwQEiGTBejWFHoBkPcUkKwGiUARk5AccipLlsRKY0VOL4SX6iqxGJ92Ux0Vxr3q0z634ZCdCQkeZ0q/tzu7L7P1PC5EC92rkeD0sWXPd5kxrXSHdjUVFxeN1omYmxXDPbtwQyRoPkvUT80GAFwXZXgLEL0yi8DG1H/pchPZUCSL0AK4DfUdTW9lVXz/v3rHj9rbt33+ZWXZZ+t1+KXZJJpzozTz4IlAEdJJ1OYR2MckKFNrAhAX64w1MqwIWhE64TlFk6tzJob25UKBY2rLxYwxPWC1HN9VWVHw52+UHQdqmb4EzE8QppT8W4nwFVsb70CFe7LTWFZEsWgsLZRmHTpM2qQ7sKNT2EhiAIRSE9nIAatFCuRW6JasoCDWprbz526f+Y8VV0wd0HuzEDMjuAx82KzuPHnDpysbGdiOMz/mBgE6ytGUbyPmdLVnhqjcmWCGqD7wA52J2UR3W2fkKXrJbQqRaVlRZ0tzwGF72f6DM4OGrYOPdh7M9VEh5n3nmmdtLSkqqQZyuBoFy9MmCc/xpiEMLPV4OYvYOpXU6hg4d+jGtX4a4NbAi/NQpnpfwQm8vXrDKt7g6ySJfxDLU84M4p0Wy/vHSS99/qm7uj/74qoBp/AAAG4NJREFUiyXHYEkJbfgdzuy0BMO3sVjpNcvXr+fZaPnWSHR9iWShvVyBd0sHLFnPMMkKT0UywQpJXeAlegvIVS32qyPLVcGRK6Ma5C5lJkjWXroHySpX+rXfazzL5vnUU0/dQTM3kefl8K+i7VSgVs/x9ttvnwBy9Txeaje7XesK61HtAckai3Tng2Td0yPN+xW3F/eYYQHQI93HDk9MIlloXxOg0VDUN83q80yyFpx6ap9lU6c999jsOXdsemN9j1+jipXmVfUr2KIoJ7+v8KDcazTpJJKF0hwAyXqWSVY46pUJVgjqAcMAt0KNb0WjsfOwFcLWEKiUMxVof7iYLJsbzeJr+7pszyo0Co8hv519+/Y9F/djYMl6iJZhoGewXB0ZjXatAVG6H+TqcSO+mzORLGwOXYO01eg0ibh5Pri9eIZsFhY1/WdteeUs2gbHc+ocJiCSheyxeoN0PNrLSpxdkSwiVrWRiuv2RaXtG1/524SO9g7zXY8vhcdiUtfnF29peCWHReOsg0egSydZ+0GyVmM28yHBZ8ESvSBg/ui8JOK4wSGAzvI7+Eq9HpaNagwjtQQnOX8lLWvc/DA6gdV6CWTMKnx4bmVlaS5KBPP7HvKfAiEagmUY/uv1118/AjO9noFB669wil/oR6fS0tJWLG5KPllfRqd5nxcZ3F7coYXhZVp9XZvNqac4HSbR+w9t7/xwTqTyoTmRqouIhLiTlttYFpJ1DNrLb6CNI8nCxufHgFh9d9dnbQ1oow90tLUNMLTHkOAmJaaOw5Dg1Pubm1uNcD73KgSiRLLwvtqHhY5XY7No676Svaqg+VAYJlg5rCUME90GcnUtOVXDsvFhDlUJXdYl0YPXokPcqis2KNolrcpVhwj/KlonayJeWp/CNwsdl/QZrXWVDmiRSGQvrGNEss7WSVbcEKRINrcXESrisMXNmx+RFLUSbWgRYnxqiXU4hp5nwDK6BiRkO/avXDmnrGJy7QknH22JE7pLIln4CJsIxQahvTyKs0myZpSX9234y/9IaxfcKUVj8hYQK1p3bailELtBruYOOvzQU2G1etESzpe9E4EoZp9fhaK1HnLIIUyycljHxTnMu6CzxktyHjrs6eRMjZfntoIGQ1B4rIq9p668fGpMVV7C4yL40fy/3Z+105BaWsRGkJWrIJAscgKe9tZbb9Who3vAWOvKVWKHSDDjf4K1bGra29tfRHtYhHYwF1HR/yce3F4SMUkVsrShoRlxbr65vHxBl6TMwJY1M9COTrOkGwDPuquxifPVcvHBGCxbbwL9dTFJfbWPHFvvd8smi/xAL/ER1gaLxER0ms++8cILqx+dXfdcrKvrgv6qcuHLixYbeZlWOVmRm/EBt6jtkJIH9Q2sjTh8zgECa9asEf62ncLHjx+f8qMrSTHIkjUV741HiGS1tLRMovaTJD4/ygACTLAyAKpLkdOwcnP1oEGDtruMX3DRFjc2/mVOWdV3sbebtrQBrA61s8urNtAQYo7AULFf4S+CzFsnWRdgyPCPGP5bjC/POsiPexHjJfldhH2T24s/5O9rbNyLlDQUe9+cEytPU4ukq3FN2zGZVh4ATtb80SBco7FpMzZ4K5JAuFoQth618RY2W35fUeX3D2n/9IN7tm+ntaqydpB1TVE6hscU6XRYp87GZJjPY6bxcVDgq5oStm74mEhZW1dHx00bX3v1IV40NGvVlDKjNAlTSvmCCESypuH98RtM2FmN8yTck08fH1lCABNJ4t7lWcq2MLOBo60JNqxXnwB7uBe5OogIH+4UEzOBbK9Yp5jhC8cMPQ0T+DMJywCc5NllFaug+aWkPSIdxP8XLWna/KdMlmZWeXmkWJL/XVJlWDgk0yqQyTwLWbbbNpyqvbjFkNrVrNLKM4pkrDclqRejXZ2JenbrMoHhfJWG4rbLktqiqvKHIGA7MAz3CeR8EsUZRtfWvrEDe9sVRWvf2BLqwOJNmzoM/RbIsrKjtPTIImwAragl/dXi2NGSqhyNCR6DpJhaJivqUBC7zyGPUyBgsJHO6XzUccdK5WO+II26ZEL98cOHfwn7lu5wiltI4W7ai/W9LMCGhpdpOQu3h+nz5rZNuxWcRrwikKuVSE+k/GtEsggXp3duGvlwUhsCbMGyAZKtW5CrI7OVVz7nA5xUzPya0a+t83M0vIPOBmRHfQaWiHOWbK1/J+iyGcSqWFWYWAUNbojkUbuCOhv0v7vqhg0bLHXGvgxScw7CxoDJj+hua0KlYfmSNesXhhdxiX/6hyoJVXBPffLBoj4mY4t1xiR05D3Cyiq0Z2jT3Z74qs7tSA7CQNp64oqv2sHRXjvj4ouOO+XCC5pKhg4dR9GOHzqUyZUYL7+hjh+2fgXmIB1ZsmaAZNF6av+N89dyoENBZskWrCxWe4ovJd+aXPvs077T5kvCz3bskH4/77vS/r0wDuDod8QR0kV3zpeOKisLpAj7tm2T3nriSan+1dekWNQ6+SwQ8SwkBQJha8PRzk7p402bpT2NjVJrc7O0t+VDad+OndL+1laQH6JR2TuKSkqkI48ZIh059Hjp6EhEOmb4ydLgk06SirBROh/pI/DgpJ4dg9KX1iMhbG26R7PuK7Zg2REJ/p4JVvCYOkq8sazMNB87RhI8wPBCFMML+wSP8j7IjQnfKGRdZNjImBR7Gfea9Q++Mh+pRWr10vr6D4w4Xs+axUotgo+TOh3dZlyPBfl/kWT5jiWNm/7sVS7HzwwCXtpLJjSgmaw7P2kvxRBemQIrFtrMsTBfHYu8jsIfft/qUbBq4Vo9AqYo/HXP9oM9qi/iHmrohOHELhipPkV4O4Yo22RJ2Qnr2U5cb4NpawdY3E7Ib+pSizces+WDpvnu3QmMLPgMBNJtL7BsHoGNsc0Zm15A5aUwvKDVO+Myweqd9Zo3pfL6AsTMwnMxs3ANCtiPCkkkS4qqF3odLmRilTdNJE5Rr+0lLjHfFBwC3F4KrspDVWC3Tp2hUpqVKVwEaGYhvu4nAgFtNgy++I/HrLBXsJ7R+W5QIWKFRSZXwMfqfaS93mq1IosV/Fqq4UB/Hlut3KDJcRgBRoARYAScEGCC5YQMh4cWgaXNDWsxDENT1GmGDx1HwpT1hznllTfT7LDuoPj/mVjF48F3jAAjwAgwAplFgAlWZvFl6RlCYFnT5pcxX+s8iDfWESuB7/G9WNLhuVkn/pu5vhERq9pI1QNssQJSfDACjAAjwAhkDQFepiFrUHNGQSOwtGnTm3UnDDsTawg9i6G+0br8rxYVdf0LpOpnuC8rlpRpGArsg+fmQUOB7LxuwsEXjAAjwAgwAhlAgC1YGQCVRWYPgcUtm1rkEuVsLPi4BLkaPAqzDNW78HcdAsyZgexjlb164ZwYAUaAESh0BNiCVegtoBeUX18hu252pOpZRVKXglQNtxaLLVZWNPiaEWAEGAFGIBsIsAUrGyhzHllBgPyyBjWXfh7WrOuQ4dtsscoK7JwJI8AIMAKMgAABtmAJQOGg/EVgvvoy7RtGW0LQHx+MACPACDACjEBOEGCClRPYOVNGgBHwgwBv7+EHNU7DCDACuUCAhwhzgTrnyQgwAowAI8AIMAK9GgEmWL26erlwjAAjwAgwAowAI5ALBJhg5QJ1zpMRYAQYAUaAEWAEejUC7IPVq6uXC8cIMAKMQOEiwD57hVv3YSg5W7DCUAusAyPACDACjAAjwAj0KgSYYPWq6uTCMAKMACPACDACjEAYEOAhwjDUAuvACIQQgbKysgFFRUWTZVmuUFV1lFVF3K9DeGs0Gl3X3NzcYH3G14wAI5A+AuXl5bfbpSiKsqG+vn6dPZzvw4kAE6xw1gtrxQjkFAF6uYNc0Qt+AMhUgi4gVzUUiDhSRUXFDQ0NDSsSInEAI8AI+EYAv7GF9sSxWGwewphg2YEJ6T0TrJBWDKvFCOQKARCm9Xi5x1mskulCVqxkz/kZI8AIMAKFiAD7YBVirXOZGQEHBCorK+mr2TW5QtwNPEToACYHMwKMQEEjwBasgq5+Ljwj0IMAfK4q9GHBnsD4K6ulShsixPDhqvgofMcIMAKMACNACDDB4nbACDACGgJwoJ3sAMUGDANOsVuqqqqqRnV2drY6pOFgRoARYAQKGgEmWAVd/Vx4RqAHASe/KxG5olSbN2/e0JOarxgBRoARYASsCLAPlhUNvmYEChuBAYLis4+VABQOYgQYAUYgFQJMsFIhxM8ZgcJBoEJQVB4CFIDCQYwAI8AIpEKACVYqhPg5I1A4CIgIVuGUnkvKCDACjECACLAPVoBgsihGgBFwh4C+SnwNZiGapM7rKtXkZI/0A7D4YtyyEvAla4Cshkz6iGE5ixp7vqR/V1cXDammtPqR7pSe9DcQy5TeIl0pL/jWFdzwrwh3wt9r2zPqzOs5iHbvNU+OnzsEmGDlDnvOmRHIOQL0wkfnMhMd7kwHZWqw8GjiUu6IjNXbZXsaQdwpiGcu5aB3MAuxHISWH/I1RYBs0DIQ1qUgzGd0oaelmY41+p9GTqwyKB4dIC+0wnwrnq0A6VlhnwHZHSvxf4H+5ir1Fqy0Fe7t+UJ/Y2X7VcD0bhHBg3wqN6XXiKVdhq43bT10dzqr4+tEgvJKwBlh2qGvwt8AvVcgX8LIkRjqei830hpn6D/WzdYttDMA4iasTA45G1DO0Ya8ZGfosAfPTUKqx12B9DckS4d6M5YfobYjbDNUd5BPYlZBzxVuymTNE2ntv5HA2r01H7fXev2vRXw7Xq1om2NFbdOtbI7nHgHFfVSOyQgEj8DIkSNl+gteMktMhgB1OjiWo5Pdo3d8piUpWTqvz9BxmXLJkoL86iFD6/TdyiJiY+iKNNTJmx1lChm0zQ9t+bMe6T3laZGrWceowyI5Olb2TssSXbucDMISl6dehvV4SvqbmNgT6vf0fDl0XkvpHOI4BtNisZQ/IrgpcwWVicpGZXQS6rRaP/JxTGOVhTyclgAZRW3RGld0resmwsKRkJMcwsLS5kTp7dlNRptZC+yf8oO9ISyIdm/I8npmcuUVsczFVzInmiUzAoxAWBEoLi6mTs1NB5xWEdCxah0wOiyt44Iwx04OcYXLPuiWFbJa+T0oTyIsTp18MrkaAQCRIGtASiJgE7ScSCV11OjkKb0rMmKRUYN6Stjw1/I87pLyQRnXE6mMe+DupsJOCq3JdAtgQv2gzlLWi05UHMsObFLKAMETxnEifmliQUWfTHWm626FwtV1EO3eVUa2SEnIFcW8gS1XNsAyfMsEK8MAs3hGoMARqEAnRcQkYXjJjgs6eMchKpCGZJtJG0OLdHaUQTr46DDJcvUU0joSQ3s5rPfQm6yElN6RYFjj26+JLCWzLFnjIx/COFk+Bk4JRMkiZ7lTfiANImuRkPhY5NGwaSpim1KGQViscnG9zmlYMx3MLXlQ3fslWYG0e4suKS9TkSvrUH1KYRwhEASKA5HCQhgBRiCvECBnbFhHxlqVRmdOVhb7sQGd2zx7oId7J4JCRGgD8lwHnxAayhuFfMj3SHiAfK1AZ6f5PiFCA+KSr8wq0Re5bqkismEnRWRJos4+GVkT5W8lLUQyVpDlxOjc9fxIN2s8Qw6RS6vlS/Ov0tNr5aWOkSw0KI/IR4n8ycjSmNTPSPdxEhEZwnme3Z+LSK+OZ4IVE/kRdgl+UagjITEjK10KnyURLsjCPFISLMRMKBu1HVOC5ULHwkkm1f06K9kg/RFGEy5Elj9qv4THFEsWbi4DafduMqI49OGg62lv8/TY9COkGz6yh4CMRpW93DgnRoARCC0CIAqilwF1RnFELFkBHGRYkxCpoA7fdHy3Pkx2TR0nyNiGFJ25JkL/mic/JPuxCnk7dpYp9HfsqPQOLtUwIG05NNYgZnbFkjiCQ+WGSnt8417Pm3zb7J0rzRQc7ZQfpU+Sp7CsInzQh8xrbGy829DHfkaaOOd0im8nk6jX0SKyTLKIACFNAvkXpUmCBYkSloke0JHMAgR9kzrzi3Dplmr+77ndi2SKsE7R9pKW2dSOLzKCAA8RZgRWFsoIMAICBIhgjPZDrkgWdeJuyBXF1TtrkYUjlTWFkosOImaOli8iMeiEk1n6WpORK8pQJykiK5HVApagG4gGWaHs5EqCPjckI1eWPEU4OVmAEogx8nGKq5Eju26wkCXIADaOMhBfVGfCZTicsCBikqz+CAtqMyiLkHwjfYKlj9K4PNJq98nySEGuaIalY5tNJpefBYMAE6xgcGQpjAAjkBwBsqY4Wm+SJ/X3FJ2iiDgkJStOOaHjdrTQGGl08if0AUPHnXQZBEMGdE4gH/RMH8YyosWdITth+AwRXFn6dEGiPEUyJegnIoCaI3+cUj03duLUANJH1py4unEogyYFz+wyKDwuvRYR/yGuiAi1gqS5Ihp6HYpkTyYyY+Tj4Zyxdu+CXCUdVvZQBo7qEwEmWD6B42SMACPgHgF0fCmtKe6lZT1mq9PwlUATEQGhaKJOOyE5cNL8shIeOASgkyXCmGDhcSJqIjEgj0KdRaROZH0imfD/EZEgImT2cC0vhNvxoNmaTgTGLoOyTNBZx0JEoFelsuSRQMshIpxunPUtIrovg2731roC5uSzl1D3CEu5NliCohyQEQSYYGUEVhbKCDACFgQa3A7tWdKE6TKhM/eqnNvyo0MWWsCc8tOX20h4bO2IEx7aAjyQR0m3PiWQQOid0NGLyJ9hARPpJyJp8EMSWtJgDU0gQUifoINeVE/1B9l28qeJQRlF5M2GZtxtxto9+c4hJ5G1jslVXBXk9qY4t9lz7owAI1AACAg7LL/lpo6bOmN01gPQ6VmtG9QBmp0gnvnNIi6dwNoS99zFjSfS5EKeGYX8k0TlhM4LQU7Sylf3fRLVHYXFde7Iz1oPmn4iwoQwTR4RTuhnlkO/IBlxxAllo+2E7PGE2xEhHi2aao9Lw4YJhDAhkiWASKRAN7LGORE4S+q4SxF2cRH83BDpRJlEM07J1yuZH6Cf7DhNGggwwUoDPE7KCDACqRFAx+Spg3OSiI6FOvWZhqVC1Jk6pc1xuCcLSkC6eiUDXrJNIFhIrA3x2Ybi7KTLPtRKcqxxrNeaPmg7orA4EpZKcVqSJFUcwXNKkxaGQbV7q246oRYtJ0EE0OtQqFU0X2cAASUDMlkkI8AIMAKBIUDT50GuaBmCVAtpBpYnC3JGwGkITWCxspOjOIsOCEHcPXKsoLo2ctZ9ssx7I9ywghn3qc420pcquvE8LeufISToMz4qiFwJfdXomRW/oPNmed4RYILlHTNOwQgwAllCwLI2UcJ4kkUF6gyps6a/Vei459Gffo8TH0EioBMWOzmioTiTDOkO8nYiEJdG5IcF8maSMgFho2LYrWBBFi0fZNkxteo8ABYuP7sVWGXwdYAIFAcoi0UxAowAIxAoAugwnLapaQWJuhvPaVhEOAQJR2Dq9M0OO1DFQi4M5Xa9OKxTUUB2hLhSfLI+2bFFmBVr67WWhd3ypfthETk2SYMuU1sSA9ci/ytPw4OUMVnCfFixTJ005cP5n2gYk1aQJ/8sXqIhBHXGBCsElcAqMAKMQCICus+VyHKVdEX0REmFFwJyklFLDw3TgdzagTUtWDayRfHIMV1E2MiqZZ0paBIzgQxNDv3n5cBMS9IrznrmIr1ZFhdxcxHlBhDWVagH0e4BM/Hb2cCLjOaiWuLz5CHCeDz4jhFgBMKDgNnZWlUCeZjnwyJhFdFrroGFiLTQ/oUiYhpYufWlHRL8lCxrZ8URFOjpRHASwp1kkPJEKpwKIRpypLggap6w0JeXSMgGZfDjLJ8gJ82AVpSTdkPQFq7FtZOlaiH7Y6WJdADJmWAFACKLYAQYgYwgIOoYWz2sKRXXyWdEwxwLBeFw6vSF5DRgdRPIDojdKAtBsmaXQKTooX3YkMKSyBAuz0Bp6EgyW9BTO3Dw/SKiJiSz3bln53/ocLd13TK6RphoaQb2x8pOlSTNhQlWUnj4ISPACOQQAVHH6EQoRGpmg2SI8s1amD7sJsLE79YuXnRPyBdWngoiSDYhjqRY1z+OuEDGKIEM8qcTkjQjL92qmaATnnvFwjpkaYgXkkHzYQ4v9D0sE8guVDL8sXKoXWFnzQSrsOufS88IhBkBUWdp77yF+usrXeeDo7JQfy+BsGCIOtcB8D0SrpfkRXayuA7DdbTYp93ymJQYIb5d/woMfYnqLqkcXVfRnoOusdCtbyJivk4ng8kgydkz1AUNFcYRVV0Z8seKWxQ2Z0oWYMZMsAqw0rnIjECeIJDg4wO9BzgMQZlFQofitNK1Gac3XcDaQ6QiASsQr9t1oumpuNQhO/khWQU5WIyInHgiWNDTTqRp9qCdSDtawaw66Y7dCUSDsEhFNMhnCfFo1mrCARKYcrPvhERZDKC6gI7sj5VFzN1kxQTLDUochxFgBLKOADo7ocWCOkERySJSgIMWIxV2klkvQJYy1ImOsHNFp0tb5qwV4WWop+M2mbDD3x6EL3fa49BIY5xRF3brEz2KswCJ/KyM9HQGKUopA9GEbcEqx3It8kmix1S+tfiLGzIkbPC3EER1PeKILGer3Pr9WXTI+iXpiPoQlZ39sbJeG90ZFucoX86WEWAEGIGkCKDDo2nooj3XBqAjoY6SLBWGtYL2JxRZTuI6+6QZ5vFDIinAgyxZouEg2rexBs+phHaiUgPcfJccQ3nkZJ0svdPyDPY0pFeyurLrbU9v3qfCgvKhMut4mOkcLhr04TeHx+EKJn8slItwtGNp+GMJiXi4StF7tGELVu+pSy4JI9CrECCfF4cvcqOcxBiMzsROrmitrCl4LrKOGOl71RnEgjpPkQ+StZwGXsbZ+szztW7ZSRieNATBguaKGKGek8ZLZQUz8jPOLrEwojudG0Agp+gWQqc4oQvXCaGoTtgfK8u1xQQry4BzdowAI+AeAX2GVCrSYBe4Dp3MWL1jTNpx2xPm+71OLIhYijpY18UDMfKSPhnGyZ6Z+sCilCyeWyuYKY8uCAudoHspiyFjFdrQaOuSCMaDsJ/pwwQ6OlmqeH2sLFYgE6wsgs1ZMQKMgHcEdNJAHYYxHOgkROtYEN8gV0kXpnQSku/hKD+Rg0qdXNgdyJMVT/PhQdqBHomFIzly67uk5yckQm6tYKKCEUG3YJGq/ZCIVchvLDDMO8uVtfzUBlAOkWM++2NZgcrwtYwfYYazYPGMACPACASDgL75M832Mp2R0ZGQn4wvK0cwWoVbCpzYaZkCp7WlGoCfqxl64S6lO+309lOB9hM3pEy+ZG7JoLucOBYjIElMsLgVMAKMACPACDACjAAjEDACPEQYMKAsjhFgBBgBRoARYAQYASZY3AYYAUaAEWAEGAFGgBEIGAEmWAEDyuIYAUaAEWAEGAFGgBH4/20jbE36o/CiAAAAAElFTkSuQmCC;" parent="tqLEFjUs7rJTjyPleBv_-40" vertex="1">
                    <mxGeometry x="33.660000000000025" y="130" width="128.66" height="56.83" as="geometry"/>
                </mxCell>
                <mxCell id="tqLEFjUs7rJTjyPleBv_-17" value="&lt;font face=&quot;Garamond&quot; style=&quot;font-size: 14px&quot; color=&quot;#0066cc&quot;&gt;&lt;b&gt;Database&lt;/b&gt;&lt;/font&gt;" style="shape=cylinder3;whiteSpace=wrap;html=1;boundedLbl=1;backgroundOutline=1;size=15;labelBackgroundColor=#ffffff;fontFamily=Helvetica;fontSize=12;fontColor=default;strokeColor=default;fillColor=default;" parent="tqLEFjUs7rJTjyPleBv_-40" vertex="1">
                    <mxGeometry x="230" y="70" width="60" height="80" as="geometry"/>
                </mxCell>
                <mxCell id="tqLEFjUs7rJTjyPleBv_-39" value="" style="endArrow=classic;startArrow=classic;html=1;fontFamily=Helvetica;fontSize=12;fontColor=default;entryX=0;entryY=0;entryDx=0;entryDy=52.5;entryPerimeter=0;exitX=1;exitY=0.5;exitDx=0;exitDy=0;" parent="tqLEFjUs7rJTjyPleBv_-40" source="tqLEFjUs7rJTjyPleBv_-29" target="tqLEFjUs7rJTjyPleBv_-17" edge="1">
                    <mxGeometry width="50" height="50" relative="1" as="geometry">
                        <mxPoint x="90" y="210" as="sourcePoint"/>
                        <mxPoint x="140" y="160" as="targetPoint"/>
                    </mxGeometry>
                </mxCell>
                <mxCell id="tqLEFjUs7rJTjyPleBv_-30" value="" style="shape=image;verticalLabelPosition=bottom;labelBackgroundColor=#ffffff;verticalAlign=top;aspect=fixed;imageAspect=0;image=data:image/png,iVBORw0KGgoAAAANSUhEUgAAAU0AAACXCAMAAACm/PkLAAAAnFBMVEUJLiD///8AKxwAHAAAGwAAAAAjPDEAJhWttLAAKBimr6sADQD7/fwAIxEAGAAAFAAePTFZamMAEQAAGQDh5uR2hH4AHwl/i4ZKXVQAJhK7wr8ACwAAIQ3m6ejt7+7W2tmbpKDJzsxAVUzZ3dsySkC3vrtqeXKTnJh9iYRufHZgb2mosK2KlpGdpqLCyMUUNihFWVEYOy4sRTtRZFzV6t6ZAAAMqUlEQVR4nO2da3eqOhCGJchG5BKFih7BC15btdLW///fDohamAmaIFvda+X5WAgOLyGZmUxooyGRSCQSiUQikUgkEolEIpFIJBKJRCKRSCQSiaQeDMCz7fmnMQ6DIpcj5L8i5IlW/itoCuDPSTW1BQ4sm8+19F+gXM02ONCSat5EqlknUs06kWrWiVSzTqSadSLVrBOpZp1INetEqlknUs06kWrWiVSzTqSadcKfkZNq3qZUTePQL9KVafmblKrZMMIiUszblKspEUeqWSdSzTqRat4J0UPVcxK8pm3crSYxbD+7nNP0bY6pihh66DezFk5TDXXRx5dcwA5V1UtQVT+0dePqFYitOq5LE0zarHcuJaGjxd1+uzVMWLbfB+Vq6s0iOr6a7lOtcfhYb4+XG7amvYFq+mX3lujepIHZOaz601OLYevzvRtrNORTlBi+YwbxYPW+bm9bCdv2uv+xmTWCIBGK9VhsJ1j02sPJKGW+b/UH1OX8sZvobvy+HxfEs8rU1FftIh9FOUno6t1pNIbt5+sfF3cAEnommb23oxE8P2G878cu42EVMXyTHNb7N8YFFGUUtXbdP55beObE81dDdINRv0Fr6KG2tomYpjDVVLfgQCEWsl2jHyFDz/YuaEGGkGqd/vKt7PSszUG7dovE1xbrydUrJIwnrd9nTpy4XdJgPzPv7J9G0EP9iAVHnE6azkd09SLt4NdaY7Yr1T3PfOaU2k7jNatTM/j0T21CHXaHPPvOXXEynbFfEcRtNUk8valO9KuMyve7CbuAaTpxF0vua5xHbXd1w8ZdULl7Em3Ka85tNV2e57LXLmrydMyMpcawXW3wa6m0vex+A5izwUS0opzEj7jtua2mydXLP2xxNZWWi0wP+vzNFSU+Wk+8Cce5b9XKK4nO+Zan1KXm+Pyui6ip9MKi6TqJBForLcovZuIIVKmiJCrnCH6kLjWVjV5BTYsUbtBfiDQ+G6/xiakoE1NcTTcSN6gGNc/nC6mpbL28mAeRpooyPHZNCi2/YiMaWW5BP4Usqk3NuVtFTSXnqtpfQi0VZZEOhLrIIzjcDBqK6IIm1aamZVZSc3WevRpGR6hh4kccf9HhcqtPjNlOWSmuyKCpVFFzNIkS8M+chkBBNVuXV90RtFz5SrumuhZqs/MbAoRsB2Pe6q82m4/pvjRO51HTiqabThAcEzRaJwINfkrVnC/XH5vNpt9idKO388xA2bGMNWmte72POfirZZ3mFJ/x8MbTQyf+s2mxDnkNASir309jsxnqum77tMIK8EnNcXvguP5v4sYIwE8NDLaaK9v1fDv5+dAL3pFt1qmzGDOG4cqwq6aNbS0q/n2i+YtFaorP6Jr9QNUJIboTDvHBi1/Mgf2B20fE+3VDqqq5HAQqcH4dEH8cStSMc+3oBpnXyQwwGW7OMqanWYNGxSNJv8wGFsbA9nWJcomGtY4EpnUX29TS8i5dFTVH453q4DgCdouuzlazk//9YA8NmB2vrHeR4dbhN7R2QC87jw8GntC7+ZFRw72TcLvwhKDG+2IsXEFNfeUzh+5Kauqoc2YDBHaSrZ9cnFSmZhMNtsuCh07wsNrjftXxHGSBzHOVypkSH62Smo3/oAHHGIp8wz8rs/xdQzVHJ08nQC96o3i/eMpfliYCIRS9R33QrWqpQyLJhEJdbVdswKemBg8fm4XgWsnMWchAQzWtTE38Lu7BsEhieMaIe+B04YxuqeCMe9U0QselP6tdaz8fA1341ESxwLEZnGUuU/0JD2TpTl44HjdW8D3Gs9v1RbpfCIomlhScco+axKbmrL8sC43uUdODF9sW/UKoppLNBtg/iqFU+JQFp5rGALZEQ251NQ1qfGDnH8pSTU3sbA6KPkSJmujPY/Qa4+674YzV7R5siZ5DVTV17YvhCiNZKqqJZ08w3JeoiQaICL6LjPmtH8Jz2OBejYL8amoS8zCHDRF3qNmEP/4GMpFoRTVTE03pSxw4utDOHa+acDXIQgsvldTU9Vv98ixLRTUd6IvAPqbCNGOmCIqjt3DWTdSE9kw5Ex/Il8UJqCpqhjOutNAdaqI3dgicwhI1UTaOoVR1NaEitagZormNzR1qooD4FdREitTxphs/sEkJd6iJ/lhVTYaTjNSsPG4qaFAWV5M7/VynmhPg6aD5tWTcZISNFNrJO6eHaE6fwdSPsJqsBOIRaw4Kxup800dgFkKRp8G+GM634YiG19/UV7Aleg7CaqqM9PN82/simgtWXuuchWD4h9TMLorajZG/aSNNFpxFCjikQM9KVE1szLwXuk07vVu3NjVhUgPF28i9zy7qoYKZDgxX0H1xJzhJA7kyMG4VVdOBQchKu9xnfWri4QTkglCUlw1hOPWEQukAhh38OSQTzRhwPV5UTRhtzHLucX1qMhZgihXkJWri1HsEfEKCPBLoLpSDe34x6SquJji/kNmuT02chVSignOH1DwtQqGwUfkpjooUKfLOOaWzpiHFIgU5BdWE6djCi1SfmjgxC6o7kZqniRmvgxWfAqPiAeXsykHOVTLNzdxce1E1gTUF76JGNdHwnLDO1XKHUM1V9mN44FTec9M6QaOmMheo9mBZpWyJG2YeBynf4cKnZsHjqlFNnIVMmMxM1TYMQw8dDc7pp2Vx7E0mhy5LnXoQoaO8vnsKe41fifoDYmqaGn+hhdazmiiDmKkJsoOT/HtUo5o4/jvy9rkaLL42uyEaCM5FBmaEW7VsGuqG7muManXLFqnhZDyN61xXEw0dU81Pu3m6papZn/eetOIuLc84q4mXG1KG/e5hs2alZD+FdhMYCzGrLmqiFONpTofavO0OsWF0Zqv+Fmy9uEtNYoiZffHuA95S2CNwQfwWguWbFzVRkHbqm/DP5dylpmit20XNkrGthHehErkGw/m/zllNFzb7PPrppUkPzH1qMgoNrvHrXJTU1jGZCJZvpuGlSHnor5rwLrOkqsDIcaeaYmNUzlWj3HsmrIbYe34061ukHvWiJnwG6+ylYNWusblTzYaPQ49ycmoaMe/9zgSqDS/ofwR652XcLElR849L96rZoLi6s5R8GGHzrVsVq+f4MZo8a4wZZzV9eODs5nJPa3er2aCoHqCUQvVCyLUx5oDXM/kg5oq3e57UxF1wdb7LgHOn3v1qNtQZr9nFRQU9vjn1jn4EgiCIra75uv9JTZwT+336Jl/vrEHNhu5zztAgK0zcGza2vfv2qPtBj2MCsU5qokXBvL10wON11aFm8lsd5qsAW6EEuvMTlZsGdtBXwjY7/fI6LGsyXHf/OOcpHdmSt1c3u6gytHixebQ91TyhHdVATehWwkUvQskOdINxuwNHVKyOYc5KhqThl1nL5z1ISIOf1XoZvY3GVsp4PHqLltvdakA018ntsEA9CmwF0am6+YxG+bOs7Frr3mZhaCZVT9cyekXe4+KFVuDwD/IBSeh6h35rP3l7m0fLdm+hqR7IvOFCgfSXqf8B8yPjYS+s40MUF9t036Mu9fwUz6EmdZqhDdYE8ZLAHNfuqZSq+vdilvD9bdjJZdNr+bZetNYGwMuAw2yH2gibiammm/xAekYTDESjkqDGdmi82W33R5JOE1Onio95J3gJhFFtdoSQ9P/oEMK/taEO4KImrF7IQfT0QSQ47M/SPADkuwtlVf8+JpgG+ZfKnoCPFwRQlcgzIQZ42p/VwprHgPfRMof5p4EWOkT29z0axn55/l01jwCtKPDuBHgCrF32vKVPDwEl6yyhnbwPxcD1Nr/fPHkUYfNKb9NgKLa/P7T5S+is7PL6waO8397GZU420VCM81oORw51wRDz4W9SM/F3l18a3LSdEuLtjgL7eB8K0ZgpRbHvNdRAtv9h9DmgNBfuNojtNPt4HMK7gl4CL45YYsLK3r/PZTfJeL/efIeOaybQsNNbsrI23VeaIs/4tGRB8uvh1hb35qT5lIRRSf5LpJToURB7V2Lt+vG+Jt61f4WvVwrTTuhlGeD9Ex69iJriH9x6BMGKqafIZ0RqQ0BNvM33NbDNLl7rGLrP8D4E1OTdUvF4dG0QFW0t+V7r34Zfze6rOu4phrnIOcfj8m8J/1241exWXRR/EIZ7WSWcOs9y5DjVtAYvLmYjXSWM05TcMH5eZoZPzXnjhdOavxDPWM+eMv2caN7+irNi7e79avvDIM/970z+7XKSNnnl1YvXwlm0r5Ugva0971/pmK+A0aQL9j8xsKL1wpT9UpTjP9jYpJ8BG43G46wsZfqxMKn/sg77i5PWFlDXpZ5zLEvxuP6FkUQikUgkEolEIpFIJBKJRCKRSCQSiUQikfzr/A/HFQZtLdTbeAAAAABJRU5ErkJggg==;" parent="tqLEFjUs7rJTjyPleBv_-40" vertex="1">
                    <mxGeometry x="33.66" y="30" width="132.32" height="60" as="geometry"/>
                </mxCell>
                <mxCell id="tqLEFjUs7rJTjyPleBv_-38" value="" style="endArrow=classic;startArrow=classic;html=1;fontFamily=Helvetica;fontSize=12;fontColor=default;entryX=0;entryY=0;entryDx=0;entryDy=27.5;entryPerimeter=0;exitX=1;exitY=0.5;exitDx=0;exitDy=0;" parent="tqLEFjUs7rJTjyPleBv_-40" source="tqLEFjUs7rJTjyPleBv_-30" target="tqLEFjUs7rJTjyPleBv_-17" edge="1">
                    <mxGeometry width="50" height="50" relative="1" as="geometry">
                        <mxPoint x="90" y="210" as="sourcePoint"/>
                        <mxPoint x="140" y="160" as="targetPoint"/>
                    </mxGeometry>
                </mxCell>
                <mxCell id="tqLEFjUs7rJTjyPleBv_-42" value="" style="endArrow=classic;startArrow=classic;html=1;fontFamily=Helvetica;fontSize=12;fontColor=default;exitX=0.5;exitY=0;exitDx=0;exitDy=0;exitPerimeter=0;entryX=0.25;entryY=1;entryDx=0;entryDy=0;" parent="tqLEFjUs7rJTjyPleBv_-1" source="tqLEFjUs7rJTjyPleBv_-8" target="tqLEFjUs7rJTjyPleBv_-40" edge="1">
                    <mxGeometry width="50" height="50" relative="1" as="geometry">
                        <mxPoint x="400" y="230" as="sourcePoint"/>
                        <mxPoint x="450" y="180" as="targetPoint"/>
                    </mxGeometry>
                </mxCell>
                <mxCell id="tqLEFjUs7rJTjyPleBv_-45" value="" style="endArrow=classic;startArrow=classic;html=1;fontFamily=Helvetica;fontSize=12;fontColor=default;exitX=0.5;exitY=0;exitDx=0;exitDy=0;exitPerimeter=0;entryX=0.75;entryY=1;entryDx=0;entryDy=0;" parent="tqLEFjUs7rJTjyPleBv_-1" source="tqLEFjUs7rJTjyPleBv_-9" target="tqLEFjUs7rJTjyPleBv_-40" edge="1">
                    <mxGeometry width="50" height="50" relative="1" as="geometry">
                        <mxPoint x="400" y="230" as="sourcePoint"/>
                        <mxPoint x="450" y="180" as="targetPoint"/>
                    </mxGeometry>
                </mxCell>
                <mxCell id="tqLEFjUs7rJTjyPleBv_-48" value="" style="endArrow=classic;startArrow=classic;html=1;fontFamily=Helvetica;fontSize=12;fontColor=default;exitX=1;exitY=0.25;exitDx=0;exitDy=0;entryX=0;entryY=0.5;entryDx=0;entryDy=0;" parent="tqLEFjUs7rJTjyPleBv_-1" source="tqLEFjUs7rJTjyPleBv_-19" target="tqLEFjUs7rJTjyPleBv_-30" edge="1">
                    <mxGeometry width="50" height="50" relative="1" as="geometry">
                        <mxPoint x="400" y="230" as="sourcePoint"/>
                        <mxPoint x="450" y="180" as="targetPoint"/>
                    </mxGeometry>
                </mxCell>
                <mxCell id="tqLEFjUs7rJTjyPleBv_-49" value="" style="endArrow=classic;startArrow=classic;html=1;fontFamily=Helvetica;fontSize=12;fontColor=default;exitX=1;exitY=0.75;exitDx=0;exitDy=0;entryX=0;entryY=0.25;entryDx=0;entryDy=0;" parent="tqLEFjUs7rJTjyPleBv_-1" source="tqLEFjUs7rJTjyPleBv_-19" target="tqLEFjUs7rJTjyPleBv_-29" edge="1">
                    <mxGeometry width="50" height="50" relative="1" as="geometry">
                        <mxPoint x="400" y="230" as="sourcePoint"/>
                        <mxPoint x="450" y="180" as="targetPoint"/>
                    </mxGeometry>
                </mxCell>
                <mxCell id="tqLEFjUs7rJTjyPleBv_-52" value="" style="shape=image;verticalLabelPosition=bottom;labelBackgroundColor=#ffffff;verticalAlign=top;aspect=fixed;imageAspect=0;image=data:image/png,iVBORw0KGgoAAAANSUhEUgAAASsAAACoCAMAAACPKThEAAACT1BMVEXxyRH///8zMzPxyhX29/j8/PwgICAkHx9eW0L60CExMTH2zQyjkkMyMjAuLjIAAADNsD17e3oZGRkpKScbITDxzj8cIzXj5OTWuDTy8vKrmEO6urojJzCampoTExNxcXEiIRx2YyYmHSNCNBQ9MB8FABIcFR7VsiD70QfBoiLsxypjUSUTBg0aFx1LPRbh4eGvr6+DdD+OeDTPz8/30C0hGBMPExwxJBTU1NQAABphUBwnHSQol4hrtauLvrkbFCNHoJMAAA2W1etDQ0M6v+4iwLuAx2dCQkIMABi6oDMAAB+ulTHp+fvU1+TX7/YAxvGG4fiaz8qKubEAjXvgwj2Sey0wIRtnVRuMjIxyv1cmkHFit2HuzJOVyoVvwkwAuLI/vaW+1k3u8te4fHOwOH14g7bJ7PJiYmKxly55ZiMjEBI7MSOTgDgUABCHch7Fr0ZwXS/kyU9PSj2njR8jIA8zJSFNQCSyn0RqY0OmmlN/eVrs2ea4d6jGkrbYu86BztiOtcevZ5y10N+UzYO7navE3rzb5tZ0jprt0a1yu3Ov2aROdHuOfGbQoLuQxp8+sdfd0MG8V5LNtrqsg4lmycW85N2tx6KZpXrs7b4nt5vb6KXN3mi82DKsjGCoJ3vEuWWimoXFy1WtI32YTItspVZZrXr80XuOXpiXosSreoeMtnd5xnj78NL757exsp77rQBfsI3RsqWQwtWcWYeneptnlMOn2LCs2ZWpxsVJqEKxtM4AnnKq1V5hyZBxy6awjoO9VHHOrne7jE6qi7QMKCAQ6RYBAAAdUElEQVR4nO2djWMa9d3Ac4HjBmcMJcXjShPJpUdbkgsYCIGQioQ0QGCsNZBYXc2MLTaZsd2cdVtsOts1s32eVuta59yePj7P5nTTbW66Vrd1Lz7+Yc/3+7s7ON5JQiq0/YaQe3/58H39/X5HOnT3pVHp0HXcl8bkPqvG5T6rxuU+q8alAVbg0+4DRWlQr+6z6rhvgxuRBlgZXTaby1i0z70pdVjpdGxmfkUU5/oTLh+b3+felLp6ZVtxOsOSJImjg8mMz9jB1t78bpZ6rFxzkrQn2z8m+p2WeHw4C9bIsvcorzqs2GRQmreyPpcte3plSJL84tiS2eq7N2HVYWXsdw7ZgAzoki+THBwSnZIzsjx/Aq1R3vMecl71WI2HR13KNOJK9M/F/VJ4JgLW6DOyHfdZFUTLCmnpjC7zyMCQH3y9ODBidsm87hGp568KrHTyhixr9NmywxHRYvEH506dsN472rUhvVKF1fmsJ+bn4mFUr8FdGBu37QJbSDbFiuzocyVG9gQli0WMD2TNYIx3vW5tkhUxSLDGvdlhMS6Fw5GxpYT1bteuTeuV7KN0rDFzYnw5LjnD8aHBXZnamZeuxtwdFF3N2Vr71WHlrMpKPY/RZ00sjYnhsDO+MgjJWPUD6jZ7lVuWwkdY3hh3p1gpV8IarbbsAFijP26urlk6nc5XELRYXSm97ZHS06pCFtxZVuQIJLEfDkujmeqw2P2jY4oMDEI8uEN6xdqW1dOODY8krOoF+k7jAmPNfbWyVRvUKe8yL2u/NPNAVVY6dv8MwxgYRmIYxumMnD7Z+HVuRVibKAmySE6nOJBQTuv7ttPhHPA1fJwmsNIcgM3EpVNVAQCroMAIAmMwSPDHYel+3thxJxp59ooh+HCEsOTE0zsjSfmcvj2OkDRwh/SKNWJ7VuEAOta1Ig1WPzmwYhzSAIoz4ggxhmCSLff4zZe9osBIw4ODg8NjoGEORjSTZPBOsmIz2RcSWhUGVkPh2qxCBvGkz+VyZZJjltD3JDz4trNigZUjfhIduTUxFmaYcD+5xjvEiqSi5pWhcPCUNpCAXtVghTYIurSfFJBsZsDAGMTk5kE1vCeyYmbIafGiwWuNkU/Yt8dwp/TK95IlxAhiUutw6tngDODZK180e0JkBGe/WhphTa5tcmWh6lTsW5nQqcvVK0cfYGRlK9ZWWGxpvbVX3C0E98v669rjNAhj5J5Ar4TtZuXDhj7QIRFCmuBc0rDSuYYaZdXRYY0wgjRuJFdgtJqTS0tL2UTGKNukDeQ7yqX5zGazTcficjZjM5szOoLHaE1kYRczyQFwZUbeDhZnbUXnBVaMyso37GSkPYpeNZlVcY2jg0s2j4+NQ8bJuuIC6JVi+8rqRljtV1i5loHVMLLSWUdG4zNhvz8uDi2RWzcuBYfEZfnMbLI7Eu+2EV1h+0Ux+AKppKwjQ6Lf7w8GR5Mwj+xOdUciAz7bmCjOLBVdhMxKvlPrqAD+ilxC01lJfS5lQ9VLiZIkRQCWK24QiBVtjhVrFSHTGsesITEah0wiJICaCuFRM6gWm5gx7IzLBZNxKWwIkYjJ6nxjOx0z+1HBbGNxyD0sErwF+30yKynEDH9n2RJy+EeKMhGFFcq+XeC7RPN2sNIlxWE50inRSgeaBumkc9Coc4mOEJxsQ3oFcXDGJjcOsuZgiAkv4QQYY0gSV8ZW4hJ42xVUIeuKQ/DLrtA3FhLIRwKXsFdkHMsutDdAYogP9M8vh5mQmEWlM56C9GnwEacj3DezVMIKfTs4N6M1uQKf1oh8iU1m1WHM+BRSvgw2uuiMYO/w+c8ZO4AV5CrOjdmgQ2HVwfqGJQcGRTaz7HQI4rjZBRF9oA/4YSptHAwL4XHiF/fGQ5BKzmG8ZU8EmfC8D70OrF5+2Qd1e38cAgzqPugVw3zb4d+TTY5kS2xQcEjz4A8HR+PM6ErWqNsWVvnbNO+JxPutKivDmMzKsEFWQSEk2iDaGY2Zfj9oCzhZY38YNCTrQ9VgrcNhhzCTYLGzzREaJXyyYcYBOBAxbMvMnGCRmeAQzftwtfW0kwlmWYUVojRCSC06L+qVwemUwmAS0nfzlVUTWWnLFzYz5AwJ4imjwkpSWKG/2phehYayiUQiuTQ6GnIwkQTLWofgik8rDV9sBhIJPATUcAYmiNZoHHSOfn80FAFEHb4BgxCB4tw4bGFk4wdYyXiIIap4Cq5MGnCxZQM7kRXYAvxCMPre2AsZORlpNitIerAVg80G8VQrrrxe+dhN2SAjOPwQyvxOBnYOgjWwCchPUZPkUxrnnSHDiotgYfzoh1wrBtE8Klj696E5Ms7TcPwMhOCgeR8oKKvbl1mRhCEXUTpHSDxRoQGN6NXo8uhyRJwBG3dGzMbms2J9ycHBLHxm7EgYdIiJ72WNpxUb3BQrJA5ZGX7Kkn/lBEQ8Y9ZvMKxk8ptk/RCn9uJEGLIvMLdE3DngG3QykGuzJ+JMOIvLRCbU90CSyIkHIPcIQtJGWC1XahJCVvGXsbKyJQfQopczeHfN9FfwKY+ITmkGyhjjiJ/BkmTvVvVKcISc4hColjg2QkzB2C8Rx61ukhAF9E3YfmNgIMNil6Rwdh8QhAzCuCQZ0G+xL8YdDkMc06uI399nyLNiQgOV2u6UGoekPFbwkxB+jc1mxWYiqAFwGhZYgUpsnRXjcD6P2pCwyQlkBzsPKdJAwTHux7CG9+UbZZgZM+ubk2DWJobiSda3x0lSbvZFsGXG4iQiwSvPyjlcqTkK46DCCmAtGxiHhIGzqXEQLxwknjQiK8YQiqismE3rFSPaiJ9Rzg6ZuBOPlt8kEUctwU4PcNXB5D7w8aMu1jUHQWRfZkjow4ycfTEoCML4vCLj8+Pjig1WY4W5KCufEcIlWCRG1SazEpHLTJJtHitiRJo9wBMahBVrfpNdMw7ir9A5YYaVjFvmIQL0h8N7jIl4KE6iQAI2WskY823oPiTUECvI3OHDEYLbxSreRFaMIV7CKgn2JCbUeSgLBIm4Lzi+ICxbxyVIqHSQUIUjmSVJIA1erC1uUKjJ90CmGmTlG5AEIY6fxvbYYFP1an9xpIKMyiDvRNoRVgyChBUKGMtwSFg5uWyIW9FziiHx5QEDSeV1YJKMYBkvOVFjrNiT2DxCjH47WInbaIOkPAcjzJJklPWNO9GjyXryImQI88LOYfm+DOFTo0L8RVL2QDnNGFaSagJrJb0NyEoYrhEHsV7wJcYgbIrY0N+GrCDGQQkTPIX1oPl0+HtCfElhYAvCCpJQwVZA5yXIJjARg6TBBiWwI96fQW+VSb40ztZj5XCOQPTdNTIccYag6mh+W1/zWQXLWGGREgwJgmVlbs/ckANy+NNqgxnoEqM2oEB8dGC/hlzJs8YHIlCL9q3sGRzeMxT3z2v1qlxQrwRnHBKyPgkM0D+aaX7fxJ3QK2xMScKHHXIIToMAaAbzMdG4BGljaI6gY60rAC4stx/gPs9HHEBYsoCjZoJ5VtX9FSaFBkMoFPKL81a1HjQ0sZ0Bc2dhQ769Vns71H4RMRjZX1aFsLbxlZmw5AzPiAPJws3C5kExqBzfNxAUxUhhBIAvMRARw5IE6jK6lCG3fioSjwxUGH3C2iKwqxgMBsXI0MCSTd3ExwQjwbFm9aVC3g5JbtDM6pqhV1AHYzN6hRPiSNRsf/9IEgehFroncHOzYpFsBvfVgGR95uQI7mMm7WpwI7YqR5dPSyRTNER/rxkW1RqsUnr9tbY0ZrvDYXFerge1rDZX4xC3XP65y02u2CVjLMzm9yB9EnIOpdlXHgBGQlv5PuWnxfPmdy4+fs0di6+z5hAg1ndifHwXhBaFlVhfryw1WOnKL7VoFVu8Wle8Xle6VrO+NitdyZE2KfXaRVkjaeqB7NohMNKQq9DWl2eF3XdQhZCjuWqNZ2h3abANmXUth6EwXPJVYtWhy8xnzT5QcqjeSHPu3SmNtrcbbYPLoyO+joqs9i3NQATKmm3PrwhxW/2DtanUZ6W6Vp/Vik7DOIw9ANIcYRUykM4oCO7xcNgpin7sfroTl/2VyAaeS1WKr0E/sjoNrOKkjx59u8514tSyKIXFoWzj6UrbyYaf4cV+5xADSaE8niEfB3F0wQtJHIh8h0Y23nnZ+PPOrHl4bjgBSFzBvF7JghmSbitBucVlE8+Gg+dCQ9NVGCezLaJTks7NSJMvZNNqYDwdNjCGYGJbWcH1sda9ts2K1dhENd8cK3kfHL0jZrc59dSxL3fu3LTsfsTVPFhb+X4G1pVI2rYd1QMzXZ2bFNhx99eaF5i39l0Wd+Ax8cxDXZ2bhgWy84GmPYDW6t/7wb68cwugQB78ftM+zpZn9YPdW2T1taZ5ifusGpf7rBqX+6wal3Zg1WOpLoYa62Cl4R5j1bPDvmnx9LQmq00XbbVkH7DqdXvcFF1RKK/H66m4jgt47A97eUsrstLtM+96oPmy64cP9vRS+k0IT+t5PdeSrHw/nNm9HRI1GXopejOwUFqSlfGRnaT+6mqymKIm0CtvZRAcr6c5N/xWWMcTzWpJVq6HtlS1VRWZVaASKjrQ+0Rvr9fe29vr6aVLVu3w0vyOAN2KrFhzoWzraaoQVpVtUPHiPL6VrOJBrfQU3+qsunY0VR7u2aRvl02xpVmZYhCsqUbFCymQt+YWHsNdzMq0wTurHeNowqogtOYvXQFtidxlrOqQJKw4LhAIuN3wG/DClJeD9NMb4AJub8Ct1VJcgOv5tmFVIYRX5kCjVpG3qtql6BXkBxzn5jT6ReMSfYkWQRbBu4uWtDore2OpI9cbcHNe3u52e0FjAlVinWKDwBT4aDGUzhOApO5pJ1YN6hXtsXs8T7g9Hk8v/tZiRfN6il4t0aJGpOVZNYZKzo+ILlA8Va2MUW0Qtnnl64dSMoEzawW/zulVyySLeI7WU5BeQYJF83cRKw0Ru6c2K6Qgs1o9kz6kYcUHwElpFCng5uHHywfQ9d+VrPTuilWMllXuHLLiz/7o1XNnP/0xzykS4Oze/Ay4dq+d8+IvBwHR3QasaNnPUoqF1Rbis2mq2paUympyEljZ+RRPpACT4znNHBY3WDLreT05asuzojB0w13Aldf3vuCI9LWSStm362nCyks14N/BgfHqiVuflZeDysUe8Nprly8yK/BVnnqsFK3jOT0JmmWHUHIF+cXbMWy2CyvKzYFv9TZQg+CNQp7tra6Asl7JIZMHjeGIBdLE7jCTKFDKmy0g4pXJNmCF6ThdlipWZkWRtL0eKzINCYEXyxpS23hBOFWXtC/csH1scCNSD2ihHkRMZXtrlEk9FuZr7WODbr44rBXflixHQS6R++PpVDqV1tMVhVLrQTcEjABHezxej91ul0+gjbRaM2wnVqVyfhqkOILRT4NME4QcPTk1NZWTb7ayXikCEQ4zAporc28llWIbseJLIvv000eefnq9+OaOgEwrd4ms0vp0Ol3BIO2mLrnGWV+EvIn+sZf4KbvXo6curNsx2Mrx9nFYHLCDF7MHqLZiVfK5A6sjT+eXyYHr6VJWOXj7ScxQKqZYzGSwRD2Uff21wGvVdIkuXuDmwP/z7VDjlMnHT4KkivXqKZCLJayiDlOVziCT5bk3179pfy1fD+TrAk2BQCn5A6QKEAkC7naocahAsW+nJmZBVFYXLoGs63HRRDGr/3ipS0FlwuOAFGB1Gf5zUWVVUYriCAd5BWkabH1WpUJY8etHpqePHKWOolevyOqlvFJFTZ1RFI1mdXWhXtFuvkKw5N2Fz2Xt8mV9W/krfbFHIaz0iwjpPHXlqYsXn6rE6vW5zlqsHIHX7G9QFRMy9Ezq4stXr7YbK0yfjtL8+uLi4jp17eDBgwupdXRRV6gDSOk6XZNVV5kNghHymDOU5+gKKxnUmTPtxgoEdegIdQH/XKIOElbpCZAD1LWFhYWJHI0zjxE/wxdYEUBdphLpwiXIiucqNt0gK5nbK1evvvnTn+oxEMtrWp8V+PaLKNT12YmJ2cMqqwX4c01WshyNMwcVvcpNTk6m0n8e7Yx1ql38oFKxWL67vzMWNdVmBfLq1TPA6tL0dFvlokAATWyWuv4tkFJWC2WslPvq9tgDnNqMw9ntvfnuK773id4+YoMVi2XUK5q6evWVt372s3ZjBbXdAgr19i+feeaZdygk9vNU6ufwp6JeyeLutms6CnGkmba5s7cvwHvd5WkVKZUD9FVQqk/O3Jo+326sOJ5GEgdphdUv4M8v6UV8/wX1Dix6ZpHG91+U6JWmY9Ed4LlAvvOM9gZ6u8EHERsstUNKv/bmKrCanj7afqzQMlCVvkW98V8gb1CvHjt27AbPPQvyU5XVf6PUYGX32O0eLs+KQla56/KWJWFw9caxy+++az9fYCW39bUyK8y2Fb2i/geFWvvfG8duXKauElZwS8duvEKdgZljq/obN24cu1qdldxEU5hDVulD5yiN7ZEfil9bW71x4/L09CUNK37xI7KydVlh9giwSPc5AjlGreH7ZUWvVnEGWP0KZJUGcDVZlQjV28dNAqt8tw8lo6LgqG8+9eubeVY333tPT330m9/8ZrGFWZmiJjJkkbCi3kehct8AOUTh+zdS3HGQD6hDOJOjceY4YaW2RgErqrqAXuUOnaO5Ik+19sorb/7zt28c+fWtD5HVrSsXjz46MSGz+mYLs4p2RmPwS/J2ij6EQqXxPUdN4h99Ct8n5Zm0soG2YQ5ZeTiP1273euxu/FPCijp7jipoFKJYu3rsjSPTl478Gizv0tGLRw9MPNYerEzRHrDDTqV2dnOYHUEww0t2yyN9ODeqEEdSR71bziDJoLMA9rN7gRWNjcU8z5EeUr6UFa8+EkB2WztzZv13v7swTVh9+OHNxyYOaFl91MpxENQq2hWt0TehjV3qArWVjib5FeIMeDkcYlTaTExYcVS+2QWKv0+uIqjp6QvgryYmHtew4j/6/WIr+3YTOvYoyRk2JYSVhmXxSpUVpbA6Q6qZC+R1c3b28WJWHNaD+tZlBflCNGaS8yu54bJY9OoiqspiZMXhYD95uF/h9fuPaIyDbndAtkEK1v/h3XdlVtcnJg6XsSKN2C2sV5q83U3zcsAqMjhlIDqOjNJrF3NKTyqJg3p8yQmUntyunvr9H/+4SFjxnFIgXj129db0h8Dq8OyTh9ubFe3txVjmsXu0/Tk0Zcdc3O61e3rtWlZ2ZYw3suJoKt+WDlPXclpWZKQVvbq6evTorVsA6uMJBFWJFcnbW9kGK7Uh04Xe96rt5OrAYWQFupfPPv/6dfpsCpXxo0XMRbvldgb6t7/98fnp81fe+/jRiaqs2kev8pJKce76rCA54GmFlZ7YICyFm/1RWrZB2RiR1Tmscaanb3383hWZyt3CKnUWW1+unU1rWOFAD5zWEyD6YoTo23nCJf0Z/SdK3i7/ghon/cE5MK2L7115bPaxA7MTj87OHiYvmHh8dvaAvPTA7CzYIBbdfHuwAgDXD6pyliqkVrz3Cf4JPd9rxzHIJDFXWeUm/0x8e3p1UUFLF7Pq5s998BmwSkOeyqVIusrpuTTPpVNee4rM8imygpZzhjZhRVGHEVLueu4saQvNK1CAswfsPNXr9TzhgWqG2CBJ0qlDU68vg2/nyY/84nk1hecIq/Sfr8P2kDdAwo99yhy+0IfBy62nAiSvItUlbE+TEbftwCoHhOTO0xRYYi7Pivf2cgHe7uHtAa8bRx6gWWKzJ3X5V5/0EXYBLGV4wgHu262nA+D+ZX91/bOijmaIHJWHpbbX+KtrKiqcTvP5Yqb6IITLr3xKWHFKYaxXaWFvjJK34zgZWruzYqu04gxp9Yjt0y5K1CqHwYzHUf7wKfNU1Tio3hXEzNI2maI9lBrnYQ9maHY7Te2we70Bb6DCgdtLrw6Tbge7l/PY3XVY0coK8FdDSj0o56ElZqXoFSb+enJA8vSSu/JA0zbSK/4a8ecQ7ty9aBHooquP2XBz2HJz7i9/ARuEKdjaXfK0FtGrPncgwPE1hXPj6D8U9WStz0qfSqG3gjvm3HqiInq+GitVA87c+NWXdsrOez04brZ8tDfWOLS+Niu3G2FxMrD2YEVTRf5W06BAVXhCQjWbVWzro9zIyc6XmyzkonWfLOA1LPXtwYpy40NWbr54KCQODMUvTXDzRRhKctGqgv4qv0cVHS0ZT7iqbwNW+K033kCvvejeaRojmNvOFz8MDghJwinnoto+r0KnMy33eREtTOdyuXSlB32oonFs9Oram3/gW58VDQ6n+BOWbyRAHkAt8UTyswA8LeeivNpPc+H8+XVlch2H2ih6lcphXgu8ikdUUtSi5kyUfnXNc+HSpVvrrc+KqvggBEKh89Wzelt5c1pTclFFLjz1uTpwef3IkZsyK5kU2Qu0S2Phi+8s5qdBo95669KtmzcfP9AGelVZCBSI6kr3eWn+nUrntP7qs9nZ6+sXLtDnz99Kz84+Tnx7npS8A7FFPMLbbxdIuQPrb928efjAgUcfPXAg1QascIyP9nnJVEp+roHDAa809dn0tam0CkmtTGR/BQp14QK1uLh4eGEhd/Tzz/VPPvmxyipdIEvncaUW3347r8N6/rMrjz8qc8LfNtGrlMbN5qamlPsj7Z3XZ9+7NjWVwjFDFMlFMQ2j/nr8+Ciyeurzi6m//e3K9YMLuWsLCymowdMLC4eBlV+jPRrju5DTaGiZ5bc+K4jdZ1+fBJcymcpNTU5NTR6aTMmsIFnUX7n22FlYxssPKqu3J+eiFLWwsLD497+/c/327fUrt2/r//GPf6Ru3z5M/NUi0CoKfWB8NE1ssax7SJHWZwUylZdDk5N0ampSiVAcR//7n59+AKxK/JVeT/pSqdu3r/DPPvuntX/9a/VPzz5Lf/HFv/kvvnhNiYNaH75YcFMpJS7SZYrV+qxAr3I5Oo3ZUErJ1DX2ARp07PUptWlZjWa8PoD9ONQnn3zKHz/+168fP57+v/ffh8m/rL7//lo+F1VpgY5puZCaigp4yTOemgDZ+qwKgs9uF/tjkFdv3Hh/Up3Ps+IDpA05dy7Hg1WhquTkX4h/ObqQtyOltyv5LvIdKSVfm9JOrHh9caFDWsOp1bVKpZ3cfkXrSx//pskxCjUO0qpEqvgDaQdWnZ07Hq4rhU2ee66wFHLRSv650H61cWl1Vn31pMeSn+z22Hu7lWmTobRdVB2/R9HUBliRHIRrD1ZljwCWSE9nT3662+vlupXpTmDl5b18gHe7i7/4BAXbZGpJfrQ3zXMBOARN6m+3oZVZddVlpX2Q0hKL5rdHVhxPvg+MDwRKG0Z7e3q6K4mps0+dLJ/obsXvQ94AqxiKhUz2RZ8j0oczFmQF9ZzX63V7y1uyens0BzaZ8orJBR7uU2GXn/rBFmfVWfrskVY65SeTlKeUlMdt5GXRUn9VnZWhx6L87Xt4hwIeZso/mBZltdWvYjVFLaT9inQtpEpa1mlkpTIxxDo7o2TCIitmXmELm8hiaUlWtoe2iKqzC1nJqWlqEh/8KtWraP7TKDxaaOqByZ7SpVppPVYdvliF69wgq/wRvoxFo19+mV8T6yRrohV2qi8tyIo9ObNFWKao/A8AAt0WRjJ0xhiY7jHht/tHcXlPZVamWKztWIHH+u5DW5MY5l34oEoPpGAxEtQ6Y+QNo15lVgC4jr61IqsO1mjdmph3AqueaIywAkFy5M0Ug3dTRSYxYNsZraXRLclqq1IaHkyl32tRiVXUFDXFarP6/t3HSlfKijw0Vo9VLFZPr3Y/v69pl9iirPCBsS4thK4q/qoMaYla7bbejf/PC/8jnEZhZMetYfXgzor/kGJn5cWyPBTLNO8fuLYQK1+nVkHwqU2txpi++/KujctJH1vnX9VvQFqGla6D/YHGCE3ohzSpU9fMyX2b+f86HU38X7ctwwqEff6h3Q+qsvvB2IOauYd2ffX/Y7uVWEHa8EgV+UHmq0fVWqw62H3VhG2B/xvdWqx0NR3xV32lrcWqhrTAhbbAJbSN6FDv70tj8v/YLPNnjkPn1AAAAABJRU5ErkJggg==;" parent="tqLEFjUs7rJTjyPleBv_-1" vertex="1">
                    <mxGeometry x="640" y="30" width="167.5" height="94.11" as="geometry"/>
                </mxCell>
                <mxCell id="tqLEFjUs7rJTjyPleBv_-54" style="edgeStyle=none;html=1;entryX=1;entryY=0.75;entryDx=0;entryDy=0;fontFamily=Garamond;fontSize=24;fontColor=default;" parent="tqLEFjUs7rJTjyPleBv_-1" source="tqLEFjUs7rJTjyPleBv_-53" target="tqLEFjUs7rJTjyPleBv_-40" edge="1">
                    <mxGeometry relative="1" as="geometry"/>
                </mxCell>
                <mxCell id="tqLEFjUs7rJTjyPleBv_-53" value="" style="shape=image;verticalLabelPosition=bottom;labelBackgroundColor=#ffffff;verticalAlign=top;aspect=fixed;imageAspect=0;image=data:image/jpeg,/9j/4AAQSkZJRgABAQAAAQABAAD/2wCEAAoHCBUVEhgVFRIYGBgaGBoZGBwcEhoYGBgYGBgZGRgaGhocIS4lHB4rIRkYJjgmKy8xNTU1GiQ7QDs0Py40NTEBDAwMEA8QHhISHzQrJCsxNDE0NDY0NDQ0NDQ0NDQ0NDQ0NDQ0NDQ0NDQ0NDQ0NDQ0NDQ0NDQ0NDQ/NDQ0NDQxP//AABEIAJYBUAMBIgACEQEDEQH/xAAbAAEAAgMBAQAAAAAAAAAAAAAABAUBAwYCB//EAEEQAAIBAgMEBwQGCAYDAAAAAAECAAMRBAUhBhIxQTJRYXGBkbETInKhIzNCUsHRFBZTYoKSovAVJDRzsvGTwuH/xAAYAQEBAQEBAAAAAAAAAAAAAAAAAgEDBP/EACcRAAICAgIBBAICAwAAAAAAAAABAhEDIRIxQQQTUWEygSIzFCNx/9oADAMBAAIRAxEAPwD6nERIMEREAREQBERAEREAREQBERAEREAREQBERAEREAREQBERAEREAREQBERAEREAREQBEwTNZaAei08xEAREQDbERAEREARMSvx+YhPdXVufUJMpcSW6LBiBxmlsXTHF18xObq12c3ZifTymucXm+Dm5nUpiUPB1PjNs5GScNjnQ6G46jwmrN8o1TR0szI+ExQdbi46wRN87otbMxMXmYKETEzAETEzAEREAREQBERAEREAREQSIiIKEREAREwYAmGaeS0xAEREAREQBERANsREAREQCFmeK3E06RuB2dc52WOdt9IByC+pldPLkk3KjhN26ERM1AqBS7hAxst73OtrgDl2zmiLS2zEn4AoFLFeiCzudQoHCw6/ykXEYdkIvqDqCDcESPtBX9nhFQH3qhuevdHKUtbYlLjFsm5znbJSoVEUAO28R+5a+73kW8pf4asHpq68GUEeM+XYjH1GRabPdE6Itw6vWd1sdU3sIo+6zDwvLx5HKVfROHM5Tr6LDNcWaVF6gAJUXAN7HW35Tk/10q/s6fm35ztK9FXUo4upFiNdZAOQYb9gvz/OdJxk3cWdckJydxdHN/rpV/ZJ/V+cx+ulX9lT/AKvzlJnFJUr1EUWUOQB2TvkyHDWH0K8B1/nOEecm1fR5sfuybSfR42dzZsTTdnVV3Wt7pPVfn3y5lbWRMNRd6dMAAbxUEi50HbOe/XU/sB/P/wDJ35qCqT2en3FjVSezs4nGfrof2A/n/wDk6jGY5KVM1HNgAD3k8psckZJtFRyxkm0+iXMTiq22bk+5SUDtYkyfke0zV6gptTAJBNw2gt2QssW6RMc8G6R00zImYY5KKF3NhyHMnqAnLYjbV7+5TW37zH0ESyRXZs8sY6Z2czOMw22jXHtKQtzKnh4TrcJikqIHRrqef5zYzjLo2GWM+jbE5nNdqTQqtT9lvbvPfIv4To6T3VT1gHuuLzVJSdGxyRk2ke5mVOfZscNTVwm9vNa17W0jIM2/SUd9zc3W3bXv9lTfshTjfF9hTjfHyWt4nLY/aw06rp7IHdYi++dbeEjrtoedH+uQ80UR78E6s7EtaayZXZVm6YhSUuGFrqeIv698k43FpSQu7WA8yeodsvmuPJdHVTjx5LokROOxO2LXISmLfvMT8ow22LX9+mLcyrHTttI96Jx/yIWdjEj4LFpVQOhuD5g9R7ZInVNNWjsmmrQiIgoREQDbERAEREAps5oEuGHDd1JNgLdZldUoFVV7hlbVWU3BvLvOcv8Ab0Wp3IJ1XXTeHC/WJSbM0nNGph3FmRtAeQbhbs0+c88o3I4TvlQp7qI1V+gn9TclE5HH4x6zl3Op4Dko5KBylvtRjgWFBD7lPpHkz8/KUBnnnLwjxZp2+K8Hc5LUNfBoDqyNu37P+vSUm2NYHEBBwRFXx4mWGwlXWonL3W8tJzeaVd+vUbrdvWXKX8E/kvLL/UvsiT6PslQ3MIlxqxLeBOk4zIspbEVALe4NXPZ1Dvn0tFAAA0A0A6hylenhtyK9LB3yPUwZmYnrPefMM+/1VX/cafTKfRHcPSfM8+P+aq/G0+m0+iO4ek82H8pHi9N+Uv8ApA2i/wBLV+D8ROEyCpQWoTiACm4bXXeG9cdXjO72hP8AlKvwfiJwuz+WLiKpRmKgKWuON72mZr5qjPUX7irs6jCNl9RwiU0LHgPZt+UzttTJwoIHuq637BYi/mRNmXbMJRqLUWo5K3sCBbUWl66BgQRcG4II0IInRRbi09M6xg5QaemcHstmFCnvLWQAsbhitwOw9U7LDYalvCqiJcrYMttQSDy7pQZpsihu1Bt08d08P4TylLs1j3o4hUudxm3GXkCTYEdRvOcW4NJo5QbxtRkv2bds8UWxG5f3UVbdrMAxPkROi2eyWmlJWZAzstySL2vwAnLbW0yuMftCMO0bgHqpE7rKa4egjKbjdA7iBax6puNJ5HZuJKWVuRTbVZNTNFqqIFdLMbCwZQRe47tfCV2w2KIqPSJ0K7w7COPynQ7S1wmEqE/aUoO0tZfxnL7E0icQW5Khv46CZNcci4mTqOVcf2Q9qv8AV1P7+zPomG6CfCvoJ872rH+bqf3yn0LAVA1JGBuCikeUrD+bKwf2SOf25+pT4/wnnYQ/Q1P9z/0WY26qD2aLfXeJtztu8ZnYYfQv/uf+izF/aFvP+jms6t+l1L8N/W/VpeXmbJgvYNubm/Ybu50ifD1Mos6W+LqDre3nYT1m2Tth2TesysLg2NieozlvejzptcteSw2KRjXZhwCWY9/DWets8UWqql9FUG3aZf7MV6b0B7NAltHUa68iSdSCOuczthTK4m/JlUjw0nRqsWmdZKsJebNZPTWirugZ3AbUXsDwA6tLT1tHk9N6TOiBXQXBAtcDkZOyCsHw1MjkiqexlFiPlPedVgmHdj90jxOkvjHh+jsow9r9HLbF4orWanc2dCRrpvLw+RM7ifP9j6ROKU/cRmPoPUz6BaMDuJnpm3ARETueoREQDbERAEREEmJprUb7xU7rlbb1tezvm6LTKDSfZ87x+zOIQkhfaDjdePiDKl8K4NjTcd6MPUT61Fpwl6dN3Z5Zeli9p0fNcnfEU2b2VJiWXd1Q6dt+Us8v2RqO29WbcF7kA3Y9evATt4vNjhSWyo+lilt2acJhUpoERQqjq9T2zdEzOyWtHoSS0hMRE0HzvOssrNiKjLScguxBCmxGnOfQqY90dw9J7mJEIKNv5OcMSg215IGe02bDVFVSSUIAHE6icDhsFiqbbyUqim1rhTw0n06YvMniUndmZMKm7uj54XzDqrfyzodpExBpUjSDXX3nKn3r2ta3iZ0Uf36zFjdPbCw0muT2fO/8Zxtt27/+M387SbszkdQ1VrVFKqp3gD0mbkbdU7e0zJWHatkL01NNu6KLaTI/0hQyWFRb2/eBN7GclSOLwxKqrp1jdLKe3TSfSY/v+xw+UqWFN2nRU8ClLknR83ali8UwDK7W+8pVR2zs8hygYenYm7tqx5dgHZLW02JTJiGGnd2bjwKL5XbOX2nyBqx9pT6YFmU6bw7O2c1Qr4yh7iiogvw9mSPDSfUlUDh5mCP7/wC5ssPJ2nRkvTqT5J0fMKOV4rEvvMr9ruCoA7L+k+hZRly4ektNdbak/eJ4mTSbDqkSpjBfQX+U2GNQ35Kx4Y493bOCzfK67Yt2FFypqAg7uhFxrO2zjLBiMOUIs1gVJ5OB/YkujigdDpJAmxxRV/Yhhik/NnzLKjisLWIWi977rAoxU68bjQzsdock/SaalbK6i6k6cR0TLy0WmRwpRcX0I4UouLdpnytKWLwzFVR0vxspZT4gTLjF4khWV27Cu6o7ddJ9TtPFRARb+/ykex9nP/F8W6Oc2fycYdDexdtWPIdQHZLiHSxidVFRVI9EYKCSQiImlCIiAbYiYgGZGxeMRBrqeocZtr1Aisx4AXlDhaRrVCWOnE93ITnKVaREpVo3NmlRj7ieQJg42uOK/wBBlxTphRYAAdgnuFGXyOLfkgZfmBclStiBeS6z7qseoE+QnpUANwACeOk14voP8J9JW0tmrSKoZw/3B85n/F3+4PnMZGPfb4RLqw6h8pzipSV2Qk3uyvwGPZ33SoGl+c34/ElE3gAdbayTb+7Svzv6sfEPQypXGJbtLsijOH+4J6TOD9pB4GSsnH0XD7Rm/FUFZGuBoCb21HjJSlxtMhJ1Z6w2JV1uviOc3NwlDkhPtCBw3bmXrcPOXFtxsuLuJTHOH4BBz6+Uwc4f7g+c1ZUPpvA+sv7DqHykJOW7ISb8lXhMxd3ClAAeesn42sUplhra3zIH4zaAOyRM1+pbw/5LLpqLtlU1Ej4TNd5grgC/AjrlpOYp4YtTZ14qde6W2VY3fG43SHDtEiEn5JjL5J1Z91SeoEyHluNaoxBUCwvpJWJH0b/CfSV2zR99vhHrKb/kkU3svkoganjIWPzVE90e83UOXfNuZ4kpTZhx4L3nSUmT4IVGLvqo+bGVKTvjE1t3SNgzWs+qJp2IT84Oa1k6aeakS5q1VQWAF+QAsBK92LG7ayWpLyQ7XkLimqKCdB1SFicWUfdAHCTALC0qsw+s8BMm2kY2y1BkzC4n7LeBkNYlp1s1NomZnjfZKCACxNgPWe8vxXtKYbgeBHUZQYl2rVVQctB4XJJm/JKxSoabc9P4hJWR8vo1TbZ0U1133UZuoE+U2TVi/q3+E+k7S8nV+Svy7HGsSrKBYAi03spGkrdnOm3wj1l3Wp3HdOcNqyYu0RoiJRoiIgG2IiAQs1P0Tfw/8pFyIaOe0Swx1Lfpso4kaeGolNlOJCOVbQN8iJylqSZzf5HQCQK2aIrFSGuOyT5GfBoTcoCe6XK2tFSutGrD5ijsFANz1iScV0H+E+ko8AoGIsOtvxl1i+g/wn0kRbaZKlaOfwZqXPs73tra3Dxky+J/e8hGRdJvhEupMIWuzIq0acJvbg3+lz85Ezv6sfEPQyxldnf1Y+L8DLkv49lyWiBhcc6Juqtxcm9jzmWxdSr7gsO7T1ljkw+i/iMhZthtxg66C+tuRnPi6s506J2AwXswdbseP5SY/DzkbAYrfS/MaH85Jbh5+k7Rrjo6LrRzGHL+0O50teHfJ18T2+QmrKvrvBvWX9pyhG0zmkmRsBv7nv3vfn1Txmv1LeH/ACWTZCzX6l/D/ks6SVRLkqiRcjHuv3j8ZozDCmm4dOF7jsPbJOQLcN3j8ZdVKKspQi4I1kxjyijFG4kKji1fDsR0t0husG0r9m+m/wAI9ZErU2oOy30II7GUyZs703+EeslSuaT8GJ3JEjaM/RoOtj6GMrrBKIA4knwnvPlBp25hrju5yry2sOgT2jxlydT2bJ1IsCbm5iIlEiVWYfWeUtJV5h9Z5Tnk6MZarNOKqbqE8+A7zNwlbmD3YKOXqZsnSNejZlKkEv4Dt656zdN2otReDa9zDjNK4SoNN4D+KHwlQjVgQNbb1+EjfGqF6o6XC1w6K45jyPVGL6D/AAn0lRs9iOlTPVvDzsRLjF/Vv8J9J3jLlBs6J3Gyj2c6bfD+M6Gc9s502+Ees6GMX4iHRFrpY3muS6iXBkSbJUyhERANsREWDEq8flu8SyceY4X7pazFpMoqSpktWUCV69PSxt2rf5z3/iVU8EH8pl7Ejg/kni/ko8twz+0Dsthck3049ktsSL02A+6fOxm6JsYpKilGlRzmGSshuqEX/dvJAxOJ+6f5BLqJix15JUddlbgK1YvZx7tj9m2s95vTLUwFBPvDhxlhErjqmVx1RCyqmVp2IsbmSqlMMpU8DoZ7mJqVKjUlVFAKNWi5KKTxHC4Il1TYlASNSNR22m6YmRjVkqNHOUqVVG3lQ31+zfjJP6Tifun+QS7iSsddMzjRU4WvXLqGB3b6+4BJmZoWpMFFzppz0YXkkmbaSW15y1DVWUo6K7IaLKrhlK3I4iW0RLjHiqKSoi4/CCohU8R0T2/lKjKqb0mcupGgA6jYy+qOFFzKyq5Y3MmUVdkSqzyxLEk85W4nBEG6eXV3SxiRKPLshqyrTE1F0Iv3iev0qoeA8lllEzg/kcTRhQwX3+N+Z1kTHU2NS4UkaSyibKNqjKPLGwvbgJAwlFjU3mB01ljEOKdG0BA64iUCCtB1qh0QkBr6Dr4idDiATTaw1K6DvEjYGpZt3r18ZPmxikmdIrRyuFp16ZJVGBOnRvJX6Vivun/xidBElYqXY4fZT4DEYhqgDqd3X7AEm11se+S5qrJcd0tRpd2alojREQabYiIoCIiKAiIigIiIoCIiKAiIigIiIoCImYoGJhmtMM0U03jBlGykl9T4TfMCJSKMzBPbEh4ut9keMMxujViK28ewTRESGcmInqJgPMT1EA8xPUQDzE9RAPMT1EAwDYgjlr4y2R7gGVUmYF7gjqlxZcWS4mIlFmYMxEAhstiRMTbXGt+uapBhsiIgCIiAIiIAiIgCIiAIiIAiIgCeWMRAPMlUxYRE1BHqIiUaasRUst/CV14iRIiRmIiYQIiJgEREAREQBERAEREATbhWsw7YiUuzV2WEREs6iIiAaq40keIkPsln/9k=;" parent="tqLEFjUs7rJTjyPleBv_-1" vertex="1">
                    <mxGeometry x="640" y="145.89" width="166" height="74.11" as="geometry"/>
                </mxCell>
                <mxCell id="tqLEFjUs7rJTjyPleBv_-58" value="" style="endArrow=classic;html=1;fontFamily=Garamond;fontSize=24;fontColor=default;entryX=0;entryY=0.5;entryDx=0;entryDy=0;exitX=1;exitY=0.25;exitDx=0;exitDy=0;" parent="tqLEFjUs7rJTjyPleBv_-1" source="tqLEFjUs7rJTjyPleBv_-40" target="tqLEFjUs7rJTjyPleBv_-52" edge="1">
                    <mxGeometry width="50" height="50" relative="1" as="geometry">
                        <mxPoint x="400" y="200" as="sourcePoint"/>
                        <mxPoint x="450" y="150" as="targetPoint"/>
                    </mxGeometry>
                </mxCell>
            </root>
        </mxGraphModel>
    </diagram>
    <diagram id="3AgHK151EY_Rb2W5BPq4" name="Fluxograma">
        <mxGraphModel dx="820" dy="492" grid="0" gridSize="10" guides="1" tooltips="1" connect="1" arrows="1" fold="1" page="1" pageScale="1" pageWidth="850" pageHeight="1100" math="0" shadow="0">
            <root>
                <mxCell id="ay1RImDM8MPa4gr46tzG-0"/>
                <mxCell id="ay1RImDM8MPa4gr46tzG-1" parent="ay1RImDM8MPa4gr46tzG-0"/>
                <mxCell id="ay1RImDM8MPa4gr46tzG-10" value="" style="edgeStyle=none;html=1;" edge="1" parent="ay1RImDM8MPa4gr46tzG-1" source="ay1RImDM8MPa4gr46tzG-2" target="ay1RImDM8MPa4gr46tzG-9">
                    <mxGeometry relative="1" as="geometry"/>
                </mxCell>
                <mxCell id="ay1RImDM8MPa4gr46tzG-2" value="&lt;p&gt;&lt;font face=&quot;Times New Roman&quot; style=&quot;font-size: 14px&quot; color=&quot;#ffffff&quot;&gt;&lt;b&gt;C Mil A&lt;/b&gt;&lt;/font&gt;&lt;/p&gt;" style="shape=step;perimeter=stepPerimeter;whiteSpace=wrap;html=1;fixedSize=1;fillColor=#FF0000;shadow=1;" vertex="1" parent="ay1RImDM8MPa4gr46tzG-1">
                    <mxGeometry x="40" y="40" width="160" height="80" as="geometry"/>
                </mxCell>
                <mxCell id="ay1RImDM8MPa4gr46tzG-3" value="&lt;font face=&quot;Times New Roman&quot; color=&quot;#ffffff&quot;&gt;&lt;b&gt;Edita Informações dos PTrab em Planilhas Eletrônicas&lt;/b&gt;&lt;/font&gt;" style="shape=document;whiteSpace=wrap;html=1;boundedLbl=1;size=0.375;fillColor=#0000CC;" vertex="1" parent="ay1RImDM8MPa4gr46tzG-1">
                    <mxGeometry x="60" y="160" width="120" height="80" as="geometry"/>
                </mxCell>
                <mxCell id="ay1RImDM8MPa4gr46tzG-7" value="" style="endArrow=none;dashed=1;html=1;entryX=0.5;entryY=1;entryDx=0;entryDy=0;exitX=0.5;exitY=0;exitDx=0;exitDy=0;" edge="1" parent="ay1RImDM8MPa4gr46tzG-1" source="ay1RImDM8MPa4gr46tzG-3" target="ay1RImDM8MPa4gr46tzG-2">
                    <mxGeometry width="50" height="50" relative="1" as="geometry">
                        <mxPoint x="290" y="220" as="sourcePoint"/>
                        <mxPoint x="340" y="170" as="targetPoint"/>
                    </mxGeometry>
                </mxCell>
                <mxCell id="ay1RImDM8MPa4gr46tzG-14" value="" style="edgeStyle=none;html=1;" edge="1" parent="ay1RImDM8MPa4gr46tzG-1" source="ay1RImDM8MPa4gr46tzG-9" target="ay1RImDM8MPa4gr46tzG-13">
                    <mxGeometry relative="1" as="geometry"/>
                </mxCell>
                <mxCell id="ay1RImDM8MPa4gr46tzG-9" value="&lt;font face=&quot;Times New Roman&quot; style=&quot;font-size: 14px&quot; color=&quot;#0000cc&quot;&gt;&lt;b&gt;COTER&lt;/b&gt;&lt;/font&gt;" style="shape=step;perimeter=stepPerimeter;whiteSpace=wrap;html=1;fixedSize=1;fillColor=#FFFF33;" vertex="1" parent="ay1RImDM8MPa4gr46tzG-1">
                    <mxGeometry x="240" y="40" width="160" height="80" as="geometry"/>
                </mxCell>
                <mxCell id="ay1RImDM8MPa4gr46tzG-11" value="&lt;font face=&quot;Times New Roman&quot; color=&quot;#ffffff&quot;&gt;&lt;b&gt;Rebebe os PTrab dos C Mil A&lt;/b&gt;&lt;/font&gt;" style="shape=document;whiteSpace=wrap;html=1;boundedLbl=1;fillColor=#0000CC;" vertex="1" parent="ay1RImDM8MPa4gr46tzG-1">
                    <mxGeometry x="260" y="160" width="120" height="80" as="geometry"/>
                </mxCell>
                <mxCell id="ay1RImDM8MPa4gr46tzG-12" value="" style="endArrow=none;dashed=1;html=1;entryX=0.5;entryY=1;entryDx=0;entryDy=0;exitX=0.5;exitY=0;exitDx=0;exitDy=0;" edge="1" parent="ay1RImDM8MPa4gr46tzG-1" source="ay1RImDM8MPa4gr46tzG-11" target="ay1RImDM8MPa4gr46tzG-9">
                    <mxGeometry width="50" height="50" relative="1" as="geometry">
                        <mxPoint x="290" y="200" as="sourcePoint"/>
                        <mxPoint x="340" y="150" as="targetPoint"/>
                    </mxGeometry>
                </mxCell>
                <mxCell id="ay1RImDM8MPa4gr46tzG-18" value="" style="edgeStyle=none;html=1;" edge="1" parent="ay1RImDM8MPa4gr46tzG-1" source="ay1RImDM8MPa4gr46tzG-13" target="ay1RImDM8MPa4gr46tzG-17">
                    <mxGeometry relative="1" as="geometry"/>
                </mxCell>
                <mxCell id="ay1RImDM8MPa4gr46tzG-13" value="&lt;font face=&quot;Times New Roman&quot; style=&quot;font-size: 14px&quot; color=&quot;#0000cc&quot;&gt;&lt;b&gt;Div Op&lt;br&gt;Ch Emp F Ter&lt;br&gt;COTER&lt;/b&gt;&lt;/font&gt;" style="shape=step;perimeter=stepPerimeter;whiteSpace=wrap;html=1;fixedSize=1;fillColor=#FFFF33;" vertex="1" parent="ay1RImDM8MPa4gr46tzG-1">
                    <mxGeometry x="440" y="40" width="160" height="80" as="geometry"/>
                </mxCell>
                <mxCell id="ay1RImDM8MPa4gr46tzG-15" value="&lt;font face=&quot;Times New Roman&quot; color=&quot;#ffffff&quot;&gt;&lt;b&gt;Faz análises dos PTrab enviados pelos C Mil A&lt;/b&gt;&lt;/font&gt;" style="shape=document;whiteSpace=wrap;html=1;boundedLbl=1;fillColor=#0000CC;" vertex="1" parent="ay1RImDM8MPa4gr46tzG-1">
                    <mxGeometry x="460" y="160" width="120" height="80" as="geometry"/>
                </mxCell>
                <mxCell id="ay1RImDM8MPa4gr46tzG-16" value="" style="endArrow=none;dashed=1;html=1;dashPattern=1 3;strokeWidth=2;entryX=0.5;entryY=1;entryDx=0;entryDy=0;exitX=0.5;exitY=0;exitDx=0;exitDy=0;" edge="1" parent="ay1RImDM8MPa4gr46tzG-1" source="ay1RImDM8MPa4gr46tzG-15" target="ay1RImDM8MPa4gr46tzG-13">
                    <mxGeometry width="50" height="50" relative="1" as="geometry">
                        <mxPoint x="370" y="180" as="sourcePoint"/>
                        <mxPoint x="420" y="130" as="targetPoint"/>
                    </mxGeometry>
                </mxCell>
                <mxCell id="ay1RImDM8MPa4gr46tzG-17" value="&lt;font face=&quot;Times New Roman&quot; style=&quot;font-size: 14px&quot; color=&quot;#ffffff&quot;&gt;&lt;b&gt;DGOF&lt;br&gt;Ch Emp F Ter&lt;br&gt;COTER&lt;/b&gt;&lt;/font&gt;" style="shape=step;perimeter=stepPerimeter;whiteSpace=wrap;html=1;fixedSize=1;fillColor=#006600;" vertex="1" parent="ay1RImDM8MPa4gr46tzG-1">
                    <mxGeometry x="640" y="40" width="160" height="80" as="geometry"/>
                </mxCell>
                <mxCell id="ay1RImDM8MPa4gr46tzG-19" value="&lt;font face=&quot;Times New Roman&quot; color=&quot;#ffffff&quot;&gt;&lt;b&gt;Digita cada item dos PTrab em outras Planilhas Eletrônicas&lt;/b&gt;&lt;/font&gt;" style="shape=document;whiteSpace=wrap;html=1;boundedLbl=1;fillColor=#0000CC;" vertex="1" parent="ay1RImDM8MPa4gr46tzG-1">
                    <mxGeometry x="660" y="160" width="120" height="80" as="geometry"/>
                </mxCell>
                <mxCell id="ay1RImDM8MPa4gr46tzG-20" value="" style="endArrow=none;dashed=1;html=1;dashPattern=1 3;strokeWidth=2;entryX=0.5;entryY=1;entryDx=0;entryDy=0;exitX=0.5;exitY=0;exitDx=0;exitDy=0;" edge="1" parent="ay1RImDM8MPa4gr46tzG-1" source="ay1RImDM8MPa4gr46tzG-19" target="ay1RImDM8MPa4gr46tzG-17">
                    <mxGeometry width="50" height="50" relative="1" as="geometry">
                        <mxPoint x="370" y="160" as="sourcePoint"/>
                        <mxPoint x="420" y="110" as="targetPoint"/>
                    </mxGeometry>
                </mxCell>
            </root>
        </mxGraphModel>
    </diagram>
</mxfile>